<svg width="3421" height="998" viewBox="0 0 3421 998" fill="none" xmlns="http://www.w3.org/2000/svg">
<path d="M1637.08 181.618C1638.24 181.618 1640.24 181.747 1643.08 182.005C1646.05 182.134 1649.15 182.263 1652.38 182.393C1655.61 182.522 1658.64 182.715 1661.49 182.974C1664.46 183.103 1666.46 183.168 1667.49 183.168H1670.59C1671.5 183.038 1672.79 182.78 1674.47 182.393C1676.14 182.005 1677.11 181.747 1677.37 181.618C1681.76 179.939 1685.38 177.937 1688.22 175.612C1691.06 173.158 1693.58 170.511 1695.78 167.669C1697.97 164.699 1699.97 161.599 1701.78 158.371C1703.72 155.013 1705.98 151.59 1708.56 148.103C1708.82 147.457 1709.27 146.682 1709.92 145.778C1710.56 144.745 1710.89 144.035 1710.89 143.647C1710.89 143.518 1710.95 142.937 1711.08 141.904C1711.34 140.871 1711.53 139.773 1711.66 138.611C1711.79 137.448 1711.92 136.35 1712.05 135.317C1712.18 134.284 1712.24 133.638 1712.24 133.38C1712.37 133.122 1712.57 132.218 1712.82 130.668C1713.21 129.118 1713.53 128.214 1713.79 127.956V124.662C1713.79 121.95 1713.66 119.109 1713.4 116.138C1713.15 113.168 1712.31 110.391 1710.89 107.808C1709.08 104.579 1707.53 101.415 1706.24 98.3155C1705.07 95.0868 1703.59 91.9871 1701.78 89.0167C1701.52 88.8875 1701.14 88.5647 1700.62 88.048C1700.23 87.4023 1699.78 86.8211 1699.26 86.3045C1698.88 85.6588 1698.49 85.0776 1698.1 84.561C1697.71 83.9152 1697.45 83.5278 1697.33 83.3986C1697.33 83.2695 1697.07 82.8174 1696.55 82.0425C1696.03 81.1385 1695.45 80.299 1694.81 79.5241C1694.29 78.62 1693.71 77.7806 1693.06 77.0057C1692.55 76.2308 1692.22 75.7787 1692.1 75.6496C1692.1 75.2621 1691.9 74.9393 1691.51 74.681C1691.26 74.4227 1691 74.2935 1690.74 74.2935C1689.71 73.6478 1688.61 73.2603 1687.45 73.1311C1686.28 73.002 1685.12 72.9374 1683.96 72.9374C1682.8 72.9374 1681.63 72.8728 1680.47 72.7437C1679.44 72.6145 1678.41 72.0979 1677.37 71.1939C1675.69 70.2898 1674.14 69.4504 1672.72 68.6755C1671.43 67.7714 1670.07 67.0611 1668.65 66.5445C1667.36 65.8987 1665.88 65.4467 1664.2 65.1884C1662.65 64.8009 1660.78 64.6072 1658.58 64.6072H1655.87C1655.22 64.6072 1654.19 64.6718 1652.77 64.8009C1651.48 64.9301 1650.06 65.1238 1648.51 65.3821C1646.96 65.5113 1645.41 65.6404 1643.86 65.7696C1642.44 65.8987 1641.4 65.9633 1640.76 65.9633C1640.63 66.0924 1640.24 66.4799 1639.6 67.1256C1638.95 67.7714 1638.24 68.4817 1637.46 69.2566C1636.82 69.9024 1636.11 70.5481 1635.33 71.1939C1634.69 71.8396 1634.24 72.2917 1633.98 72.55C1633.98 72.8083 1633.85 73.454 1633.59 74.4872C1633.46 75.3913 1633.27 76.1016 1633.01 76.6182C1633.01 77.1348 1632.75 78.1034 1632.23 79.5241C1631.85 80.8156 1631.65 81.7842 1631.65 82.43C1631.14 83.7215 1630.75 85.2713 1630.49 87.0794C1630.36 88.7584 1629.78 90.179 1628.75 91.3414V109.164C1628.88 109.939 1629 112.005 1629.13 115.363C1629.26 118.592 1629.39 122.144 1629.52 126.018C1629.78 129.764 1629.97 133.315 1630.1 136.673C1630.23 139.902 1630.3 141.904 1630.3 142.679C1630.3 143.325 1630.23 144.874 1630.1 147.328C1629.97 149.782 1629.78 152.43 1629.52 155.271C1629.39 158.112 1629.26 160.824 1629.13 163.407C1629 165.861 1628.88 167.411 1628.75 168.057V171.544C1628.75 173.481 1629.52 175.483 1631.07 177.549C1632.75 179.616 1634.75 180.972 1637.08 181.618ZM1758.16 315.87C1755.44 315.87 1752.73 316.193 1750.02 316.838C1747.31 317.355 1744.66 317.613 1742.08 317.613C1741.43 317.613 1740.27 317.226 1738.59 316.451C1740.4 317.484 1736.91 315.676 1738.59 316.451C1736.91 315.289 1735.3 314.191 1733.75 313.158C1732.33 312.124 1731.42 311.285 1731.03 310.639C1729.23 308.056 1727.74 305.409 1726.58 302.696C1725.55 299.984 1724.25 297.401 1722.7 294.947C1722.45 294.302 1721.74 293.333 1720.57 292.041C1719.54 290.621 1713.79 287.069 1713.79 286.811C1713.53 286.423 1713.08 285.713 1712.44 284.68C1711.92 283.647 1711.34 282.549 1710.69 281.387C1710.18 280.095 1709.66 278.933 1709.14 277.899C1708.76 276.866 1708.56 276.156 1708.56 275.769C1708.17 275.51 1707.59 274.929 1706.82 274.025C1706.17 272.992 1705.72 272.217 1705.46 271.7C1702.23 267.051 1699 262.466 1695.78 257.946C1692.68 253.296 1689.64 248.518 1686.67 243.61C1686.67 243.352 1686.48 242.9 1686.09 242.254C1685.83 241.608 1685.57 241.156 1685.31 240.898C1683.64 236.765 1681.76 232.89 1679.7 229.274C1677.63 225.658 1675.5 221.913 1673.3 218.038C1673.3 217.909 1673.17 217.586 1672.92 217.07C1672.66 216.424 1672.33 215.843 1671.95 215.326C1671.69 214.68 1671.43 214.099 1671.17 213.582C1670.91 212.937 1670.72 212.549 1670.59 212.42C1670.33 212.42 1669.49 211.968 1668.07 211.064C1666.78 210.031 1665.81 209.256 1665.17 208.739C1664.91 208.61 1664.39 208.287 1663.62 207.771C1662.84 207.125 1662 206.544 1661.1 206.027C1660.32 205.381 1659.55 204.8 1658.77 204.284C1658 203.767 1657.48 203.444 1657.22 203.315C1656.97 203.057 1656.26 202.346 1655.09 201.184C1654.06 200.022 1653.41 199.311 1653.16 199.053C1652.9 198.924 1652.38 198.666 1651.61 198.278C1650.96 197.891 1650.19 197.503 1649.28 197.116C1648.51 196.599 1647.73 196.147 1646.96 195.76C1646.18 195.372 1645.6 195.114 1645.21 194.985C1644.96 194.985 1644.05 194.856 1642.5 194.597C1640.95 194.21 1640.05 193.887 1639.79 193.629C1639.4 193.629 1638.5 193.241 1637.08 192.466C1635.66 191.691 1634.62 191.304 1633.98 191.304H1633.78C1633.01 191.304 1632.04 192.014 1630.88 193.435C1629.72 194.726 1628.55 196.276 1627.39 198.084C1626.23 199.763 1625.26 201.442 1624.48 203.121C1623.71 204.8 1623.32 205.963 1623.32 206.608C1623.32 209.062 1623.58 211.322 1624.1 213.389C1624.74 215.455 1625.07 217.715 1625.07 220.169C1625.07 222.494 1624.74 224.625 1624.1 226.562C1623.58 228.499 1623.32 230.501 1623.32 232.568C1623.32 234.892 1623.71 237.217 1624.48 239.542C1625.39 241.737 1626.03 243.868 1626.42 245.935V270.344C1626.42 270.732 1626.16 271.7 1625.65 273.25C1625.26 274.671 1625.07 275.51 1625.07 275.769V277.125C1625.07 280.87 1625.91 284.034 1627.58 286.617C1629.39 289.071 1632.36 315.03 1634.95 316.838C1637.53 318.517 1640.31 320.003 1643.28 321.294C1646.38 322.586 1649.22 323.877 1651.8 325.169C1654.38 326.331 1656.51 327.622 1658.19 329.043C1660 330.464 1660.91 332.143 1660.91 334.08C1660.91 335.63 1660.32 336.986 1659.16 338.148C1658.13 339.181 1656.77 340.086 1655.09 340.86C1653.54 341.506 1651.93 341.958 1650.25 342.217C1648.57 342.604 1647.15 342.798 1645.99 342.798C1645.08 342.798 1643.6 342.733 1641.53 342.604C1639.47 342.604 1637.27 342.539 1634.95 342.41C1632.75 342.41 1630.62 342.346 1628.55 342.217C1626.62 342.087 1623.32 344.661 1624.48 341.829L1603.02 344.661L1578.57 341.442C1577.54 342.087 1575.47 318.647 1573.92 318.776C1572.37 318.905 1570.89 318.969 1569.47 318.969H1554.94C1554.16 318.711 1553.06 318.13 1551.64 317.226C1550.22 316.322 1549.51 315.353 1549.51 314.32C1549.51 313.416 1549.84 312.447 1550.48 311.414C1551.26 310.381 1552.1 309.477 1553 308.702C1554.03 307.798 1555.07 307.088 1556.1 306.571C1557.13 305.925 1557.97 305.602 1558.62 305.602L1581.28 329.431C1581.54 329.431 1581.86 329.237 1582.25 328.849C1582.77 328.333 1583.22 327.752 1583.61 327.106C1584 326.46 1584.32 325.879 1584.58 325.362C1584.96 324.717 1585.16 324.265 1585.16 324.006L1584.38 286.811C1584.51 286.423 1584.64 285.519 1584.77 284.099C1585.03 282.549 1585.22 280.935 1585.35 279.256C1585.61 277.577 1585.8 276.027 1585.93 274.606C1586.06 273.056 1586.13 272.088 1586.13 271.7C1586.13 271.184 1586.06 269.957 1585.93 268.019C1585.8 266.082 1585.74 264.21 1585.74 262.401C1585.74 261.497 1585.74 260.658 1585.74 259.883C1585.74 259.108 1585.87 258.591 1586.13 258.333C1586.13 258.204 1586.13 257.817 1586.13 257.171C1586.26 256.396 1586.39 254.652 1586.51 251.94C1586.64 249.228 1586.77 245.16 1586.9 239.735C1587.03 234.182 1587.1 226.498 1587.1 216.682C1588.65 214.357 1589.55 212.291 1589.81 210.483C1590.07 208.675 1590.2 206.544 1590.2 204.09C1590.2 203.186 1590.13 202.023 1590 200.603C1589.87 199.053 1589.81 198.149 1589.81 197.891C1589.81 197.632 1589.55 197.18 1589.03 196.535C1588.65 195.76 1588.45 195.243 1588.45 194.985V194.597C1588.45 191.239 1588.71 187.817 1589.23 184.33C1589.87 180.714 1590.2 177.227 1590.2 173.869C1590.2 171.286 1589.87 169.348 1589.23 168.057C1588.71 166.765 1588.45 165.216 1588.45 163.407V162.826C1588.45 162.439 1588.65 161.599 1589.03 160.308C1589.55 158.887 1589.81 158.048 1589.81 157.789C1589.94 157.273 1590.07 156.498 1590.2 155.465C1590.32 154.302 1590.45 153.14 1590.58 151.978C1590.84 150.815 1591.03 149.782 1591.16 148.878C1591.29 147.845 1591.42 147.134 1591.55 146.747V130.28C1591.55 129.764 1591.68 128.278 1591.94 125.825C1592.33 123.242 1592.71 120.529 1593.1 117.688C1593.62 114.718 1594.07 112.005 1594.46 109.552C1594.84 106.969 1595.1 105.354 1595.23 104.708V94.441C1595.23 94.1827 1595.3 93.6661 1595.43 92.8912C1595.55 91.9871 1595.68 91.0831 1595.81 90.179C1596.07 89.1458 1596.27 88.2418 1596.39 87.4669C1596.52 86.692 1596.59 86.2399 1596.59 86.1108V83.3986C1596.59 83.1403 1596.2 82.4946 1595.43 81.4614C1594.65 80.299 1594.13 79.5887 1593.88 79.3304C1593.62 78.9429 1593.17 78.4909 1592.52 77.9743C1592 77.4577 1591.42 76.9411 1590.78 76.4245C1590.26 75.7787 1589.74 75.2621 1589.23 74.8747C1588.84 74.4872 1588.58 74.2935 1588.45 74.2935C1588.19 74.0352 1587.16 73.7769 1585.35 73.5186C1583.54 73.1311 1582.38 72.8083 1581.86 72.55C1581.22 72.55 1580.12 72.3562 1578.57 71.9688C1577.02 71.5813 1575.41 71.1939 1573.73 70.8064C1572.05 70.419 1570.44 70.0315 1568.89 69.6441C1567.46 69.2566 1566.5 68.9983 1565.98 68.8692C1563.4 68.2234 1563.08 66.9319 1567.08 64.9947C1570.87 62.9282 1572.76 60.539 1572.76 57.8268C1572.76 56.7936 1586.18 56.8582 1585.13 56.0833C1583.87 55.3084 1582.5 54.6626 1581.03 54.146C1579.35 53.5003 1577.56 53.0482 1575.67 52.7899C1573.77 52.4025 1577.8 52.2087 1578.57 52.2087C1580.12 52.2087 1581.48 52.2733 1582.64 52.4025C1583.8 52.5316 1585.16 52.9191 1586.71 53.5648C1582.06 53.1774 1591.36 53.8231 1586.71 53.5648C1591.36 53.9523 1595.88 54.146 1600.27 54.146C1604.66 54.146 1608.92 53.9523 1613.05 53.5648C1617.19 53.1774 1621.19 52.8545 1625.07 52.5962C1626.23 51.9504 1627.2 51.563 1627.97 51.4338C1628.75 51.3047 1629.65 51.2401 1630.68 51.2401C1632.36 51.2401 1633.72 51.7567 1634.75 52.7899C1635.91 53.694 1637.34 54.146 1639.01 54.146C1642.24 54.146 1645.41 53.9523 1648.51 53.5648C1651.74 53.0482 1654.9 52.5316 1658 52.015C1661.1 51.4984 1664.13 51.0464 1667.1 50.6589C1670.2 50.1423 1673.37 49.884 1676.6 49.884H1683.96C1684.73 50.5298 1685.7 50.9818 1686.86 51.2401C1688.03 51.4984 1689.19 51.6921 1690.35 51.8213C1691.51 51.9504 1692.61 52.0796 1693.64 52.2087C1694.68 52.2087 1695.52 52.3379 1696.16 52.5962C1696.68 52.7253 1697.45 53.3711 1698.49 54.5335C1699.52 55.5667 1700.17 56.2124 1700.43 56.4707L1721.93 63.2511C1721.93 63.2511 1722.32 63.6386 1723.09 64.4135C1723.87 65.0592 1724.71 65.8987 1725.61 66.9319C1726.64 67.9651 1727.61 68.9983 1728.52 70.0315C1729.55 71.0647 1730.32 71.9042 1730.84 72.55C1731.1 72.8083 1731.62 73.5186 1732.39 74.681C1733.16 75.7142 1733.68 76.3599 1733.94 76.6182C1735.62 78.8138 1737.75 80.5573 1740.33 81.8488C1743.04 83.1403 1744.92 84.561 1745.95 86.1108C1747.76 89.5979 1749.18 93.1495 1750.21 96.7657C1751.25 100.253 1752.54 103.934 1754.09 107.808C1754.09 107.937 1754.22 108.26 1754.47 108.777C1754.73 109.293 1754.99 109.875 1755.25 110.52C1755.51 111.037 1755.77 111.618 1756.02 112.264C1756.28 112.78 1756.41 113.103 1756.41 113.232V114.589C1756.41 114.718 1756.28 115.105 1756.02 115.751C1755.77 116.397 1755.51 117.107 1755.25 117.882C1754.99 118.528 1754.73 119.173 1754.47 119.819C1754.22 120.465 1754.09 120.917 1754.09 121.175V135.898C1754.09 136.157 1753.96 136.544 1753.7 137.061C1753.44 137.577 1753.12 138.159 1752.73 138.804C1752.34 139.321 1751.96 139.837 1751.57 140.354C1751.31 140.871 1751.12 141.194 1750.99 141.323C1750.99 141.452 1750.92 141.904 1750.79 142.679C1750.79 143.325 1750.73 144.035 1750.6 144.81C1750.47 145.585 1750.28 146.295 1750.02 146.941C1749.89 147.586 1749.76 147.974 1749.63 148.103C1748.73 151.978 1747.11 156.046 1744.79 160.308C1742.59 164.57 1739.95 168.638 1736.85 172.513C1733.75 176.258 1730.32 179.68 1726.58 182.78C1722.83 185.88 1719.02 188.269 1715.15 189.948C1714.89 189.948 1713.92 190.077 1712.24 190.335C1710.69 190.594 1709.79 190.917 1709.53 191.304C1707.46 192.466 1705.66 194.468 1704.11 197.309C1702.69 200.151 1701.46 202.605 1700.43 204.671C1700.55 204.929 1700.68 205.123 1700.81 205.252C1701.07 205.511 1701.39 205.64 1701.78 205.64C1706.3 209.514 1710.56 213.518 1714.57 217.651C1718.57 221.784 1722.32 226.368 1725.8 231.405C1725.8 231.664 1726 232.374 1726.38 233.536C1726.77 234.569 1727.03 235.215 1727.16 235.474C1727.16 235.732 1727.29 236.184 1727.55 236.83C1727.93 237.475 1728.26 237.927 1728.52 238.186C1729.55 239.994 1730.45 241.802 1731.23 243.61C1732 245.289 1732.91 247.033 1733.94 248.841C1734.84 250.649 1735.68 252.134 1736.46 253.296C1737.23 254.459 1738.01 255.556 1738.78 256.59C1739.56 257.623 1740.4 258.656 1741.3 259.689C1742.21 260.722 1743.24 262.014 1744.4 263.564C1747.5 267.697 1750.6 272.088 1753.7 276.737C1756.93 281.257 1752.09 287.65 1756.22 290.492C1758.67 292.3 1761.45 293.785 1764.55 294.947C1767.78 295.981 1770.75 297.208 1773.46 298.628C1776.17 299.92 1778.43 301.728 1780.24 304.053C1782.18 306.248 1783.15 309.412 1783.15 313.545L1791.67 313.933C1791.67 314.578 1791.61 315.289 1791.48 316.064C1791.48 316.838 1791.15 317.355 1790.51 317.613C1790.25 317.613 1789.41 317.742 1787.99 318.001C1786.57 318.388 1785.54 318.711 1784.89 318.969C1784.63 318.969 1783.92 318.969 1782.76 318.969C1781.6 319.099 1780.18 319.228 1778.5 319.357C1776.95 319.486 1775.33 319.615 1773.65 319.744C1772.1 320.003 1770.81 320.196 1769.78 320.325H1769.39C1768.62 320.325 1767.84 320.067 1767.07 319.551C1766.29 319.163 1765.45 318.647 1764.55 318.001C1763.77 317.484 1762.87 317.032 1761.84 316.645C1760.8 316.128 1759.58 315.87 1758.16 315.87Z" fill="#3B3232"/>
<path d="M1764.89 189.926C1764.89 193.414 1765.69 195.958 1767.29 197.557C1768.88 199.01 1770.85 199.955 1773.17 200.391C1775.64 200.827 1778.26 201.045 1781.02 201.045C1783.93 200.9 1786.55 200.973 1788.87 201.264C1789.16 201.264 1789.74 201.554 1790.62 202.136C1791.49 202.572 1792.07 202.79 1792.36 202.79C1795.27 203.662 1797.45 204.171 1798.9 204.316C1800.35 204.461 1802.53 204.534 1805.44 204.534C1808.2 204.534 1811.04 204.461 1813.95 204.316C1816.85 204.025 1819.47 203.444 1821.79 202.572C1824.27 201.7 1826.23 200.319 1827.68 198.429C1829.28 196.539 1830.08 193.923 1830.08 190.58C1830.08 186.364 1829.35 182.004 1827.9 177.498C1826.59 172.846 1824.27 169.212 1820.92 166.596C1820.2 166.596 1819.03 166.523 1817.43 166.378C1815.98 166.233 1814.38 166.087 1812.64 165.942C1810.89 165.796 1809.15 165.651 1807.4 165.506C1805.81 165.215 1804.64 165.07 1803.92 165.07C1803.63 164.924 1803.26 164.706 1802.83 164.416C1801.95 163.834 1801.44 163.543 1801.3 163.543H1797.59C1794.54 163.543 1791.05 164.343 1787.13 165.942C1783.35 167.395 1779.79 169.358 1776.44 171.829C1773.25 174.3 1770.48 177.134 1768.16 180.332C1765.98 183.385 1764.89 186.582 1764.89 189.926ZM1714.96 243.78C1714.96 235.204 1715.9 226.556 1717.79 217.834C1719.83 208.967 1723.39 200.9 1728.48 193.632C1729.49 192.179 1730.95 190.289 1732.84 187.963C1734.73 185.492 1736.54 183.094 1738.29 180.768C1740.18 178.297 1741.78 176.117 1743.08 174.227C1744.39 172.338 1745.12 171.247 1745.26 170.957C1747.15 168.631 1749.63 166.451 1752.68 164.416C1755.73 162.381 1758.93 160.418 1762.27 158.529C1765.61 156.639 1768.96 154.822 1772.3 153.078C1775.64 151.188 1778.55 149.371 1781.02 147.627C1783.93 147.045 1786.84 146.609 1789.74 146.319C1792.65 145.883 1795.56 145.665 1798.46 145.665C1803.26 145.665 1807.62 146.173 1811.55 147.191C1814.6 149.226 1817.87 150.534 1821.36 151.115C1824.85 151.552 1828.26 152.278 1831.61 153.296C1834.37 154.023 1837.06 155.185 1839.67 156.784C1842.44 158.238 1844.91 160.055 1847.09 162.235C1849.41 164.27 1851.52 166.523 1853.41 168.994C1855.44 171.32 1857.19 173.646 1858.64 175.971C1858.79 176.117 1859.01 176.48 1859.3 177.062C1859.59 177.643 1859.88 178.297 1860.17 179.024C1860.6 179.605 1860.97 180.187 1861.26 180.768C1861.55 181.35 1861.7 181.713 1861.7 181.858C1862.42 182.876 1863.37 184.039 1864.53 185.347C1865.84 186.51 1867.07 187.818 1868.24 189.272C1869.4 190.58 1870.34 192.033 1871.07 193.632C1871.94 195.086 1872.38 196.612 1872.38 198.211C1872.38 199.374 1872.31 200.827 1872.16 202.572C1872.02 204.171 1871.72 205.842 1871.29 207.587C1870.85 209.185 1870.2 210.712 1869.33 212.165C1868.6 213.619 1867.58 214.636 1866.27 215.218C1865.98 215.218 1865.4 215.363 1864.53 215.654C1863.8 215.945 1862.93 216.308 1861.91 216.744C1860.9 217.035 1859.88 217.325 1858.86 217.616C1857.99 217.907 1857.41 218.125 1857.12 218.27C1856.97 218.27 1856.46 218.488 1855.59 218.924C1854.86 219.215 1854.43 219.433 1854.28 219.578C1852.39 219.578 1849.49 219.651 1845.56 219.797C1841.78 219.797 1837.42 219.869 1832.48 220.015C1827.68 220.015 1822.59 220.087 1817.22 220.233C1811.84 220.378 1806.68 220.523 1801.74 220.669C1796.94 220.814 1792.58 220.959 1788.65 221.105C1784.73 221.105 1781.82 221.105 1779.93 221.105C1779.35 221.105 1778.26 221.177 1776.66 221.323C1775.06 221.323 1773.39 221.395 1771.65 221.541C1769.9 221.686 1768.23 221.904 1766.63 222.195C1765.18 222.34 1764.16 222.486 1763.58 222.631C1759.8 225.683 1757.26 229.39 1755.95 233.751C1754.79 237.966 1754.2 242.472 1754.2 247.269C1754.2 252.502 1754.71 257.081 1755.73 261.005C1756.75 264.784 1758.27 269.145 1760.31 274.087C1760.6 274.378 1760.89 274.959 1761.18 275.832C1761.62 276.558 1761.84 277.067 1761.84 277.358C1761.98 277.503 1762.34 277.867 1762.93 278.448C1763.65 278.884 1764.31 279.465 1764.89 280.192C1765.61 280.774 1766.27 281.428 1766.85 282.155C1767.43 282.736 1767.72 283.172 1767.72 283.463C1767.87 283.608 1768.3 284.117 1769.03 284.989C1769.9 285.716 1770.77 286.588 1771.65 287.605C1772.52 288.623 1773.32 289.64 1774.05 290.658C1774.77 291.53 1775.21 292.112 1775.35 292.402C1775.64 292.402 1775.93 292.62 1776.23 293.056C1776.66 293.492 1777.02 293.71 1777.32 293.71C1778.62 294.873 1780.22 296.254 1782.11 297.853C1784.15 299.452 1786.11 300.978 1788 302.432C1790.18 304.176 1792.51 305.92 1794.98 307.665C1801.23 309.409 1807.26 310.281 1813.07 310.281C1818.89 310.281 1825.07 309.409 1831.61 307.665C1835.39 305.339 1839.24 303.595 1843.16 302.432C1847.23 301.124 1851.3 299.815 1855.37 298.507C1855.66 298.216 1856.24 297.926 1857.12 297.635C1857.99 297.199 1858.5 296.836 1858.64 296.545H1860.17C1861.19 296.981 1862.42 297.562 1863.88 298.289C1865.47 299.016 1866.27 299.597 1866.27 300.033C1866.56 300.324 1866.86 301.414 1867.15 303.304C1867.58 305.194 1867.8 306.647 1867.8 307.665C1867.8 310.136 1867.07 313.043 1865.62 316.386C1864.31 319.729 1863 322.2 1861.7 323.799C1861.7 324.09 1860.82 324.817 1859.08 325.98C1857.48 327.142 1856.24 328.015 1855.37 328.596C1850.72 331.649 1846.14 334.919 1841.64 338.408C1837.13 341.751 1832.26 344.44 1827.03 346.475C1826.74 346.62 1826.01 346.766 1824.85 346.911C1823.83 347.202 1822.74 347.42 1821.58 347.565C1820.41 347.71 1819.32 347.856 1818.31 348.001C1817.29 348.147 1816.71 348.219 1816.56 348.219C1813.8 348.946 1811.4 349.6 1809.37 350.182C1807.48 350.908 1805.22 351.272 1802.61 351.272C1800.14 351.272 1797.88 350.908 1795.85 350.182C1793.81 349.6 1791.49 348.946 1788.87 348.219C1787.56 347.929 1785.67 347.42 1783.2 346.693C1780.88 346.112 1778.41 345.385 1775.79 344.513C1773.17 343.64 1770.7 342.696 1768.38 341.678C1766.2 340.661 1764.6 339.716 1763.58 338.844C1763.14 338.698 1762.34 338.044 1761.18 336.881C1760.02 335.719 1758.71 334.483 1757.26 333.175C1755.95 331.867 1754.71 330.631 1753.55 329.468C1752.39 328.305 1751.59 327.579 1751.15 327.288C1751.01 326.997 1750.28 326.416 1748.97 325.544C1747.66 324.671 1746.94 324.09 1746.79 323.799C1746.06 323.509 1745.19 322.854 1744.17 321.837C1743.16 320.674 1742.5 319.947 1742.21 319.657C1741.78 319.075 1740.83 317.767 1739.38 315.732C1738.07 313.552 1736.62 311.226 1735.02 308.755C1733.42 306.284 1731.82 303.885 1730.22 301.56C1728.77 299.234 1727.75 297.562 1727.17 296.545C1725.13 293.638 1723.75 290.731 1723.02 287.823C1722.44 284.916 1721.79 281.791 1721.06 278.448C1721.06 278.303 1720.77 277.648 1720.19 276.486C1719.75 275.177 1719.54 274.378 1719.54 274.087C1717.65 269.727 1716.41 264.857 1715.83 259.479C1715.25 253.955 1714.96 248.723 1714.96 243.78Z" fill="#3B3232"/>
<path d="M1642.87 26.8051C1640 29.6807 1633.22 34.3023 1628.7 36.9725C1624.18 39.8482 1620.07 42.313 1616.37 44.367C1615.96 44.367 1614.53 44.4697 1612.06 44.6751C1609.6 45.0859 1598.61 57.5128 1598.2 57.9236C1595.53 59.156 1592.55 60.6965 1589.26 62.5452C1585.97 64.3938 1582.69 66.3451 1579.4 68.3991C1576.32 70.6586 1576.32 78.1558 1573.24 80.4152C1570.16 82.6746 1562.04 92.1232 1559.99 93.9718C1559.79 94.1772 1559.27 94.588 1558.45 95.2042C1557.83 95.8205 1557.12 96.4367 1556.29 97.0529C1555.47 97.8745 1554.75 98.5934 1554.14 99.2096C1553.52 100.031 1553.21 100.545 1553.21 100.75C1552.8 101.161 1551.36 101.88 1548.9 102.907C1546.43 104.139 1539.45 119.544 1539.04 119.544L1532.26 126.323C1532.06 126.528 1531.65 127.35 1531.03 128.788C1530.41 130.225 1529.8 131.766 1529.18 133.409C1528.56 135.052 1527.95 136.593 1527.33 138.031C1526.72 139.469 1526.3 140.393 1526.1 140.804C1525.89 141.214 1525.69 141.625 1525.48 142.036C1525.48 142.652 1525.38 143.166 1525.18 143.577C1524.97 144.193 1524.66 144.809 1524.25 145.425C1519.32 152.204 1525.38 166.582 1522.09 174.387C1518.81 182.192 1524.25 190.408 1524.25 199.035C1524.25 202.322 1520.45 205.506 1522.09 207.97C1523.94 210.435 1525.28 213.414 1526.1 216.905C1526.1 217.111 1526.2 217.727 1526.41 218.754C1526.61 219.986 1526.51 234.775 1526.72 236.008C1526.92 237.24 1527.13 238.37 1527.33 239.397C1527.54 240.424 1527.74 240.938 1527.95 240.938C1528.56 242.581 1529.49 244.121 1530.72 245.559C1531.95 247.202 1534.21 257.678 1535.65 259.116C1537.09 260.759 1538.53 262.197 1539.96 263.429C1541.4 264.867 1542.63 266.099 1543.66 267.126C1543.87 267.537 1544.48 268.564 1545.51 270.207C1546.54 271.851 1547.67 273.597 1548.9 275.445C1550.13 277.499 1551.26 279.348 1552.29 280.991C1553.32 282.84 1554.03 284.072 1554.45 284.688C1555.68 286.332 1557.63 288.283 1560.3 290.542C1563.17 292.802 1573.24 299.785 1576.94 308.398C1580.22 310.863 1583.41 321.353 1586.49 323.201C1589.57 325.05 1590.9 332.65 1592.96 333.677C1593.16 333.677 1594.19 333.882 1596.04 334.293C1597.89 334.909 1605.08 333.061 1605.28 333.061C1607.75 334.499 1609.9 335.936 1611.75 337.374C1613.6 339.017 1615.35 340.661 1616.99 342.304C1616.99 342.304 1621.61 336.245 1623.46 337.682C1625.51 339.12 1625.31 337.888 1627.77 338.915C1633.73 341.38 1637.22 341.072 1642.56 341.072C1647.9 341.277 1653.76 341.996 1660.12 343.228C1660.54 343.639 1661.46 344.153 1662.9 344.769C1664.54 345.59 1669.27 352.471 1669.68 352.471H1688.78C1693.5 352.882 1697.92 353.909 1702.03 355.552C1706.14 357.401 1710.45 358.325 1714.97 358.325H1717.12C1719.79 358.12 1723.39 357.812 1727.91 357.401C1732.43 356.99 1736.84 356.579 1741.16 356.169C1745.47 355.758 1749.17 355.347 1752.25 354.936C1755.53 354.731 1757.38 354.628 1757.79 354.628C1758.2 354.423 1759.23 354.012 1760.88 353.396C1762.72 352.779 1777.51 349.596 1779.36 348.774C1781.42 347.952 1783.26 347.131 1784.91 346.309C1786.55 345.693 1787.68 345.282 1788.3 345.077C1794.25 343.228 1793.74 340.661 1800.31 339.223C1806.89 337.785 1813.15 335.936 1819.11 333.677C1831.02 330.185 1849.71 311.997 1859.16 304.808C1868.81 297.824 1864.5 283.456 1873.33 275.445C1874.15 275.24 1875.08 274.624 1876.11 273.597C1877.13 272.57 1877.85 271.748 1878.26 271.132C1880.93 267.024 1883.4 263.018 1885.66 259.116C1887.92 255.418 1890.38 251.824 1893.05 248.332C1893.67 247.305 1894.39 245.97 1895.21 244.327C1896.24 242.683 1896.95 241.759 1897.37 241.554C1899.21 237.651 1899.21 226.559 1899.21 222.451C1899.42 218.549 1899.93 214.646 1900.75 210.743C1900.75 210.538 1901.06 209.819 1901.68 208.587C1902.5 207.56 1902.91 206.943 1902.91 206.738C1902.91 206.327 1903.01 205.814 1903.22 205.197C1903.22 204.787 1903.22 204.273 1903.22 203.657C1903.42 203.246 1903.53 202.835 1903.53 202.425C1903.53 201.808 1903.42 200.987 1903.22 199.96C1903.01 198.933 1902.91 198.111 1902.91 197.495C1902.5 197.084 1902.09 196.571 1901.68 195.954C1901.06 194.927 1900.75 194.208 1900.75 193.798V183.014C1900.75 182.192 1902.91 179.83 1901.68 177.16C1900.65 174.695 1899.83 172.949 1899.21 171.922C1899.01 171.306 1898.29 170.074 1897.06 168.225C1895.82 166.582 1893.87 151.176 1892.44 149.122C1891 147.068 1889.56 145.117 1888.12 143.268C1886.89 141.42 1885.97 140.085 1885.35 139.263C1885.35 138.647 1884.73 137.723 1883.5 136.49C1882.88 135.874 1882.27 135.36 1881.65 134.95C1881.24 134.333 1880.62 132.998 1879.8 130.944C1878.98 128.89 1878.06 126.631 1877.03 124.166C1876.21 121.701 1875.39 119.442 1874.57 117.388C1873.74 115.334 1873.23 114.101 1873.02 113.69C1872.82 113.28 1871.79 112.458 1869.94 111.226C1868.3 109.993 1866.35 108.555 1864.09 106.912C1862.04 105.269 1861.63 92.534 1859.16 90.8908C1856.9 89.2475 1855.05 87.9124 1853.61 86.8854C1848.48 83.8044 1850.53 75.8964 1844.99 73.0207C1839.65 70.3505 1829.07 45.1886 1823.73 42.5184C1821.67 41.4914 1819.52 40.7725 1817.26 40.3617C1815.2 39.9508 1812.94 39.6427 1810.48 39.4373C1808.22 39.4373 1805.96 39.2319 1803.7 38.8211C1801.65 38.4103 1799.59 37.6914 1797.54 36.6644C1797.33 36.2536 1796.41 35.432 1794.77 34.1996C1793.12 32.9672 1792.1 32.1455 1791.69 31.7347C1791.48 31.7347 1790.86 31.632 1789.84 31.4266C1789.02 31.2212 1788.09 31.0158 1787.06 30.8104C1786.24 30.605 1785.32 30.3996 1784.29 30.1942C1783.47 29.9888 1782.96 29.8861 1782.75 29.8861C1778.03 28.4483 1766.22 25.9835 1761.49 23.724C1756.77 21.67 1752.04 20.643 1747.32 20.643H1743.62C1743.42 20.643 1742.8 20.7457 1741.77 20.9511C1740.75 21.1565 1739.62 21.3619 1738.38 21.5673C1737.15 21.9781 1735.92 22.2862 1734.69 22.4916C1733.66 22.9024 1733.04 23.1078 1732.84 23.1078C1732.43 23.1078 1731.4 22.9024 1729.76 22.4916C1728.11 22.2862 1726.37 21.9781 1724.52 21.5673C1722.67 21.3619 1720.92 21.1565 1719.28 20.9511C1717.64 20.7457 1716.51 20.643 1715.89 20.643H1703.26C1702.64 21.0538 1701.1 21.7727 1698.64 22.7997C1696.38 24.0321 1695.04 24.8537 1694.63 25.2646C1694.02 25.2646 1692.68 25.2646 1690.63 25.2646C1688.57 25.47 1686.31 25.6754 1683.85 25.8808C1681.59 26.0862 1679.43 26.2916 1677.38 26.497C1675.32 26.7024 1673.99 26.9078 1673.37 27.1132C1672.35 27.3186 1670.6 27.6267 1668.14 28.0375C1665.67 28.4483 1663 28.8591 1660.12 29.2699C1657.45 29.6807 1650.57 25.7781 1648.11 26.1889C1645.64 26.5997 1643.9 26.8051 1642.87 26.8051ZM1498.06 156.209C1499.09 156.003 1500.12 154.771 1501.14 152.512C1501.96 150.458 1502.58 148.917 1502.99 147.89C1503.2 147.479 1503.51 146.247 1503.92 144.193C1504.53 142.344 1505.15 140.187 1505.76 137.723C1506.59 135.258 1507.2 132.69 1507.61 130.02C1508.23 127.555 1508.64 125.707 1508.85 124.474C1509.05 124.269 1509.26 123.653 1509.46 122.626C1509.67 121.804 1509.87 120.777 1510.08 119.544C1510.49 118.312 1510.8 117.08 1511 115.847C1511.21 114.82 1511.41 114.101 1511.62 113.69C1511.62 113.485 1512.13 112.766 1513.16 111.534C1514.19 110.301 1515.32 108.966 1516.55 107.528C1517.78 106.296 1518.91 104.961 1519.94 103.523C1521.17 102.291 1521.89 101.572 1522.09 101.366C1525.59 96.8474 1529.18 92.0205 1532.88 86.8854C1536.58 81.9557 1540.37 77.0261 1544.28 72.0964C1548.39 67.1667 1552.49 62.4425 1556.6 57.9236C1560.71 53.4047 1564.92 49.2967 1569.23 45.5994C1569.44 45.1886 1570.06 44.6751 1571.08 44.0589C1572.11 43.4427 1573.24 42.8265 1574.47 42.2103C1575.7 41.5941 1576.83 40.9779 1577.86 40.3617C1578.89 39.7454 1579.5 39.3346 1579.71 39.1292C1584.02 36.2536 1588.44 33.1726 1592.96 29.8861C1597.48 26.5997 1602.3 23.9294 1607.44 21.8754C1607.85 21.8754 1609.29 21.5673 1611.75 20.9511C1614.22 20.3349 1615.66 20.0268 1616.07 20.0268C1621.41 18.3835 1626.44 16.5349 1631.16 14.4809C1635.89 12.4269 1640.92 10.6809 1646.26 9.24313C1652.22 7.5999 1658.17 6.16208 1664.13 4.92967C1670.09 3.69725 1676.04 2.25943 1682 0.616207C1683.44 0.616208 1685.7 0.513506 1688.78 0.308103C1691.86 0.308104 1695.04 0.308104 1698.33 0.308104C1701.82 0.308104 1705.11 0.205403 1708.19 0C1711.27 1.34677e-07 1713.43 2.28951e-07 1714.66 2.82822e-07C1716.71 3.72606e-07 1719.49 4.93813e-07 1722.98 6.46447e-07C1726.47 0.205404 1729.86 0.308105 1733.15 0.308105C1736.64 0.308106 1739.62 0.308106 1742.08 0.308106C1744.75 0.513509 1746.29 0.61621 1746.7 0.61621C1757.38 1.23242 1767.86 3.59455 1778.13 7.70261C1788.4 11.8107 1798.67 15.9187 1808.94 20.0268C1809.14 20.0268 1809.86 20.2322 1811.1 20.643C1812.33 21.0538 1813.56 21.4646 1814.79 21.8754C1816.23 22.2862 1817.57 22.697 1818.8 23.1078C1820.03 23.5186 1820.85 23.8267 1821.26 24.0321C1821.67 24.2375 1822.5 24.9565 1823.73 26.1889C1824.96 27.6267 1826.3 29.0645 1827.73 30.5023C1829.17 32.1456 1830.51 33.5834 1831.74 34.8158C1832.97 36.2536 1833.69 37.1779 1833.9 37.5887C1840.26 42.7238 1846.84 47.2427 1853.61 51.1453C1860.6 55.2534 1867.07 60.5938 1873.02 67.1667C1875.08 69.2208 1876.52 71.1721 1877.34 73.0207C1878.37 74.8694 1879.19 76.718 1879.8 78.5666C1880.42 80.4152 1881.04 82.2639 1881.65 84.1125C1882.47 86.1665 1883.6 88.4259 1885.04 90.8908C1885.25 90.8908 1885.76 91.1989 1886.58 91.8151C1887.61 92.6367 1888.64 93.4583 1889.66 94.2799C1890.69 95.3069 1891.61 96.2313 1892.44 97.0529C1893.26 98.0799 1893.87 98.7988 1894.28 99.2096C1894.69 99.8258 1895.52 101.058 1896.75 102.907C1897.98 104.755 1899.32 106.707 1900.75 108.761C1902.19 110.815 1903.53 112.766 1904.76 114.615C1905.99 116.463 1906.92 117.799 1907.53 118.62C1907.74 119.647 1907.94 120.571 1908.15 121.393C1908.35 122.009 1908.46 122.626 1908.46 123.242C1908.66 123.858 1908.87 124.269 1909.07 124.474C1910.31 127.35 1911.85 130.225 1913.69 133.101C1915.75 136.182 1917.7 139.16 1919.55 142.036C1921.6 145.117 1923.25 148.198 1924.48 151.279C1925.92 154.36 1926.64 157.441 1926.64 160.522C1926.64 163.398 1926.22 166.171 1925.4 168.841C1924.58 171.511 1924.17 174.284 1924.17 177.16V180.241C1924.17 180.857 1924.48 182.192 1925.09 184.246C1925.92 186.506 1926.33 187.841 1926.33 188.252C1926.33 188.457 1926.33 189.176 1926.33 190.408C1926.33 191.641 1926.33 192.976 1926.33 194.414C1926.53 196.057 1926.64 197.598 1926.64 199.035C1926.64 200.473 1926.64 201.706 1926.64 202.733C1926.64 205.608 1926.43 208.895 1926.02 212.592C1925.81 216.289 1925.4 219.986 1924.79 223.684C1924.38 227.586 1923.76 231.284 1922.94 234.775C1922.12 238.473 1921.09 241.656 1919.86 244.327C1919.65 244.943 1919.14 246.073 1918.32 247.716C1917.49 249.359 1916.57 251.105 1915.54 252.954C1914.52 255.008 1913.59 256.856 1912.77 258.5C1911.95 260.143 1911.44 261.272 1911.23 261.889C1910.82 262.299 1910.31 263.635 1909.69 265.894C1909.28 268.153 1909.07 269.489 1909.07 269.899C1907.84 274.213 1905.58 278.115 1902.29 281.607C1899.21 285.099 1896.54 288.488 1894.28 291.775C1892.02 294.65 1890.18 297.937 1888.74 301.634C1887.51 305.537 1885.76 309.337 1883.5 313.034L1881.34 315.191C1880.93 315.396 1880.11 315.602 1878.88 315.807C1877.85 316.218 1876.72 316.629 1875.49 317.039C1874.46 317.45 1873.44 317.758 1872.41 317.964C1871.38 318.374 1870.87 318.683 1870.87 318.888C1867.99 320.737 1866.25 322.688 1865.63 324.742C1865.01 327.001 1863.88 329.466 1862.24 332.136C1860.6 334.601 1858.24 337.169 1855.15 339.839C1852.07 342.715 1848.68 345.385 1844.99 347.85C1841.29 350.52 1837.49 352.882 1833.59 354.936C1829.89 357.196 1826.5 358.839 1823.42 359.866C1823.01 360.277 1821.57 360.585 1819.11 360.79C1816.85 361.201 1815.41 361.406 1814.79 361.406C1813.97 362.023 1812.74 362.536 1811.1 362.947C1809.66 363.358 1808.94 363.768 1808.94 364.179C1808.32 364.59 1807.4 365.309 1806.17 366.336C1804.93 367.568 1803.6 368.904 1802.16 370.341C1800.72 371.779 1799.39 370.649 1798.16 371.882C1796.92 373.114 1796.2 374.039 1796 374.655H1793.53L1787.37 375.579C1786.34 374.963 1785.52 374.655 1784.91 374.655H1783.98C1779.05 374.655 1778.75 375.785 1774.43 377.428C1770.32 379.071 1766.01 380.303 1761.49 381.125C1753.07 382.563 1744.65 383.59 1736.23 384.206C1728.01 385.028 1719.69 385.438 1711.27 385.438H1693.4C1692.78 385.438 1691.24 385.13 1688.78 384.514C1686.52 384.103 1685.18 383.898 1684.77 383.898C1684.36 383.487 1683.64 383.282 1682.62 383.282C1681.79 383.282 1680.77 383.282 1679.54 383.282C1676.66 383.282 1673.78 383.384 1670.91 383.59C1668.24 383.795 1666.49 383.898 1665.67 383.898C1665.26 383.693 1664.44 383.282 1663.21 382.666C1662.18 382.255 1661.05 381.741 1659.82 381.125C1658.58 380.714 1657.45 380.303 1656.43 379.893C1655.61 379.482 1655.09 379.276 1654.89 379.276C1654.27 379.276 1653.04 379.174 1651.19 378.968C1649.34 378.763 1647.29 378.455 1645.03 378.044C1642.97 377.839 1641.02 377.633 1639.17 377.428C1637.33 377.222 1636.2 377.12 1635.78 377.12C1635.17 377.12 1634.35 376.812 1633.32 376.195C1632.29 375.785 1631.47 375.374 1630.85 374.963C1630.44 374.758 1629.62 374.244 1628.39 373.422C1627.16 372.601 1625.82 371.677 1624.38 370.649C1623.15 369.622 1621.92 368.698 1620.69 367.877C1619.46 367.055 1618.63 366.541 1618.22 366.336C1617.81 366.131 1616.99 365.823 1615.76 365.412C1614.53 365.001 1613.19 364.487 1611.75 363.871C1610.31 363.46 1608.98 362.947 1607.75 362.331C1606.51 361.92 1605.69 361.612 1605.28 361.406C1603.23 360.585 1600.87 359.558 1598.2 358.325C1595.53 357.093 1592.75 355.655 1589.88 354.012C1587.21 352.574 1584.54 351.034 1581.87 349.39C1579.4 347.747 1577.24 346.309 1575.4 345.077C1575.19 344.666 1574.57 343.947 1573.55 342.92C1572.73 341.893 1572.11 340.969 1571.7 340.147C1567.59 335.423 1563.38 330.801 1559.07 326.282C1554.75 321.969 1550.44 317.553 1546.13 313.034C1541.81 308.721 1537.6 304.304 1533.49 299.785C1529.39 295.267 1525.59 290.44 1522.09 285.305C1521.68 280.58 1520.66 276.883 1519.01 274.213C1517.37 271.748 1515.62 268.359 1513.78 264.045C1513.36 263.429 1512.85 262.299 1512.23 260.656C1511.82 259.218 1511.62 257.986 1511.62 256.959C1509.15 248.743 1506.79 240.629 1504.53 232.619C1502.48 224.608 1500.32 216.392 1498.06 207.97C1497.86 205.711 1497.24 203.554 1496.21 201.5C1494.98 199.652 1494.36 197.598 1494.36 195.338L1494.36 193.181C1494.36 192.771 1494.67 191.641 1495.29 189.792C1495.91 188.149 1496.21 187.122 1496.21 186.711C1496.42 185.684 1496.62 183.733 1496.83 180.857C1497.03 177.982 1497.24 174.901 1497.45 171.614C1497.65 168.328 1497.86 165.247 1498.06 162.371C1498.06 159.495 1498.06 157.441 1498.06 156.209Z" fill="#3B3232"/>
<path d="M0 865.961V516.22H124.664C151.759 516.22 174.244 520.888 192.119 530.223C210.107 539.559 223.541 552.481 232.421 568.989C241.301 585.383 245.741 604.338 245.741 625.856C245.741 647.259 241.244 666.101 232.25 682.381C223.37 698.548 209.936 711.128 191.948 720.122C174.074 729.116 151.589 733.613 124.493 733.613H30.0559V688.188H119.711C136.788 688.188 150.678 685.74 161.38 680.844C172.195 675.949 180.108 668.833 185.117 659.498C190.126 650.162 192.631 638.948 192.631 625.856C192.631 612.649 190.069 601.208 184.946 591.531C179.937 581.853 172.024 574.453 161.209 569.33C150.507 564.093 136.447 561.475 119.028 561.475H52.7686V865.961H0ZM172.651 708.168L259.061 865.961H198.949L114.247 708.168H172.651Z" fill="black"/>
<path d="M281.098 865.961V516.22H500.369V561.645H333.866V668.207H488.927V713.462H333.866V820.536H502.418V865.961H281.098Z" fill="black"/>
<path d="M542.001 865.961V516.22H761.273V561.645H594.77V668.207H749.831V713.462H594.77V820.536H763.322V865.961H542.001Z" fill="black"/>
<path d="M833.474 516.22L930.814 801.068H934.741L1032.08 516.22H1089.12L963.26 865.961H902.295L776.436 516.22H833.474Z" fill="black"/>
<path d="M1110.77 865.961V516.22H1330.04V561.645H1163.54V668.207H1318.6V713.462H1163.54V820.536H1332.09V865.961H1110.77Z" fill="black"/>
<path d="M1562.43 608.095C1560.61 591.929 1553.09 579.406 1539.89 570.526C1526.68 561.532 1510.06 557.035 1490.02 557.035C1475.68 557.035 1463.27 559.312 1452.79 563.865C1442.32 568.306 1434.18 574.453 1428.37 582.309C1422.68 590.051 1419.83 598.874 1419.83 608.779C1419.83 617.089 1421.77 624.262 1425.64 630.296C1429.62 636.33 1434.8 641.396 1441.18 645.495C1447.67 649.479 1454.61 652.838 1462.01 655.57C1469.41 658.189 1476.53 660.352 1483.36 662.059L1517.51 670.94C1528.67 673.672 1540.11 677.372 1551.84 682.04C1563.57 686.708 1574.44 692.855 1584.46 700.483C1594.48 708.111 1602.56 717.56 1608.71 728.831C1614.97 740.102 1618.1 753.593 1618.1 769.304C1618.1 789.114 1612.98 806.703 1602.73 822.073C1592.6 837.442 1577.85 849.567 1558.5 858.447C1539.26 867.327 1515.98 871.768 1488.65 871.768C1462.47 871.768 1439.81 867.612 1420.69 859.301C1401.56 850.99 1386.59 839.207 1375.77 823.951C1364.96 808.582 1358.98 790.366 1357.84 769.304H1410.78C1411.81 781.941 1415.91 792.472 1423.08 800.897C1430.36 809.208 1439.64 815.413 1450.91 819.511C1462.3 823.496 1474.76 825.488 1488.31 825.488C1503.23 825.488 1516.49 823.154 1528.1 818.487C1539.83 813.705 1549.05 807.102 1555.77 798.677C1562.48 790.138 1565.84 780.177 1565.84 768.792C1565.84 758.432 1562.88 749.95 1556.96 743.347C1551.16 736.744 1543.24 731.279 1533.23 726.953C1523.32 722.627 1512.11 718.813 1499.58 715.511L1458.26 704.24C1430.25 696.612 1408.05 685.398 1391.66 670.598C1375.38 655.798 1367.24 636.216 1367.24 611.852C1367.24 591.701 1372.7 574.112 1383.63 559.084C1394.56 544.056 1409.36 532.387 1428.03 524.076C1446.7 515.651 1467.76 511.438 1491.22 511.438C1514.9 511.438 1535.79 515.594 1553.89 523.905C1572.1 532.216 1586.45 543.657 1596.92 558.23C1607.4 572.689 1612.86 589.311 1613.32 608.095H1562.43Z" fill="black"/>
<path d="M1746.94 604.224C1746.94 610.139 1748.29 614.452 1751 617.162C1753.71 619.627 1757.04 621.229 1760.98 621.968C1765.17 622.707 1769.61 623.077 1774.29 623.077C1779.22 622.831 1783.66 622.954 1787.6 623.447C1788.09 623.447 1789.08 623.94 1790.56 624.925C1792.04 625.665 1793.02 626.034 1793.51 626.034C1798.44 627.513 1802.14 628.376 1804.6 628.622C1807.07 628.868 1810.77 628.992 1815.69 628.992C1820.38 628.992 1825.18 628.868 1830.11 628.622C1835.04 628.129 1839.48 627.143 1843.42 625.665C1847.61 624.186 1850.94 621.845 1853.4 618.641C1856.11 615.437 1857.47 611.001 1857.47 605.333C1857.47 598.186 1856.23 590.793 1853.77 583.153C1851.55 575.267 1847.61 569.106 1841.94 564.67C1840.71 564.67 1838.74 564.547 1836.03 564.3C1833.56 564.054 1830.85 563.808 1827.89 563.561C1824.94 563.315 1821.98 563.068 1819.02 562.822C1816.31 562.329 1814.34 562.082 1813.11 562.082C1812.61 561.836 1812 561.466 1811.26 560.973C1809.78 559.988 1808.92 559.495 1808.67 559.495H1802.39C1797.21 559.495 1791.3 560.85 1784.64 563.561C1778.24 566.026 1772.2 569.353 1766.53 573.542C1761.11 577.732 1756.43 582.537 1752.48 587.959C1748.79 593.134 1746.94 598.556 1746.94 604.224ZM1662.28 695.531C1662.28 680.991 1663.89 666.328 1667.09 651.541C1670.54 636.508 1676.58 622.831 1685.2 610.508C1686.93 608.044 1689.39 604.84 1692.6 600.897C1695.8 596.708 1698.88 592.641 1701.84 588.698C1705.04 584.509 1707.75 580.812 1709.97 577.608C1712.19 574.405 1713.42 572.556 1713.67 572.063C1716.87 568.12 1721.06 564.424 1726.24 560.973C1731.41 557.523 1736.83 554.196 1742.5 550.993C1748.17 547.789 1753.84 544.708 1759.51 541.751C1765.17 538.547 1770.1 535.467 1774.29 532.509C1779.22 531.524 1784.15 530.784 1789.08 530.291C1794.01 529.552 1798.94 529.182 1803.87 529.182C1812 529.182 1819.39 530.045 1826.05 531.77C1831.22 535.22 1836.77 537.438 1842.68 538.424C1848.59 539.163 1854.39 540.395 1860.05 542.121C1864.74 543.353 1869.3 545.324 1873.73 548.035C1878.41 550.5 1882.6 553.58 1886.3 557.277C1890.24 560.727 1893.82 564.547 1897.02 568.736C1900.47 572.679 1903.43 576.623 1905.89 580.566C1906.14 580.812 1906.51 581.428 1907 582.414C1907.49 583.4 1907.99 584.509 1908.48 585.741C1909.22 586.727 1909.84 587.712 1910.33 588.698C1910.82 589.684 1911.07 590.3 1911.07 590.547C1912.3 592.272 1913.9 594.243 1915.87 596.461C1918.09 598.433 1920.19 600.651 1922.16 603.115C1924.13 605.333 1925.73 607.798 1926.96 610.508C1928.44 612.973 1929.18 615.561 1929.18 618.271C1929.18 620.243 1929.06 622.707 1928.81 625.665C1928.57 628.376 1928.07 631.21 1927.33 634.167C1926.59 636.878 1925.49 639.465 1924.01 641.93C1922.77 644.394 1921.05 646.119 1918.83 647.105C1918.34 647.105 1917.35 647.352 1915.87 647.845C1914.64 648.337 1913.16 648.954 1911.44 649.693C1909.71 650.186 1907.99 650.679 1906.26 651.171C1904.78 651.664 1903.8 652.034 1903.31 652.28C1903.06 652.28 1902.2 652.65 1900.72 653.389C1899.49 653.882 1898.75 654.252 1898.5 654.498C1895.3 654.498 1890.37 654.622 1883.71 654.868C1877.31 654.868 1869.91 654.991 1861.53 655.238C1853.4 655.238 1844.78 655.361 1835.66 655.607C1826.54 655.854 1817.79 656.1 1809.41 656.347C1801.28 656.593 1793.88 656.84 1787.23 657.086C1780.58 657.086 1775.65 657.086 1772.44 657.086C1771.46 657.086 1769.61 657.209 1766.9 657.456C1764.19 657.456 1761.35 657.579 1758.4 657.825C1755.44 658.072 1752.61 658.442 1749.89 658.934C1747.43 659.181 1745.71 659.427 1744.72 659.674C1738.31 664.849 1734 671.133 1731.78 678.527C1729.81 685.673 1728.82 693.313 1728.82 701.446C1728.82 710.318 1729.69 718.081 1731.41 724.735C1733.14 731.142 1735.72 738.535 1739.17 746.914C1739.67 747.407 1740.16 748.393 1740.65 749.872C1741.39 751.104 1741.76 751.967 1741.76 752.459C1742.01 752.706 1742.62 753.322 1743.61 754.308C1744.84 755.047 1745.95 756.033 1746.94 757.265C1748.17 758.251 1749.28 759.36 1750.26 760.592C1751.25 761.578 1751.74 762.317 1751.74 762.81C1751.99 763.056 1752.73 763.919 1753.96 765.398C1755.44 766.63 1756.92 768.109 1758.4 769.834C1759.88 771.559 1761.23 773.284 1762.46 775.009C1763.7 776.488 1764.43 777.473 1764.68 777.966C1765.17 777.966 1765.67 778.336 1766.16 779.075C1766.9 779.815 1767.52 780.184 1768.01 780.184C1770.23 782.156 1772.94 784.497 1776.14 787.208C1779.59 789.919 1782.92 792.506 1786.12 794.971C1789.82 797.928 1793.76 800.885 1797.95 803.843C1808.55 806.8 1818.78 808.279 1828.63 808.279C1838.49 808.279 1848.96 806.8 1860.05 803.843C1866.46 799.9 1872.99 796.942 1879.65 794.971C1886.55 792.753 1893.45 790.535 1900.35 788.317C1900.84 787.824 1901.83 787.331 1903.31 786.838C1904.78 786.099 1905.65 785.483 1905.89 784.99H1908.48C1910.21 785.729 1912.3 786.715 1914.76 787.947C1917.48 789.179 1918.83 790.165 1918.83 790.904C1919.32 791.397 1919.82 793.246 1920.31 796.449C1921.05 799.653 1921.42 802.118 1921.42 803.843C1921.42 808.032 1920.19 812.961 1917.72 818.629C1915.5 824.297 1913.29 828.487 1911.07 831.198C1911.07 831.691 1909.59 832.923 1906.63 834.895C1903.92 836.866 1901.83 838.345 1900.35 839.33C1892.46 844.506 1884.7 850.051 1877.06 855.965C1869.42 861.634 1861.16 866.193 1852.29 869.643C1851.8 869.889 1850.57 870.136 1848.59 870.382C1846.87 870.875 1845.02 871.245 1843.05 871.491C1841.08 871.738 1839.23 871.984 1837.5 872.231C1835.78 872.477 1834.79 872.6 1834.55 872.6C1829.87 873.832 1825.8 874.941 1822.35 875.927C1819.14 877.159 1815.33 877.776 1810.89 877.776C1806.7 877.776 1802.88 877.159 1799.43 875.927C1795.98 874.941 1792.04 873.832 1787.6 872.6C1785.38 872.107 1782.18 871.245 1777.99 870.013C1774.05 869.027 1769.86 867.795 1765.42 866.316C1760.98 864.837 1756.79 863.235 1752.85 861.51C1749.16 859.785 1746.44 858.183 1744.72 856.705C1743.98 856.458 1742.62 855.349 1740.65 853.378C1738.68 851.406 1736.46 849.311 1734 847.093C1731.78 844.875 1729.69 842.781 1727.71 840.809C1725.74 838.838 1724.39 837.605 1723.65 837.113C1723.4 836.62 1722.17 835.634 1719.95 834.155C1717.73 832.677 1716.5 831.691 1716.26 831.198C1715.02 830.705 1713.54 829.596 1711.82 827.871C1710.09 825.899 1708.99 824.667 1708.49 824.174C1707.75 823.188 1706.15 820.97 1703.69 817.52C1701.47 813.824 1699 809.881 1696.29 805.691C1693.58 801.502 1690.87 797.435 1688.16 793.492C1685.7 789.549 1683.97 786.715 1682.99 784.99C1679.54 780.061 1677.19 775.132 1675.96 770.203C1674.98 765.274 1673.87 759.976 1672.63 754.308C1672.63 754.061 1672.14 752.952 1671.16 750.981C1670.42 748.763 1670.05 747.407 1670.05 746.914C1666.84 739.521 1664.75 731.265 1663.76 722.147C1662.78 712.782 1662.28 703.91 1662.28 695.531Z" fill="black"/>
<path d="M1950.83 816.411V807.539C1950.83 807.046 1951.57 805.445 1953.05 802.734C1954.53 800.023 1955.27 798.421 1955.27 797.928C1956.5 794.971 1957.61 791.767 1958.59 788.317C1959.58 784.62 1960.69 781.17 1961.92 777.966C1963.4 774.762 1965.25 772.052 1967.46 769.834C1969.68 767.616 1972.89 766.507 1977.08 766.507H1980.77C1981.51 766.507 1982.5 767.616 1983.73 769.834C1984.96 772.052 1985.95 773.777 1986.69 775.009C1989.89 780.924 1993.34 787.701 1997.04 795.34C2000.98 802.734 2005.42 809.634 2010.35 816.042C2015.27 822.449 2021.07 827.871 2027.72 832.307C2034.37 836.743 2042.01 838.961 2050.64 838.961C2053.84 838.961 2057.91 837.852 2062.84 835.634C2067.77 833.169 2072.57 830.335 2077.25 827.132C2082.18 823.928 2086.5 820.601 2090.19 817.151C2094.14 813.454 2096.48 810.25 2097.22 807.539C2098.2 804.336 2099.06 801.378 2099.8 798.667C2100.54 795.957 2100.91 793.122 2100.91 790.165C2100.91 785.236 2099.68 780.184 2097.22 775.009C2097.22 772.052 2094.63 767.985 2089.45 762.81C2084.52 757.635 2078.73 752.583 2072.08 747.654C2065.43 742.479 2059.02 737.796 2052.86 733.607C2046.7 729.417 2042.51 726.706 2040.29 725.474C2037.58 724.488 2034.74 723.995 2031.79 723.995C2029.07 723.749 2026.73 722.763 2024.76 721.038C2024.76 720.545 2024.15 719.806 2022.91 718.82C2021.93 717.834 2020.82 716.848 2019.59 715.863C2018.6 714.63 2017.49 713.521 2016.26 712.536C2015.27 711.55 2014.78 711.057 2014.78 711.057C2014.29 710.071 2012.69 708.716 2009.98 706.991C2007.26 705.019 2005.42 703.541 2004.43 702.555L1999.26 699.967L1978.92 679.636C1977.2 675.446 1975.72 671.257 1974.49 667.067C1973.5 662.878 1972.39 658.565 1971.16 654.129C1970.91 652.897 1970.42 651.171 1969.68 648.954C1969.19 646.736 1968.7 644.641 1968.2 642.669C1967.71 640.451 1967.22 638.603 1966.72 637.124C1966.23 635.399 1965.99 634.413 1965.99 634.167C1965.49 627.513 1965.99 620.613 1967.46 613.466C1968.94 606.072 1971.16 599.049 1974.12 592.395C1977.32 585.741 1981.02 579.58 1985.21 573.912C1989.4 567.997 1994.08 563.191 1999.26 559.495C1999.75 559.002 2001.1 558.509 2003.32 558.016C2005.54 557.277 2007.02 556.661 2007.76 556.168C2011.45 554.689 2015.4 552.471 2019.59 549.514C2024.02 546.31 2028.58 543.23 2033.26 540.272C2037.95 537.069 2042.63 534.358 2047.31 532.14C2051.99 529.922 2056.43 528.813 2060.62 528.813C2064.81 528.813 2069.61 529.798 2075.04 531.77C2080.46 533.495 2085.02 534.974 2088.71 536.206C2095.37 538.424 2101.78 540.519 2107.94 542.49C2114.1 544.462 2119.52 547.049 2124.2 550.253C2129.13 553.457 2132.95 557.523 2135.66 562.452C2138.62 567.381 2140.1 573.788 2140.1 581.675C2140.1 584.386 2139.73 588.329 2138.99 593.504C2138.5 598.433 2137.51 603.362 2136.03 608.29C2134.55 612.973 2132.46 617.162 2129.75 620.859C2127.04 624.309 2123.59 626.034 2119.4 626.034H2117.18C2116.69 625.541 2115.82 623.816 2114.59 620.859C2113.36 617.902 2112.5 616.177 2112 615.684C2108.55 609.523 2104.73 603.608 2100.54 597.94C2096.6 592.272 2092.04 587.343 2086.87 583.153C2081.94 578.717 2076.51 575.267 2070.6 572.803C2064.69 570.338 2058.03 569.106 2050.64 569.106C2048.42 569.106 2045.83 569.229 2042.88 569.476C2039.92 569.722 2037.33 570.585 2035.11 572.063C2026.73 578.471 2020.33 585.248 2015.89 592.395C2011.7 599.542 2009.61 608.537 2009.61 619.38C2009.61 625.295 2010.96 630.717 2013.67 635.646C2016.38 640.328 2019.83 644.518 2024.02 648.214C2028.21 651.911 2032.89 655.115 2038.07 657.825C2043.25 660.536 2048.3 662.631 2053.23 664.11C2053.47 664.356 2054.34 664.603 2055.81 664.849C2057.29 665.095 2058.89 665.342 2060.62 665.588C2062.59 665.835 2064.32 666.081 2065.79 666.328C2067.27 666.574 2068.14 666.697 2068.38 666.697C2068.88 666.697 2069.74 667.19 2070.97 668.176C2072.2 668.915 2073.06 669.285 2073.56 669.285C2078.98 673.228 2084.52 677.171 2090.19 681.114C2096.11 684.811 2101.78 688.754 2107.2 692.944C2112.87 696.887 2118.29 701.199 2123.46 705.882C2128.64 710.564 2133.32 715.616 2137.51 721.038C2137.76 721.284 2138.25 722.147 2138.99 723.626C2139.73 725.104 2140.47 726.829 2141.21 728.801C2142.19 730.526 2143.05 732.374 2143.79 734.346C2144.53 736.071 2145.15 737.426 2145.64 738.412C2145.64 738.905 2145.64 739.891 2145.64 741.37C2145.89 742.848 2146.14 744.45 2146.38 746.175C2146.63 747.9 2146.87 749.625 2147.12 751.35C2147.61 752.829 2147.98 753.692 2148.23 753.938C2149.22 756.895 2150.45 759.606 2151.93 762.071C2153.41 764.289 2154.76 766.507 2155.99 768.725C2157.47 770.943 2158.7 773.161 2159.69 775.379C2160.68 777.597 2161.17 780.184 2161.17 783.142C2161.17 791.028 2159.44 798.298 2155.99 804.952C2152.54 811.606 2149.09 818.629 2145.64 826.023C2142.44 831.198 2138.25 836.25 2133.07 841.179C2127.9 846.108 2123.59 850.174 2120.14 853.378C2110.28 862.003 2098.94 868.041 2086.13 871.491C2073.31 875.188 2060.99 877.036 2049.16 877.036C2040.29 877.036 2031.29 876.543 2022.17 875.558C2013.06 874.572 2004.55 872.354 1996.67 868.904C1996.42 868.657 1995.56 868.164 1994.08 867.425C1992.6 866.439 1990.88 865.453 1988.9 864.468C1987.18 863.235 1985.45 862.126 1983.73 861.141C1982.25 860.155 1981.26 859.539 1980.77 859.292C1975.84 856.335 1971.41 853.747 1967.46 851.529C1963.77 849.065 1960.69 846.354 1958.22 843.397C1955.76 840.439 1953.91 836.866 1952.68 832.677C1951.45 828.487 1950.83 823.065 1950.83 816.411Z" fill="black"/>
<path d="M2214.24 810.127V769.094C2214.24 768.848 2214.36 767.985 2214.61 766.507C2214.85 765.028 2215.1 763.426 2215.35 761.701C2215.59 759.729 2215.84 757.758 2216.09 755.786C2216.33 753.568 2216.45 751.843 2216.45 750.611C2216.95 750.118 2217.56 748.147 2218.3 744.696C2219.04 741.246 2219.41 738.905 2219.41 737.673V689.986C2219.41 689.247 2219.66 687.522 2220.15 684.811C2220.89 681.854 2221.51 680.128 2222 679.636V618.271C2222 616.793 2221.51 615.437 2220.52 614.205C2219.54 612.973 2218.3 611.987 2216.82 611.248C2215.35 610.262 2213.87 609.523 2212.39 609.03C2211.16 608.29 2210.17 607.674 2209.43 607.181C2206.23 605.949 2203.15 605.21 2200.19 604.963C2197.48 604.471 2195.01 603.854 2192.8 603.115C2190.58 602.129 2188.85 600.774 2187.62 599.049C2186.39 597.077 2185.77 593.874 2185.77 589.438V585.002C2185.77 584.016 2185.9 582.907 2186.14 581.675C2186.39 581.428 2187.13 580.689 2188.36 579.457C2189.59 578.224 2190.95 576.992 2192.43 575.76C2194.15 574.281 2195.63 572.926 2196.86 571.694C2198.09 570.462 2198.83 569.599 2199.08 569.106C2199.82 568.613 2200.68 567.751 2201.67 566.518C2202.65 565.04 2203.64 563.684 2204.63 562.452C2205.61 560.973 2206.47 559.618 2207.21 558.386C2208.2 557.154 2208.94 556.414 2209.43 556.168C2215.35 549.76 2220.15 544.092 2223.85 539.163C2227.79 533.988 2232.35 529.675 2237.53 526.225C2240.73 523.514 2244.3 520.434 2248.25 516.983C2252.44 513.287 2256.5 511.438 2260.44 511.438C2266.85 511.438 2271.78 512.917 2275.23 515.874C2278.68 518.585 2281.27 522.159 2282.99 526.595C2284.97 530.784 2286.44 535.467 2287.43 540.642C2288.42 545.817 2289.65 550.746 2291.13 555.428H2294.45C2295.93 555.428 2297.29 555.552 2298.52 555.798C2300 556.045 2301.35 556.168 2302.59 556.168C2303.57 556.168 2304.56 556.045 2305.54 555.798C2306.78 555.552 2307.89 555.305 2308.87 555.059C2310.84 554.32 2312.69 553.95 2314.42 553.95C2316.14 553.703 2317.99 553.58 2319.96 553.58C2322.67 553.58 2325.51 553.703 2328.46 553.95C2331.42 554.196 2334.38 554.32 2337.34 554.32C2340.54 554.32 2344.11 555.059 2348.06 556.537C2352.24 557.77 2356.19 559.495 2359.88 561.713C2363.58 563.931 2366.66 566.518 2369.13 569.476C2371.59 572.433 2372.82 575.514 2372.82 578.717C2372.82 580.689 2371.84 582.907 2369.87 585.371C2368.14 587.836 2365.92 590.177 2363.21 592.395C2360.5 594.613 2357.67 596.461 2354.71 597.94C2352 599.419 2349.53 600.158 2347.32 600.158H2342.14C2341.89 600.158 2341.16 600.158 2339.92 600.158C2338.69 599.911 2337.34 599.788 2335.86 599.788C2334.38 599.788 2333.02 599.788 2331.79 599.788C2330.56 599.788 2329.82 599.788 2329.57 599.788H2294.45C2287.8 604.224 2283.12 609.523 2280.41 615.684C2278.19 622.091 2276.96 628.745 2276.71 635.646C2276.71 642.546 2276.46 649.57 2275.97 656.716C2274.74 661.645 2273.51 666.821 2272.27 672.242C2271.29 677.418 2270.8 682.839 2270.8 688.508C2270.8 692.451 2271.17 696.517 2271.9 700.706C2272.89 704.65 2273.38 708.716 2273.38 712.905C2273.38 715.616 2272.77 718.45 2271.53 721.408C2270.55 724.365 2270.06 727.445 2270.06 730.649C2270.06 732.621 2270.18 734.099 2270.43 735.085C2270.43 736.071 2270.55 736.934 2270.8 737.673C2270.8 738.412 2271.04 739.768 2271.53 741.739C2272.03 743.464 2272.64 745.313 2273.38 747.284C2274.12 749.256 2274.74 751.227 2275.23 753.199C2275.72 754.924 2275.97 756.033 2275.97 756.526C2275.97 757.019 2276.22 758.744 2276.71 761.701C2277.2 764.412 2277.7 767.369 2278.19 770.573C2278.93 773.777 2279.42 776.734 2279.67 779.445C2280.16 782.156 2280.41 783.881 2280.41 784.62C2280.9 786.345 2281.27 788.317 2281.52 790.535C2282.01 792.753 2282.62 794.971 2283.36 797.189C2284.1 799.407 2285.09 801.502 2286.32 803.473C2287.55 805.198 2289.16 806.554 2291.13 807.539C2292.11 807.786 2293.47 808.279 2295.19 809.018C2297.16 809.757 2299.01 810.62 2300.74 811.606C2302.71 812.345 2304.44 813.084 2305.91 813.824C2307.64 814.563 2308.62 815.056 2308.87 815.302H2339.92C2343.13 813.577 2346.08 811.852 2348.79 810.127C2351.75 808.155 2354.71 806.43 2357.67 804.952C2360.62 803.227 2363.7 801.871 2366.91 800.885C2370.11 799.653 2373.69 799.037 2377.63 799.037C2381.33 799.037 2383.54 800.516 2384.28 803.473C2385.27 806.184 2385.76 809.264 2385.76 812.715V817.89C2385.76 827.994 2382.56 836.496 2376.15 843.397C2369.74 850.297 2361.86 855.842 2352.49 860.032C2343.37 864.221 2333.64 867.179 2323.29 868.904C2313.18 870.629 2304.19 871.491 2296.3 871.491C2293.35 871.491 2290.02 871.368 2286.32 871.122C2282.87 871.122 2279.17 870.752 2275.23 870.013C2271.53 869.52 2267.84 868.78 2264.14 867.795C2260.45 866.562 2257.24 864.961 2254.53 862.989L2244.92 853.378C2239.25 846.724 2233.58 839.947 2227.91 833.046C2222.25 826.146 2217.69 818.506 2214.24 810.127Z" fill="black"/>
<path d="M2475.06 775.009C2475.06 780.184 2476.78 784.251 2480.23 787.208C2483.93 789.919 2488.24 792.014 2493.17 793.492C2498.1 794.971 2503.27 796.08 2508.7 796.819C2514.12 797.312 2518.55 798.051 2522 799.037H2522.37C2527.3 799.037 2532.48 797.558 2537.9 794.601C2543.32 791.397 2547.14 788.07 2549.36 784.62C2550.1 783.388 2551.08 781.663 2552.32 779.445C2553.55 777.227 2554.66 775.009 2555.64 772.791C2556.88 770.573 2557.86 768.601 2558.6 766.876C2559.59 765.151 2560.08 764.042 2560.08 763.549V714.754L2557.86 709.578C2557.37 709.578 2556.26 709.578 2554.54 709.578C2553.06 709.332 2551.95 709.209 2551.21 709.209C2544.55 709.209 2538.39 710.934 2532.72 714.384C2527.06 717.588 2521.51 721.161 2516.09 725.104C2514.86 725.844 2513.13 727.076 2510.91 728.801C2508.7 730.28 2506.48 731.881 2504.26 733.607C2502.29 735.332 2500.44 736.934 2498.72 738.412C2497.24 739.644 2496.37 740.261 2496.13 740.261C2495.88 740.507 2495.27 741.246 2494.28 742.479C2493.29 743.711 2492.18 745.189 2490.95 746.914C2489.97 748.393 2488.98 749.995 2488 751.72C2487.01 753.445 2486.15 754.801 2485.41 755.786C2484.91 756.279 2484.42 757.142 2483.93 758.374C2483.68 759.606 2483.56 760.469 2483.56 760.962C2483.07 761.208 2482.33 761.824 2481.34 762.81C2480.6 763.796 2479.74 764.905 2478.75 766.137C2478.01 767.123 2477.28 768.232 2476.54 769.464C2475.8 770.45 2475.3 771.189 2475.06 771.682V775.009ZM2553.8 829.719C2551.58 829.719 2549.48 830.335 2547.51 831.568C2545.54 832.8 2543.57 834.278 2541.6 836.004C2539.87 837.729 2538.15 839.577 2536.42 841.548C2534.94 843.274 2533.46 844.752 2531.99 845.984C2531.74 845.984 2531 846.231 2529.77 846.724C2528.54 847.217 2527.43 847.833 2526.44 848.572C2522 850.297 2517.69 852.392 2513.5 854.856C2509.31 857.074 2505.12 859.292 2500.93 861.51C2496.74 863.482 2492.31 865.207 2487.63 866.686C2483.19 868.164 2478.63 868.904 2473.95 868.904H2462.49C2462 868.411 2460.64 867.918 2458.42 867.425C2456.45 866.686 2455.22 866.07 2454.73 865.577C2454.48 865.577 2453.74 865.577 2452.51 865.577C2451.28 865.33 2449.92 865.084 2448.44 864.837C2446.96 864.591 2445.48 864.344 2444.01 864.098C2442.77 863.852 2442.03 863.482 2441.79 862.989C2440.56 862.743 2438.58 862.373 2435.87 861.88C2433.16 861.387 2431.56 861.141 2431.07 861.141C2428.11 859.169 2424.91 855.842 2421.46 851.16C2418.01 846.477 2414.8 841.302 2411.84 835.634C2408.89 829.966 2406.3 824.297 2404.08 818.629C2402.11 812.961 2401.12 808.155 2401.12 804.212C2401.12 798.544 2402.11 792.999 2404.08 787.578C2406.05 782.156 2407.53 776.857 2408.52 771.682C2415.91 760.592 2423.18 750.981 2430.33 742.848C2437.47 734.716 2446.72 727.322 2458.05 720.668C2458.05 720.422 2458.67 720.052 2459.9 719.559C2461.13 718.82 2462.37 718.204 2463.6 717.711C2465.08 716.972 2466.43 716.356 2467.66 715.863C2469.14 715.37 2470.13 715 2470.62 714.754C2473.09 713.521 2475.67 711.92 2478.38 709.948C2481.1 707.73 2483.81 705.635 2486.52 703.664C2489.23 701.446 2491.82 699.597 2494.28 698.119C2496.74 696.394 2498.96 695.285 2500.93 694.792C2501.43 694.545 2502.66 694.299 2504.63 694.053C2506.85 693.806 2509.07 693.56 2511.28 693.313C2513.75 693.067 2515.97 692.82 2517.94 692.574C2519.91 692.327 2521.27 692.081 2522 691.835C2522.25 691.835 2523.36 690.972 2525.33 689.247C2527.3 687.522 2528.54 686.659 2529.03 686.659C2529.77 686.413 2531.62 685.55 2534.57 684.072C2537.78 682.593 2541.1 680.991 2544.55 679.266C2548 677.541 2551.21 675.939 2554.17 674.46C2557.37 672.735 2559.34 671.626 2560.08 671.133C2562.54 669.655 2564.52 667.56 2565.99 664.849C2567.47 662.138 2568.46 659.304 2568.95 656.347C2569.69 653.389 2570.06 650.432 2570.06 647.475C2570.31 644.518 2570.43 641.807 2570.43 639.342C2570.43 627.513 2568.83 616.793 2565.62 607.181C2562.67 597.57 2557.25 588.082 2549.36 578.717C2548.87 577.485 2547.51 576.006 2545.29 574.281C2543.32 572.556 2542.09 571.694 2541.6 571.694H2519.42C2516.46 574.405 2513.01 576.869 2509.07 579.087C2505.12 581.059 2502.41 583.646 2500.93 586.85C2497.98 592.272 2494.9 598.063 2491.69 604.224C2488.73 610.385 2486.64 616.546 2485.41 622.707C2484.67 623.447 2483.19 624.679 2480.97 626.404C2478.75 627.883 2476.41 629.361 2473.95 630.84C2471.73 632.319 2469.51 633.797 2467.29 635.276C2465.08 636.508 2463.47 637.371 2462.49 637.864C2462.24 637.864 2461.5 637.987 2460.27 638.233C2459.04 638.233 2457.56 638.233 2455.83 638.233C2454.36 638.233 2452.75 638.356 2451.03 638.603C2449.3 638.603 2447.95 638.603 2446.96 638.603C2446.47 638.603 2445.48 638.603 2444.01 638.603C2442.53 638.356 2440.92 638.233 2439.2 638.233C2437.47 638.233 2435.87 638.233 2434.39 638.233C2432.92 637.987 2431.81 637.864 2431.07 637.864C2428.6 636.385 2426.02 634.66 2423.3 632.688C2420.59 630.47 2418.13 628.252 2415.91 626.034C2413.69 623.57 2411.84 620.982 2410.37 618.271C2408.89 615.314 2408.15 612.11 2408.15 608.66C2408.15 604.963 2408.52 601.76 2409.26 599.049C2410.24 596.338 2411.35 593.75 2412.58 591.286C2414.06 588.821 2415.79 586.48 2417.76 584.262C2419.73 581.798 2421.83 579.21 2424.04 576.499C2426.02 573.788 2427.49 571.57 2428.48 569.845C2429.71 567.874 2431.68 565.902 2434.39 563.931C2435.87 562.699 2437.23 561.959 2438.46 561.713C2439.69 561.22 2440.92 560.973 2442.16 560.973C2443.64 560.727 2445.11 560.481 2446.59 560.234C2448.07 559.988 2449.92 559.495 2452.14 558.755C2453.12 558.509 2455.34 557.523 2458.79 555.798C2462.24 553.827 2465.94 551.855 2469.88 549.884C2474.07 547.666 2477.89 545.694 2481.34 543.969C2484.79 541.997 2487.01 540.765 2488 540.272C2488.49 540.026 2489.47 539.903 2490.95 539.903C2492.43 539.656 2493.91 539.41 2495.39 539.163C2497.11 538.917 2498.72 538.794 2500.19 538.794C2501.67 538.547 2502.66 538.424 2503.15 538.424C2510.05 536.699 2516.58 534.481 2522.74 531.77C2529.15 528.813 2535.93 527.334 2543.08 527.334H2547.51C2557.86 529.059 2568.83 531.4 2580.41 534.358C2591.99 537.069 2602.34 541.751 2611.46 548.405C2612.2 549.144 2613.31 550.253 2614.79 551.732C2616.52 552.964 2618.12 554.443 2619.6 556.168C2621.32 557.893 2622.8 559.495 2624.03 560.973C2625.26 562.206 2626 563.191 2626.25 563.931C2626.5 564.177 2626.74 565.04 2626.99 566.518C2627.48 567.997 2627.85 569.599 2628.1 571.324C2628.34 572.803 2628.47 574.405 2628.47 576.13C2628.71 577.608 2628.84 578.471 2628.84 578.717C2628.84 579.457 2629.21 580.935 2629.95 583.153C2630.93 585.371 2631.92 587.836 2632.9 590.547C2633.89 593.257 2634.75 595.722 2635.49 597.94C2636.48 600.158 2636.97 601.637 2636.97 602.376C2636.97 602.376 2636.97 604.471 2636.97 608.66C2637.22 612.85 2637.34 617.778 2637.34 623.447C2637.59 629.115 2637.83 634.906 2638.08 640.821C2638.33 646.736 2638.57 651.541 2638.82 655.238V658.565C2638.33 659.304 2637.96 660.043 2637.71 660.783C2637.22 662.261 2636.97 663.247 2636.97 663.74C2636.48 664.233 2635.86 665.588 2635.12 667.806C2634.63 669.778 2634.38 670.887 2634.38 671.133C2634.14 671.873 2633.89 674.214 2633.64 678.157C2633.4 681.854 2633.15 685.92 2632.9 690.356C2632.66 694.545 2632.41 698.612 2632.16 702.555C2631.92 706.251 2631.79 708.593 2631.79 709.578C2631.79 710.318 2631.3 711.673 2630.32 713.645C2629.58 715.616 2629.08 716.848 2628.84 717.341C2628.1 721.777 2627.61 725.72 2627.36 729.171C2627.11 732.374 2626.87 735.578 2626.62 738.782C2626.37 741.986 2626.25 745.189 2626.25 748.393C2626.25 751.597 2626.25 755.294 2626.25 759.483V778.706C2626.74 779.938 2627.61 782.156 2628.84 785.36C2630.32 788.563 2631.3 790.658 2631.79 791.644C2633.52 795.833 2636.23 798.914 2639.93 800.885C2643.87 802.611 2648.18 803.966 2652.87 804.952C2657.79 805.691 2662.72 806.307 2667.65 806.8C2672.58 807.293 2677.14 808.155 2681.33 809.388C2685.52 810.373 2688.97 812.222 2691.68 814.933C2694.39 817.644 2695.75 821.587 2695.75 826.762C2695.75 830.705 2693.78 835.387 2689.83 840.809C2686.14 846.231 2681.58 851.406 2676.15 856.335C2670.73 861.264 2665.06 865.453 2659.15 868.904C2653.24 872.354 2648.18 874.079 2643.99 874.079H2636.97C2636.48 874.079 2635 873.586 2632.53 872.6C2630.32 871.861 2629.08 871.491 2628.84 871.491C2628.1 871.245 2626.5 870.998 2624.03 870.752C2621.57 870.505 2618.86 870.259 2615.9 870.013C2612.94 870.013 2610.23 869.889 2607.77 869.643C2605.3 869.396 2603.7 869.15 2602.96 868.904C2599.02 867.425 2594.83 864.591 2590.39 860.401C2585.96 855.965 2581.52 851.529 2577.08 847.093C2572.9 842.657 2568.71 838.714 2564.52 835.264C2560.57 831.568 2557 829.719 2553.8 829.719Z" fill="black"/>
<path d="M2732.92 810.127V769.094C2732.92 768.848 2733.04 767.985 2733.29 766.507C2733.54 765.028 2733.78 763.426 2734.03 761.701C2734.28 759.729 2734.52 757.758 2734.77 755.786C2735.01 753.568 2735.14 751.843 2735.14 750.611C2735.63 750.118 2736.25 748.147 2736.99 744.696C2737.73 741.246 2738.1 738.905 2738.1 737.673V689.986C2738.1 689.247 2738.34 687.522 2738.83 684.811C2739.57 681.854 2740.19 680.128 2740.68 679.636V618.271C2740.68 616.793 2740.19 615.437 2739.2 614.205C2738.22 612.973 2736.99 611.987 2735.51 611.248C2734.03 610.262 2732.55 609.523 2731.07 609.03C2729.84 608.29 2728.85 607.674 2728.11 607.181C2724.91 605.949 2721.83 605.21 2718.87 604.963C2716.16 604.471 2713.7 603.854 2711.48 603.115C2709.26 602.129 2707.54 600.774 2706.3 599.049C2705.07 597.077 2704.46 593.874 2704.46 589.438V585.002C2704.46 584.016 2704.58 582.907 2704.83 581.675C2705.07 581.428 2705.81 580.689 2707.04 579.457C2708.28 578.224 2709.63 576.992 2711.11 575.76C2712.84 574.281 2714.31 572.926 2715.55 571.694C2716.78 570.462 2717.52 569.599 2717.76 569.106C2718.5 568.613 2719.37 567.751 2720.35 566.518C2721.34 565.04 2722.32 563.684 2723.31 562.452C2724.29 560.973 2725.16 559.618 2725.9 558.386C2726.88 557.154 2727.62 556.414 2728.11 556.168C2734.03 549.76 2738.83 544.092 2742.53 539.163C2746.47 533.988 2751.03 529.675 2756.21 526.225C2759.41 523.514 2762.99 520.434 2766.93 516.983C2771.12 513.287 2775.19 511.438 2779.13 511.438C2785.54 511.438 2790.46 512.917 2793.91 515.874C2797.36 518.585 2799.95 522.159 2801.68 526.595C2803.65 530.784 2805.13 535.467 2806.11 540.642C2807.1 545.817 2808.33 550.746 2809.81 555.428H2813.14C2814.62 555.428 2815.97 555.552 2817.2 555.798C2818.68 556.045 2820.04 556.168 2821.27 556.168C2822.26 556.168 2823.24 556.045 2824.23 555.798C2825.46 555.552 2826.57 555.305 2827.55 555.059C2829.53 554.32 2831.37 553.95 2833.1 553.95C2834.82 553.703 2836.67 553.58 2838.64 553.58C2841.35 553.58 2844.19 553.703 2847.15 553.95C2850.1 554.196 2853.06 554.32 2856.02 554.32C2859.22 554.32 2862.8 555.059 2866.74 556.537C2870.93 557.77 2874.87 559.495 2878.57 561.713C2882.26 563.931 2885.34 566.518 2887.81 569.476C2890.27 572.433 2891.51 575.514 2891.51 578.717C2891.51 580.689 2890.52 582.907 2888.55 585.371C2886.82 587.836 2884.61 590.177 2881.89 592.395C2879.18 594.613 2876.35 596.461 2873.39 597.94C2870.68 599.419 2868.22 600.158 2866 600.158H2860.82C2860.58 600.158 2859.84 600.158 2858.61 600.158C2857.37 599.911 2856.02 599.788 2854.54 599.788C2853.06 599.788 2851.71 599.788 2850.47 599.788C2849.24 599.788 2848.5 599.788 2848.26 599.788H2813.14C2806.48 604.224 2801.8 609.523 2799.09 615.684C2796.87 622.091 2795.64 628.745 2795.39 635.646C2795.39 642.546 2795.15 649.57 2794.65 656.716C2793.42 661.645 2792.19 666.821 2790.96 672.242C2789.97 677.418 2789.48 682.839 2789.48 688.508C2789.48 692.451 2789.85 696.517 2790.59 700.706C2791.57 704.65 2792.07 708.716 2792.07 712.905C2792.07 715.616 2791.45 718.45 2790.22 721.408C2789.23 724.365 2788.74 727.445 2788.74 730.649C2788.74 732.621 2788.86 734.099 2789.11 735.085C2789.11 736.071 2789.23 736.934 2789.48 737.673C2789.48 738.412 2789.73 739.768 2790.22 741.739C2790.71 743.464 2791.33 745.313 2792.07 747.284C2792.81 749.256 2793.42 751.227 2793.91 753.199C2794.41 754.924 2794.65 756.033 2794.65 756.526C2794.65 757.019 2794.9 758.744 2795.39 761.701C2795.89 764.412 2796.38 767.369 2796.87 770.573C2797.61 773.777 2798.1 776.734 2798.35 779.445C2798.84 782.156 2799.09 783.881 2799.09 784.62C2799.58 786.345 2799.95 788.317 2800.2 790.535C2800.69 792.753 2801.31 794.971 2802.05 797.189C2802.79 799.407 2803.77 801.502 2805 803.473C2806.24 805.198 2807.84 806.554 2809.81 807.539C2810.8 807.786 2812.15 808.279 2813.88 809.018C2815.85 809.757 2817.7 810.62 2819.42 811.606C2821.39 812.345 2823.12 813.084 2824.6 813.824C2826.32 814.563 2827.31 815.056 2827.55 815.302H2858.61C2861.81 813.577 2864.77 811.852 2867.48 810.127C2870.44 808.155 2873.39 806.43 2876.35 804.952C2879.31 803.227 2882.39 801.871 2885.59 800.885C2888.8 799.653 2892.37 799.037 2896.31 799.037C2900.01 799.037 2902.23 800.516 2902.97 803.473C2903.95 806.184 2904.44 809.264 2904.44 812.715V817.89C2904.44 827.994 2901.24 836.496 2894.83 843.397C2888.43 850.297 2880.54 855.842 2871.17 860.032C2862.06 864.221 2852.32 867.179 2841.97 868.904C2831.87 870.629 2822.87 871.491 2814.99 871.491C2812.03 871.491 2808.7 871.368 2805 871.122C2801.55 871.122 2797.86 870.752 2793.91 870.013C2790.22 869.52 2786.52 868.78 2782.82 867.795C2779.13 866.562 2775.92 864.961 2773.21 862.989L2763.6 853.378C2757.93 846.724 2752.27 839.947 2746.6 833.046C2740.93 826.146 2736.37 818.506 2732.92 810.127Z" fill="black"/>
<path d="M3006.31 604.224C3006.31 610.139 3007.66 614.452 3010.38 617.162C3013.09 619.627 3016.41 621.229 3020.36 621.968C3024.55 622.707 3028.98 623.077 3033.66 623.077C3038.59 622.831 3043.03 622.954 3046.97 623.447C3047.46 623.447 3048.45 623.94 3049.93 624.925C3051.41 625.665 3052.39 626.034 3052.89 626.034C3057.82 627.513 3061.51 628.376 3063.98 628.622C3066.44 628.868 3070.14 628.992 3075.07 628.992C3079.75 628.992 3084.55 628.868 3089.48 628.622C3094.41 628.129 3098.85 627.143 3102.79 625.665C3106.98 624.186 3110.31 621.845 3112.77 618.641C3115.48 615.437 3116.84 611.001 3116.84 605.333C3116.84 598.186 3115.61 590.793 3113.14 583.153C3110.92 575.267 3106.98 569.106 3101.31 564.67C3100.08 564.67 3098.11 564.547 3095.4 564.3C3092.93 564.054 3090.22 563.808 3087.27 563.561C3084.31 563.315 3081.35 563.068 3078.39 562.822C3075.68 562.329 3073.71 562.082 3072.48 562.082C3071.99 561.836 3071.37 561.466 3070.63 560.973C3069.15 559.988 3068.29 559.495 3068.04 559.495H3061.76C3056.58 559.495 3050.67 560.85 3044.01 563.561C3037.61 566.026 3031.57 569.353 3025.9 573.542C3020.48 577.732 3015.8 582.537 3011.85 587.959C3008.16 593.134 3006.31 598.556 3006.31 604.224ZM2921.66 695.531C2921.66 680.991 2923.26 666.328 2926.46 651.541C2929.91 636.508 2935.95 622.831 2944.57 610.508C2946.3 608.044 2948.76 604.84 2951.97 600.897C2955.17 596.708 2958.25 592.641 2961.21 588.698C2964.41 584.509 2967.12 580.812 2969.34 577.608C2971.56 574.405 2972.79 572.556 2973.04 572.063C2976.24 568.12 2980.43 564.424 2985.61 560.973C2990.78 557.523 2996.2 554.196 3001.87 550.993C3007.54 547.789 3013.21 544.708 3018.88 541.751C3024.55 538.547 3029.47 535.467 3033.66 532.509C3038.59 531.524 3043.52 530.784 3048.45 530.291C3053.38 529.552 3058.31 529.182 3063.24 529.182C3071.37 529.182 3078.76 530.045 3085.42 531.77C3090.59 535.22 3096.14 537.438 3102.05 538.424C3107.97 539.163 3113.76 540.395 3119.43 542.121C3124.11 543.353 3128.67 545.324 3133.1 548.035C3137.79 550.5 3141.98 553.58 3145.67 557.277C3149.62 560.727 3153.19 564.547 3156.39 568.736C3159.84 572.679 3162.8 576.623 3165.26 580.566C3165.51 580.812 3165.88 581.428 3166.37 582.414C3166.87 583.4 3167.36 584.509 3167.85 585.741C3168.59 586.727 3169.21 587.712 3169.7 588.698C3170.19 589.684 3170.44 590.3 3170.44 590.547C3171.67 592.272 3173.27 594.243 3175.25 596.461C3177.46 598.433 3179.56 600.651 3181.53 603.115C3183.5 605.333 3185.1 607.798 3186.34 610.508C3187.81 612.973 3188.55 615.561 3188.55 618.271C3188.55 620.243 3188.43 622.707 3188.18 625.665C3187.94 628.376 3187.44 631.21 3186.7 634.167C3185.97 636.878 3184.86 639.465 3183.38 641.93C3182.15 644.394 3180.42 646.119 3178.2 647.105C3177.71 647.105 3176.72 647.352 3175.25 647.845C3174.01 648.337 3172.53 648.954 3170.81 649.693C3169.08 650.186 3167.36 650.679 3165.63 651.171C3164.16 651.664 3163.17 652.034 3162.68 652.28C3162.43 652.28 3161.57 652.65 3160.09 653.389C3158.86 653.882 3158.12 654.252 3157.87 654.498C3154.67 654.498 3149.74 654.622 3143.08 654.868C3136.68 654.868 3129.28 654.991 3120.9 655.238C3112.77 655.238 3104.15 655.361 3095.03 655.607C3085.91 655.854 3077.16 656.1 3068.78 656.347C3060.65 656.593 3053.26 656.84 3046.6 657.086C3039.95 657.086 3035.02 657.086 3031.82 657.086C3030.83 657.086 3028.98 657.209 3026.27 657.456C3023.56 657.456 3020.73 657.579 3017.77 657.825C3014.81 658.072 3011.98 658.442 3009.27 658.934C3006.8 659.181 3005.08 659.427 3004.09 659.674C2997.68 664.849 2993.37 671.133 2991.15 678.527C2989.18 685.673 2988.2 693.313 2988.2 701.446C2988.2 710.318 2989.06 718.081 2990.78 724.735C2992.51 731.142 2995.1 738.535 2998.55 746.914C2999.04 747.407 2999.53 748.393 3000.02 749.872C3000.76 751.104 3001.13 751.967 3001.13 752.459C3001.38 752.706 3002 753.322 3002.98 754.308C3004.21 755.047 3005.32 756.033 3006.31 757.265C3007.54 758.251 3008.65 759.36 3009.64 760.592C3010.62 761.578 3011.11 762.317 3011.11 762.81C3011.36 763.056 3012.1 763.919 3013.33 765.398C3014.81 766.63 3016.29 768.109 3017.77 769.834C3019.25 771.559 3020.6 773.284 3021.83 775.009C3023.07 776.488 3023.81 777.473 3024.05 777.966C3024.55 777.966 3025.04 778.336 3025.53 779.075C3026.27 779.815 3026.89 780.184 3027.38 780.184C3029.6 782.156 3032.31 784.497 3035.51 787.208C3038.96 789.919 3042.29 792.506 3045.49 794.971C3049.19 797.928 3053.13 800.885 3057.32 803.843C3067.92 806.8 3078.15 808.279 3088 808.279C3097.86 808.279 3108.34 806.8 3119.43 803.843C3125.83 799.9 3132.36 796.942 3139.02 794.971C3145.92 792.753 3152.82 790.535 3159.72 788.317C3160.21 787.824 3161.2 787.331 3162.68 786.838C3164.16 786.099 3165.02 785.483 3165.26 784.99H3167.85C3169.58 785.729 3171.67 786.715 3174.14 787.947C3176.85 789.179 3178.2 790.165 3178.2 790.904C3178.7 791.397 3179.19 793.246 3179.68 796.449C3180.42 799.653 3180.79 802.118 3180.79 803.843C3180.79 808.032 3179.56 812.961 3177.09 818.629C3174.88 824.297 3172.66 828.487 3170.44 831.198C3170.44 831.691 3168.96 832.923 3166 834.895C3163.29 836.866 3161.2 838.345 3159.72 839.33C3151.83 844.506 3144.07 850.051 3136.43 855.965C3128.79 861.634 3120.53 866.193 3111.66 869.643C3111.17 869.889 3109.94 870.136 3107.97 870.382C3106.24 870.875 3104.39 871.245 3102.42 871.491C3100.45 871.738 3098.6 871.984 3096.88 872.231C3095.15 872.477 3094.17 872.6 3093.92 872.6C3089.24 873.832 3085.17 874.941 3081.72 875.927C3078.52 877.159 3074.7 877.776 3070.26 877.776C3066.07 877.776 3062.25 877.159 3058.8 875.927C3055.35 874.941 3051.41 873.832 3046.97 872.6C3044.75 872.107 3041.55 871.245 3037.36 870.013C3033.42 869.027 3029.23 867.795 3024.79 866.316C3020.36 864.837 3016.17 863.235 3012.22 861.51C3008.53 859.785 3005.82 858.183 3004.09 856.705C3003.35 856.458 3002 855.349 3000.02 853.378C2998.05 851.406 2995.83 849.311 2993.37 847.093C2991.15 844.875 2989.06 842.781 2987.09 840.809C2985.11 838.838 2983.76 837.605 2983.02 837.113C2982.77 836.62 2981.54 835.634 2979.32 834.155C2977.11 832.677 2975.87 831.691 2975.63 831.198C2974.39 830.705 2972.92 829.596 2971.19 827.871C2969.47 825.899 2968.36 824.667 2967.86 824.174C2967.12 823.188 2965.52 820.97 2963.06 817.52C2960.84 813.824 2958.38 809.881 2955.66 805.691C2952.95 801.502 2950.24 797.435 2947.53 793.492C2945.07 789.549 2943.34 786.715 2942.36 784.99C2938.91 780.061 2936.57 775.132 2935.33 770.203C2934.35 765.274 2933.24 759.976 2932.01 754.308C2932.01 754.061 2931.51 752.952 2930.53 750.981C2929.79 748.763 2929.42 747.407 2929.42 746.914C2926.21 739.521 2924.12 731.265 2923.13 722.147C2922.15 712.782 2921.66 703.91 2921.66 695.531Z" fill="black"/>
<path d="M3210.2 816.411V807.539C3210.2 807.046 3210.94 805.445 3212.42 802.734C3213.9 800.023 3214.64 798.421 3214.64 797.928C3215.87 794.971 3216.98 791.767 3217.96 788.317C3218.95 784.62 3220.06 781.17 3221.29 777.966C3222.77 774.762 3224.62 772.052 3226.84 769.834C3229.05 767.616 3232.26 766.507 3236.45 766.507H3240.14C3240.88 766.507 3241.87 767.616 3243.1 769.834C3244.33 772.052 3245.32 773.777 3246.06 775.009C3249.26 780.924 3252.71 787.701 3256.41 795.34C3260.35 802.734 3264.79 809.634 3269.72 816.042C3274.65 822.449 3280.44 827.871 3287.09 832.307C3293.74 836.743 3301.38 838.961 3310.01 838.961C3313.21 838.961 3317.28 837.852 3322.21 835.634C3327.14 833.169 3331.94 830.335 3336.63 827.132C3341.55 823.928 3345.87 820.601 3349.56 817.151C3353.51 813.454 3355.85 810.25 3356.59 807.539C3357.57 804.336 3358.44 801.378 3359.18 798.667C3359.91 795.957 3360.28 793.122 3360.28 790.165C3360.28 785.236 3359.05 780.184 3356.59 775.009C3356.59 772.052 3354 767.985 3348.82 762.81C3343.9 757.635 3338.1 752.583 3331.45 747.654C3324.8 742.479 3318.39 737.796 3312.23 733.607C3306.07 729.417 3301.88 726.706 3299.66 725.474C3296.95 724.488 3294.11 723.995 3291.16 723.995C3288.45 723.749 3286.11 722.763 3284.13 721.038C3284.13 720.545 3283.52 719.806 3282.29 718.82C3281.3 717.834 3280.19 716.848 3278.96 715.863C3277.97 714.63 3276.86 713.521 3275.63 712.536C3274.65 711.55 3274.15 711.057 3274.15 711.057C3273.66 710.071 3272.06 708.716 3269.35 706.991C3266.64 705.019 3264.79 703.541 3263.8 702.555L3258.63 699.967L3238.3 679.636C3236.57 675.446 3235.09 671.257 3233.86 667.067C3232.87 662.878 3231.76 658.565 3230.53 654.129C3230.29 652.897 3229.79 651.171 3229.05 648.954C3228.56 646.736 3228.07 644.641 3227.57 642.669C3227.08 640.451 3226.59 638.603 3226.1 637.124C3225.6 635.399 3225.36 634.413 3225.36 634.167C3224.86 627.513 3225.36 620.613 3226.84 613.466C3228.31 606.072 3230.53 599.049 3233.49 592.395C3236.69 585.741 3240.39 579.58 3244.58 573.912C3248.77 567.997 3253.45 563.191 3258.63 559.495C3259.12 559.002 3260.48 558.509 3262.69 558.016C3264.91 557.277 3266.39 556.661 3267.13 556.168C3270.83 554.689 3274.77 552.471 3278.96 549.514C3283.39 546.31 3287.95 543.23 3292.64 540.272C3297.32 537.069 3302 534.358 3306.68 532.14C3311.37 529.922 3315.8 528.813 3319.99 528.813C3324.18 528.813 3328.99 529.798 3334.41 531.77C3339.83 533.495 3344.39 534.974 3348.09 536.206C3354.74 538.424 3361.15 540.519 3367.31 542.49C3373.47 544.462 3378.89 547.049 3383.57 550.253C3388.5 553.457 3392.32 557.523 3395.03 562.452C3397.99 567.381 3399.47 573.788 3399.47 581.675C3399.47 584.386 3399.1 588.329 3398.36 593.504C3397.87 598.433 3396.88 603.362 3395.4 608.29C3393.92 612.973 3391.83 617.162 3389.12 620.859C3386.41 624.309 3382.96 626.034 3378.77 626.034H3376.55C3376.06 625.541 3375.19 623.816 3373.96 620.859C3372.73 617.902 3371.87 616.177 3371.37 615.684C3367.92 609.523 3364.1 603.608 3359.91 597.94C3355.97 592.272 3351.41 587.343 3346.24 583.153C3341.31 578.717 3335.89 575.267 3329.97 572.803C3324.06 570.338 3317.4 569.106 3310.01 569.106C3307.79 569.106 3305.2 569.229 3302.25 569.476C3299.29 569.722 3296.7 570.585 3294.48 572.063C3286.11 578.471 3279.7 585.248 3275.26 592.395C3271.07 599.542 3268.98 608.537 3268.98 619.38C3268.98 625.295 3270.33 630.717 3273.04 635.646C3275.75 640.328 3279.2 644.518 3283.39 648.214C3287.58 651.911 3292.27 655.115 3297.44 657.825C3302.62 660.536 3307.67 662.631 3312.6 664.11C3312.84 664.356 3313.71 664.603 3315.19 664.849C3316.66 665.095 3318.27 665.342 3319.99 665.588C3321.96 665.835 3323.69 666.081 3325.17 666.328C3326.64 666.574 3327.51 666.697 3327.75 666.697C3328.25 666.697 3329.11 667.19 3330.34 668.176C3331.57 668.915 3332.44 669.285 3332.93 669.285C3338.35 673.228 3343.9 677.171 3349.56 681.114C3355.48 684.811 3361.15 688.754 3366.57 692.944C3372.24 696.887 3377.66 701.199 3382.83 705.882C3388.01 710.564 3392.69 715.616 3396.88 721.038C3397.13 721.284 3397.62 722.147 3398.36 723.626C3399.1 725.104 3399.84 726.829 3400.58 728.801C3401.56 730.526 3402.43 732.374 3403.17 734.346C3403.9 736.071 3404.52 737.426 3405.01 738.412C3405.01 738.905 3405.01 739.891 3405.01 741.37C3405.26 742.848 3405.51 744.45 3405.75 746.175C3406 747.9 3406.25 749.625 3406.49 751.35C3406.99 752.829 3407.35 753.692 3407.6 753.938C3408.59 756.895 3409.82 759.606 3411.3 762.071C3412.78 764.289 3414.13 766.507 3415.36 768.725C3416.84 770.943 3418.08 773.161 3419.06 775.379C3420.05 777.597 3420.54 780.184 3420.54 783.142C3420.54 791.028 3418.81 798.298 3415.36 804.952C3411.91 811.606 3408.46 818.629 3405.01 826.023C3401.81 831.198 3397.62 836.25 3392.45 841.179C3387.27 846.108 3382.96 850.174 3379.51 853.378C3369.65 862.003 3358.31 868.041 3345.5 871.491C3332.68 875.188 3320.36 877.036 3308.53 877.036C3299.66 877.036 3290.66 876.543 3281.55 875.558C3272.43 874.572 3263.93 872.354 3256.04 868.904C3255.79 868.657 3254.93 868.164 3253.45 867.425C3251.97 866.439 3250.25 865.453 3248.28 864.468C3246.55 863.235 3244.83 862.126 3243.1 861.141C3241.62 860.155 3240.64 859.539 3240.14 859.292C3235.21 856.335 3230.78 853.747 3226.84 851.529C3223.14 849.065 3220.06 846.354 3217.59 843.397C3215.13 840.439 3213.28 836.866 3212.05 832.677C3210.82 828.487 3210.2 823.065 3210.2 816.411Z" fill="black"/>
</svg>
