<svg width="3495" height="379" viewBox="0 0 3495 379" fill="none" xmlns="http://www.w3.org/2000/svg">
<path d="M1836.33 101.282C1836.33 106.26 1837.47 109.89 1839.76 112.172C1842.04 114.246 1844.84 115.594 1848.16 116.216C1851.68 116.839 1855.42 117.15 1859.36 117.15C1863.51 116.942 1867.24 117.046 1870.56 117.461C1870.97 117.461 1871.8 117.876 1873.05 118.705C1874.29 119.328 1875.12 119.639 1875.54 119.639C1879.68 120.883 1882.8 121.609 1884.87 121.817C1886.94 122.024 1890.06 122.128 1894.2 122.128C1898.14 122.128 1902.19 122.024 1906.34 121.817C1910.49 121.402 1914.22 120.572 1917.54 119.328C1921.07 118.083 1923.87 116.113 1925.94 113.416C1928.22 110.72 1929.36 106.986 1929.36 102.215C1929.36 96.2 1928.33 89.9773 1926.25 83.5472C1924.38 76.9096 1921.07 71.724 1916.29 67.9904C1915.26 67.9904 1913.6 67.8867 1911.32 67.6793C1909.24 67.4719 1906.96 67.2644 1904.47 67.057C1901.98 66.8496 1899.49 66.6422 1897 66.4347C1894.72 66.0199 1893.06 65.8125 1892.03 65.8125C1891.61 65.6051 1891.09 65.2939 1890.47 64.8791C1889.23 64.0494 1888.5 63.6345 1888.29 63.6345H1883C1878.65 63.6345 1873.67 64.7754 1868.07 67.057C1862.68 69.1313 1857.59 71.9315 1852.82 75.4577C1848.26 78.9839 1844.32 83.0286 1841 87.5919C1837.89 91.9478 1836.33 96.5111 1836.33 101.282ZM1765.08 178.132C1765.08 165.894 1766.43 153.553 1769.13 141.107C1772.03 128.454 1777.11 116.942 1784.37 106.571C1785.83 104.497 1787.9 101.8 1790.6 98.4816C1793.29 94.9554 1795.89 91.533 1798.37 88.2142C1801.07 84.688 1803.35 81.5766 1805.22 78.8801C1807.09 76.1836 1808.12 74.628 1808.33 74.2131C1811.03 70.8943 1814.55 67.783 1818.91 64.8791C1823.27 61.9752 1827.83 59.1749 1832.6 56.4784C1837.37 53.7819 1842.14 51.1891 1846.91 48.7001C1851.68 46.0036 1855.83 43.4108 1859.36 40.9217C1863.51 40.092 1867.65 39.4697 1871.8 39.0549C1875.95 38.4326 1880.1 38.1215 1884.25 38.1215C1891.09 38.1215 1897.32 38.8475 1902.92 40.2994C1907.27 43.2034 1911.94 45.0702 1916.92 45.8999C1921.89 46.5221 1926.77 47.5592 1931.54 49.0112C1935.48 50.0483 1939.32 51.7077 1943.05 53.9894C1946.99 56.0636 1950.52 58.6564 1953.63 61.7677C1956.95 64.6717 1959.96 67.8867 1962.65 71.4129C1965.56 74.7317 1968.05 78.0504 1970.12 81.3692C1970.33 81.5766 1970.64 82.0952 1971.05 82.9249C1971.47 83.7546 1971.88 84.688 1972.3 85.7251C1972.92 86.5548 1973.44 87.3845 1973.85 88.2142C1974.27 89.0439 1974.48 89.5624 1974.48 89.7699C1975.51 91.2218 1976.86 92.8812 1978.52 94.748C1980.39 96.4074 1982.15 98.2742 1983.81 100.348C1985.47 102.215 1986.82 104.289 1987.86 106.571C1989.1 108.645 1989.72 110.823 1989.72 113.105C1989.72 114.764 1989.62 116.839 1989.41 119.328C1989.2 121.609 1988.79 123.995 1988.17 126.484C1987.54 128.765 1986.61 130.943 1985.37 133.018C1984.33 135.092 1982.88 136.544 1981.01 137.373C1980.6 137.373 1979.77 137.581 1978.52 137.996C1977.48 138.411 1976.24 138.929 1974.79 139.551C1973.34 139.966 1971.88 140.381 1970.43 140.796C1969.19 141.211 1968.36 141.522 1967.94 141.729C1967.74 141.729 1967.01 142.041 1965.76 142.663C1964.73 143.078 1964.11 143.389 1963.9 143.596C1961.2 143.596 1957.05 143.7 1951.45 143.907C1946.06 143.907 1939.84 144.011 1932.78 144.218C1925.94 144.218 1918.68 144.322 1911.01 144.53C1903.33 144.737 1895.97 144.944 1888.91 145.152C1882.07 145.359 1875.85 145.567 1870.25 145.774C1864.65 145.774 1860.5 145.774 1857.8 145.774C1856.97 145.774 1855.42 145.878 1853.13 146.085C1850.85 146.085 1848.47 146.189 1845.98 146.396C1843.49 146.604 1841.1 146.915 1838.82 147.33C1836.75 147.537 1835.3 147.745 1834.47 147.952C1829.07 152.308 1825.44 157.597 1823.58 163.82C1821.92 169.835 1821.09 176.265 1821.09 183.11C1821.09 190.578 1821.81 197.111 1823.27 202.712C1824.72 208.105 1826.9 214.327 1829.8 221.38C1830.21 221.795 1830.63 222.624 1831.04 223.869C1831.67 224.906 1831.98 225.632 1831.98 226.047C1832.18 226.254 1832.7 226.773 1833.53 227.603C1834.57 228.225 1835.5 229.055 1836.33 230.092C1837.37 230.921 1838.3 231.855 1839.13 232.892C1839.96 233.722 1840.38 234.344 1840.38 234.759C1840.59 234.966 1841.21 235.692 1842.24 236.937C1843.49 237.974 1844.73 239.218 1845.98 240.67C1847.22 242.122 1848.36 243.574 1849.4 245.026C1850.44 246.271 1851.06 247.1 1851.27 247.515C1851.68 247.515 1852.1 247.826 1852.51 248.449C1853.13 249.071 1853.65 249.382 1854.07 249.382C1855.93 251.041 1858.22 253.012 1860.91 255.294C1863.82 257.575 1866.62 259.753 1869.31 261.827C1872.42 264.316 1875.74 266.806 1879.27 269.295C1888.19 271.784 1896.8 273.028 1905.09 273.028C1913.39 273.028 1922.21 271.784 1931.54 269.295C1936.93 265.976 1942.43 263.487 1948.03 261.827C1953.84 259.961 1959.65 258.094 1965.45 256.227C1965.87 255.812 1966.7 255.397 1967.94 254.982C1969.19 254.36 1969.91 253.842 1970.12 253.427H1972.3C1973.75 254.049 1975.51 254.879 1977.59 255.916C1979.87 256.953 1981.01 257.783 1981.01 258.405C1981.43 258.82 1981.84 260.375 1982.26 263.072C1982.88 265.768 1983.19 267.843 1983.19 269.295C1983.19 272.821 1982.15 276.969 1980.08 281.74C1978.21 286.511 1976.34 290.037 1974.48 292.319C1974.48 292.733 1973.23 293.771 1970.74 295.43C1968.46 297.089 1966.7 298.334 1965.45 299.164C1958.82 303.519 1952.28 308.187 1945.85 313.165C1939.42 317.935 1932.47 321.773 1925.01 324.677C1924.59 324.884 1923.55 325.091 1921.89 325.299C1920.44 325.714 1918.89 326.025 1917.23 326.232C1915.57 326.44 1914.01 326.647 1912.56 326.855C1911.11 327.062 1910.28 327.166 1910.07 327.166C1906.13 328.203 1902.71 329.136 1899.8 329.966C1897.11 331.003 1893.89 331.522 1890.16 331.522C1886.63 331.522 1883.42 331.003 1880.51 329.966C1877.61 329.136 1874.29 328.203 1870.56 327.166C1868.69 326.751 1865.99 326.025 1862.47 324.988C1859.15 324.158 1855.62 323.121 1851.89 321.876C1848.16 320.632 1844.63 319.284 1841.31 317.832C1838.2 316.38 1835.92 315.031 1834.47 313.787C1833.84 313.58 1832.7 312.646 1831.04 310.987C1829.38 309.327 1827.52 307.564 1825.44 305.697C1823.58 303.831 1821.81 302.068 1820.15 300.408C1818.49 298.749 1817.35 297.712 1816.73 297.297C1816.52 296.882 1815.49 296.052 1813.62 294.808C1811.75 293.563 1810.72 292.733 1810.51 292.319C1809.47 291.904 1808.23 290.97 1806.78 289.518C1805.32 287.859 1804.39 286.822 1803.97 286.407C1803.35 285.577 1802 283.711 1799.93 280.807C1798.06 277.695 1795.99 274.377 1793.71 270.85C1791.43 267.324 1789.14 263.902 1786.86 260.583C1784.79 257.264 1783.34 254.879 1782.51 253.427C1779.6 249.278 1777.63 245.13 1776.59 240.981C1775.77 236.833 1774.83 232.373 1773.79 227.603C1773.79 227.395 1773.38 226.462 1772.55 224.802C1771.93 222.936 1771.62 221.795 1771.62 221.38C1768.92 215.157 1767.16 208.209 1766.33 200.534C1765.5 192.652 1765.08 185.185 1765.08 178.132Z" fill="black"/>
<path d="M2046.17 279.873V272.406C2046.17 271.991 2046.8 270.643 2048.04 268.361C2049.29 266.08 2049.91 264.731 2049.91 264.316C2050.95 261.827 2051.88 259.131 2052.71 256.227C2053.54 253.116 2054.47 250.212 2055.51 247.515C2056.75 244.819 2058.31 242.537 2060.18 240.67C2062.04 238.803 2064.74 237.87 2068.27 237.87H2071.38C2072 237.87 2072.83 238.803 2073.87 240.67C2074.9 242.537 2075.73 243.989 2076.35 245.026C2079.05 250.004 2081.96 255.708 2085.07 262.139C2088.39 268.361 2092.12 274.169 2096.27 279.562C2100.42 284.955 2105.29 289.518 2110.89 293.252C2116.49 296.986 2122.92 298.852 2130.18 298.852C2132.88 298.852 2136.3 297.919 2140.45 296.052C2144.6 293.978 2148.64 291.593 2152.58 288.896C2156.73 286.2 2160.36 283.399 2163.47 280.496C2166.79 277.384 2168.76 274.688 2169.38 272.406C2170.21 269.71 2170.94 267.22 2171.56 264.939C2172.18 262.657 2172.5 260.272 2172.5 257.783C2172.5 253.634 2171.46 249.382 2169.38 245.026C2169.38 242.537 2167.21 239.115 2162.85 234.759C2158.7 230.403 2153.83 226.151 2148.23 222.002C2142.63 217.646 2137.23 213.705 2132.05 210.179C2126.86 206.653 2123.34 204.371 2121.47 203.334C2119.19 202.504 2116.8 202.09 2114.31 202.09C2112.03 201.882 2110.06 201.052 2108.4 199.6C2108.4 199.186 2107.88 198.563 2106.85 197.734C2106.02 196.904 2105.08 196.074 2104.05 195.245C2103.22 194.207 2102.28 193.274 2101.25 192.444C2100.42 191.615 2100 191.2 2100 191.2C2099.59 190.37 2098.24 189.229 2095.96 187.777C2093.67 186.118 2092.12 184.873 2091.29 184.044L2086.93 181.866L2069.82 164.753C2068.37 161.227 2067.12 157.701 2066.09 154.175C2065.26 150.649 2064.32 147.019 2063.29 143.285C2063.08 142.248 2062.66 140.796 2062.04 138.929C2061.63 137.062 2061.21 135.299 2060.8 133.64C2060.38 131.773 2059.97 130.217 2059.55 128.973C2059.14 127.521 2058.93 126.691 2058.93 126.484C2058.52 120.883 2058.93 115.075 2060.18 109.06C2061.42 102.838 2063.29 96.926 2065.78 91.3255C2068.47 85.7251 2071.58 80.5395 2075.11 75.7688C2078.64 70.7906 2082.58 66.7459 2086.93 63.6345C2087.35 63.2197 2088.49 62.8048 2090.36 62.39C2092.22 61.7677 2093.47 61.2492 2094.09 60.8343C2097.2 59.5898 2100.52 57.723 2104.05 55.2339C2107.78 52.5374 2111.62 49.9446 2115.56 47.4555C2119.5 44.759 2123.44 42.4774 2127.38 40.6106C2131.32 38.7438 2135.06 37.8103 2138.58 37.8103C2142.11 37.8103 2146.15 38.64 2150.72 40.2994C2155.28 41.7514 2159.12 42.9959 2162.23 44.033C2167.83 45.8999 2173.22 47.663 2178.41 49.3223C2183.59 50.9817 2188.16 53.1597 2192.1 55.8562C2196.25 58.5527 2199.46 61.9752 2201.74 66.1236C2204.23 70.2721 2205.48 75.6651 2205.48 82.3026C2205.48 84.5843 2205.16 87.9031 2204.54 92.2589C2204.13 96.4074 2203.3 100.556 2202.05 104.704C2200.81 108.645 2199.05 112.172 2196.76 115.283C2194.48 118.187 2191.58 119.639 2188.05 119.639H2186.19C2185.77 119.224 2185.04 117.772 2184.01 115.283C2182.97 112.794 2182.24 111.342 2181.83 110.927C2178.93 105.741 2175.71 100.763 2172.18 95.9926C2168.87 91.2218 2165.03 87.0734 2160.67 83.5472C2156.52 79.8135 2151.96 76.9096 2146.98 74.8354C2142 72.7612 2136.4 71.724 2130.18 71.724C2128.31 71.724 2126.14 71.8278 2123.65 72.0352C2121.16 72.2426 2118.98 72.9686 2117.11 74.2131C2110.06 79.6061 2104.67 85.3103 2100.93 91.3255C2097.41 97.3408 2095.65 104.912 2095.65 114.038C2095.65 119.017 2096.79 123.58 2099.07 127.728C2101.35 131.669 2104.25 135.196 2107.78 138.307C2111.31 141.418 2115.25 144.115 2119.6 146.396C2123.96 148.678 2128.21 150.441 2132.36 151.686C2132.57 151.893 2133.29 152.101 2134.54 152.308C2135.78 152.515 2137.13 152.723 2138.58 152.93C2140.24 153.138 2141.69 153.345 2142.94 153.553C2144.18 153.76 2144.91 153.864 2145.12 153.864C2145.53 153.864 2146.26 154.278 2147.29 155.108C2148.33 155.73 2149.06 156.042 2149.47 156.042C2154.03 159.36 2158.7 162.679 2163.47 165.998C2168.45 169.109 2173.22 172.428 2177.78 175.954C2182.56 179.273 2187.12 182.903 2191.47 186.844C2195.83 190.785 2199.77 195.037 2203.3 199.6C2203.51 199.808 2203.92 200.534 2204.54 201.778C2205.16 203.023 2205.79 204.475 2206.41 206.134C2207.24 207.586 2207.96 209.142 2208.59 210.801C2209.21 212.253 2209.73 213.394 2210.14 214.224C2210.14 214.639 2210.14 215.468 2210.14 216.713C2210.35 217.957 2210.56 219.306 2210.76 220.758C2210.97 222.21 2211.18 223.662 2211.39 225.114C2211.8 226.358 2212.11 227.084 2212.32 227.291C2213.15 229.781 2214.19 232.062 2215.43 234.136C2216.68 236.003 2217.82 237.87 2218.85 239.737C2220.1 241.604 2221.14 243.47 2221.97 245.337C2222.8 247.204 2223.21 249.382 2223.21 251.871C2223.21 258.509 2221.76 264.628 2218.85 270.228C2215.95 275.828 2213.05 281.74 2210.14 287.963C2207.45 292.319 2203.92 296.571 2199.56 300.719C2195.21 304.868 2191.58 308.29 2188.67 310.987C2180.38 318.247 2170.84 323.328 2160.05 326.232C2149.26 329.344 2138.89 330.899 2128.94 330.899C2121.47 330.899 2113.9 330.485 2106.22 329.655C2098.55 328.825 2091.39 326.958 2084.76 324.054C2084.55 323.847 2083.82 323.432 2082.58 322.81C2081.33 321.98 2079.88 321.15 2078.22 320.321C2076.77 319.284 2075.32 318.35 2073.87 317.521C2072.62 316.691 2071.79 316.172 2071.38 315.965C2067.23 313.476 2063.49 311.298 2060.18 309.431C2057.06 307.357 2054.47 305.075 2052.4 302.586C2050.32 300.097 2048.77 297.089 2047.73 293.563C2046.69 290.037 2046.17 285.474 2046.17 279.873Z" fill="black"/>
<path d="M2306.11 274.584V240.048C2306.11 239.841 2306.21 239.115 2306.42 237.87C2306.63 236.626 2306.84 235.277 2307.04 233.825C2307.25 232.166 2307.46 230.507 2307.66 228.847C2307.87 226.98 2307.98 225.528 2307.98 224.491C2308.39 224.076 2308.91 222.417 2309.53 219.513C2310.15 216.609 2310.46 214.639 2310.46 213.602V173.465C2310.46 172.843 2310.67 171.391 2311.09 169.109C2311.71 166.62 2312.23 165.168 2312.64 164.753V113.105C2312.64 111.86 2312.23 110.72 2311.4 109.682C2310.57 108.645 2309.53 107.816 2308.29 107.193C2307.04 106.364 2305.8 105.741 2304.55 105.327C2303.52 104.704 2302.69 104.186 2302.06 103.771C2299.37 102.734 2296.78 102.112 2294.29 101.904C2292 101.489 2289.93 100.971 2288.06 100.348C2286.2 99.5188 2284.74 98.3779 2283.71 96.926C2282.67 95.2666 2282.15 92.5701 2282.15 88.8365V85.1028C2282.15 84.2731 2282.26 83.3397 2282.46 82.3026C2282.67 82.0952 2283.29 81.4729 2284.33 80.4358C2285.37 79.3987 2286.51 78.3616 2287.75 77.3245C2289.2 76.0799 2290.45 74.9391 2291.49 73.902C2292.52 72.8649 2293.15 72.1389 2293.35 71.724C2293.97 71.3092 2294.7 70.5832 2295.53 69.5461C2296.36 68.3016 2297.19 67.1607 2298.02 66.1236C2298.85 64.8791 2299.58 63.7382 2300.2 62.7011C2301.03 61.664 2301.65 61.0417 2302.06 60.8343C2307.04 55.4413 2311.09 50.6706 2314.2 46.5221C2317.52 42.1662 2321.35 38.5363 2325.71 35.6324C2328.41 33.3507 2331.41 30.758 2334.73 27.854C2338.26 24.7427 2341.68 23.187 2345 23.187C2350.39 23.187 2354.54 24.4316 2357.45 26.9206C2360.35 29.2023 2362.53 32.2099 2363.98 35.9435C2365.64 39.4697 2366.88 43.4108 2367.71 47.7667C2368.54 52.1226 2369.58 56.271 2370.83 60.2121H2373.63C2374.87 60.2121 2376.01 60.3158 2377.05 60.5232C2378.29 60.7306 2379.43 60.8343 2380.47 60.8343C2381.3 60.8343 2382.13 60.7306 2382.96 60.5232C2384 60.3158 2384.93 60.1083 2385.76 59.9009C2387.42 59.2787 2388.97 58.9675 2390.43 58.9675C2391.88 58.7601 2393.43 58.6564 2395.09 58.6564C2397.38 58.6564 2399.76 58.7601 2402.25 58.9675C2404.74 59.1749 2407.23 59.2786 2409.72 59.2786C2412.41 59.2786 2415.42 59.9009 2418.74 61.1455C2422.27 62.1826 2425.58 63.6345 2428.7 65.5013C2431.81 67.3682 2434.4 69.5461 2436.47 72.0352C2438.55 74.5243 2439.59 77.117 2439.59 79.8135C2439.59 81.4729 2438.76 83.3397 2437.1 85.414C2435.64 87.4882 2433.78 89.4587 2431.5 91.3255C2429.21 93.1923 2426.83 94.748 2424.34 95.9926C2422.06 97.2371 2419.98 97.8594 2418.12 97.8594H2413.76C2413.55 97.8594 2412.93 97.8594 2411.89 97.8594C2410.86 97.6519 2409.72 97.5482 2408.47 97.5482C2407.23 97.5482 2406.09 97.5482 2405.05 97.5482C2404.01 97.5482 2403.39 97.5482 2403.18 97.5482H2373.63C2368.02 101.282 2364.08 105.741 2361.8 110.927C2359.94 116.32 2358.9 121.92 2358.69 127.728C2358.69 133.536 2358.48 139.448 2358.07 145.463C2357.03 149.611 2355.99 153.967 2354.96 158.531C2354.13 162.887 2353.71 167.45 2353.71 172.221C2353.71 175.539 2354.02 178.962 2354.65 182.488C2355.48 185.807 2355.89 189.229 2355.89 192.755C2355.89 195.037 2355.37 197.423 2354.33 199.912C2353.51 202.401 2353.09 204.993 2353.09 207.69C2353.09 209.349 2353.19 210.594 2353.4 211.424C2353.4 212.253 2353.51 212.979 2353.71 213.602C2353.71 214.224 2353.92 215.365 2354.33 217.024C2354.75 218.476 2355.27 220.032 2355.89 221.691C2356.51 223.35 2357.03 225.01 2357.45 226.669C2357.86 228.121 2358.07 229.055 2358.07 229.469C2358.07 229.884 2358.28 231.336 2358.69 233.825C2359.11 236.107 2359.52 238.596 2359.94 241.293C2360.56 243.989 2360.97 246.478 2361.18 248.76C2361.59 251.041 2361.8 252.493 2361.8 253.116C2362.22 254.568 2362.53 256.227 2362.74 258.094C2363.15 259.961 2363.67 261.827 2364.29 263.694C2364.91 265.561 2365.74 267.324 2366.78 268.984C2367.82 270.435 2369.17 271.576 2370.83 272.406C2371.65 272.613 2372.8 273.028 2374.25 273.651C2375.91 274.273 2377.46 274.999 2378.91 275.828C2380.57 276.451 2382.03 277.073 2383.27 277.695C2384.72 278.318 2385.55 278.732 2385.76 278.94H2411.89C2414.59 277.488 2417.08 276.036 2419.36 274.584C2421.85 272.925 2424.34 271.473 2426.83 270.228C2429.32 268.776 2431.91 267.635 2434.61 266.806C2437.3 265.768 2440.31 265.25 2443.63 265.25C2446.74 265.25 2448.61 266.494 2449.23 268.984C2450.06 271.265 2450.48 273.858 2450.48 276.762V281.118C2450.48 289.622 2447.78 296.778 2442.39 302.586C2436.99 308.394 2430.36 313.061 2422.47 316.587C2414.8 320.113 2406.61 322.602 2397.89 324.054C2389.39 325.506 2381.82 326.232 2375.18 326.232C2372.69 326.232 2369.89 326.129 2366.78 325.921C2363.88 325.921 2360.77 325.61 2357.45 324.988C2354.34 324.573 2351.22 323.951 2348.11 323.121C2345 322.084 2342.3 320.736 2340.02 319.076L2331.93 310.987C2327.16 305.386 2322.39 299.682 2317.62 293.874C2312.85 288.066 2309.01 281.636 2306.11 274.584Z" fill="black"/>
<path d="M2563.87 245.026C2563.87 249.382 2565.32 252.805 2568.22 255.294C2571.33 257.575 2574.96 259.338 2579.11 260.583C2583.26 261.827 2587.62 262.761 2592.18 263.383C2596.74 263.798 2600.48 264.42 2603.38 265.25H2603.69C2607.84 265.25 2612.2 264.005 2616.76 261.516C2621.32 258.82 2624.54 256.02 2626.4 253.116C2627.03 252.079 2627.86 250.627 2628.89 248.76C2629.93 246.893 2630.86 245.026 2631.69 243.159C2632.73 241.293 2633.56 239.633 2634.18 238.181C2635.01 236.729 2635.43 235.796 2635.43 235.381V194.311L2633.56 189.955C2633.14 189.955 2632.21 189.955 2630.76 189.955C2629.52 189.748 2628.58 189.644 2627.96 189.644C2622.36 189.644 2617.17 191.096 2612.4 194C2607.63 196.697 2602.96 199.704 2598.4 203.023C2597.36 203.645 2595.91 204.682 2594.05 206.134C2592.18 207.379 2590.31 208.727 2588.45 210.179C2586.79 211.631 2585.23 212.979 2583.78 214.224C2582.53 215.261 2581.81 215.779 2581.6 215.779C2581.39 215.987 2580.87 216.609 2580.04 217.646C2579.21 218.683 2578.28 219.928 2577.24 221.38C2576.41 222.624 2575.59 223.973 2574.76 225.425C2573.93 226.877 2573.2 228.017 2572.58 228.847C2572.16 229.262 2571.75 229.988 2571.33 231.025C2571.13 232.062 2571.02 232.788 2571.02 233.203C2570.61 233.41 2569.98 233.929 2569.15 234.759C2568.53 235.588 2567.81 236.522 2566.98 237.559C2566.35 238.389 2565.73 239.322 2565.11 240.359C2564.49 241.189 2564.07 241.811 2563.87 242.226V245.026ZM2630.14 291.074C2628.27 291.074 2626.51 291.593 2624.85 292.63C2623.19 293.667 2621.53 294.911 2619.87 296.363C2618.42 297.815 2616.97 299.371 2615.51 301.03C2614.27 302.482 2613.02 303.727 2611.78 304.764C2611.57 304.764 2610.95 304.971 2609.91 305.386C2608.88 305.801 2607.94 306.32 2607.11 306.942C2603.38 308.394 2599.75 310.157 2596.22 312.231C2592.7 314.098 2589.17 315.965 2585.65 317.832C2582.12 319.491 2578.39 320.943 2574.44 322.188C2570.71 323.432 2566.87 324.054 2562.93 324.054H2553.29C2552.87 323.64 2551.73 323.225 2549.86 322.81C2548.21 322.188 2547.17 321.669 2546.75 321.254C2546.55 321.254 2545.92 321.254 2544.89 321.254C2543.85 321.047 2542.71 320.839 2541.46 320.632C2540.22 320.424 2538.97 320.217 2537.73 320.01C2536.69 319.802 2536.07 319.491 2535.86 319.076C2534.83 318.869 2533.17 318.558 2530.89 318.143C2528.6 317.728 2527.26 317.521 2526.84 317.521C2524.35 315.861 2521.66 313.061 2518.75 309.12C2515.85 305.179 2513.15 300.823 2510.66 296.052C2508.17 291.282 2505.99 286.511 2504.13 281.74C2502.47 276.969 2501.64 272.925 2501.64 269.606C2501.64 264.835 2502.47 260.168 2504.13 255.605C2505.79 251.041 2507.03 246.582 2507.86 242.226C2514.08 232.892 2520.2 224.802 2526.22 217.957C2532.23 211.112 2540.01 204.89 2549.55 199.289C2549.55 199.082 2550.07 198.771 2551.11 198.356C2552.15 197.734 2553.18 197.215 2554.22 196.8C2555.46 196.178 2556.61 195.659 2557.64 195.245C2558.89 194.83 2559.72 194.519 2560.13 194.311C2562.21 193.274 2564.38 191.926 2566.67 190.266C2568.95 188.4 2571.23 186.636 2573.51 184.977C2575.79 183.11 2577.97 181.555 2580.04 180.31C2582.12 178.858 2583.99 177.925 2585.65 177.51C2586.06 177.302 2587.1 177.095 2588.76 176.888C2590.62 176.68 2592.49 176.473 2594.36 176.265C2596.43 176.058 2598.3 175.85 2599.96 175.643C2601.62 175.436 2602.76 175.228 2603.38 175.021C2603.59 175.021 2604.52 174.295 2606.18 172.843C2607.84 171.391 2608.88 170.665 2609.29 170.665C2609.91 170.457 2611.47 169.732 2613.96 168.487C2616.65 167.242 2619.46 165.894 2622.36 164.442C2625.26 162.99 2627.96 161.642 2630.45 160.397C2633.14 158.945 2634.8 158.012 2635.43 157.597C2637.5 156.353 2639.16 154.59 2640.4 152.308C2641.65 150.026 2642.48 147.641 2642.89 145.152C2643.52 142.663 2643.83 140.174 2643.83 137.685C2644.03 135.196 2644.14 132.914 2644.14 130.84C2644.14 120.883 2642.79 111.86 2640.09 103.771C2637.6 95.6814 2633.04 87.6956 2626.4 79.8135C2625.99 78.7764 2624.85 77.5319 2622.98 76.0799C2621.32 74.628 2620.28 73.902 2619.87 73.902H2601.2C2598.71 76.1836 2595.81 78.2579 2592.49 80.1247C2589.17 81.7841 2586.89 83.962 2585.65 86.6585C2583.16 91.2218 2580.56 96.0963 2577.87 101.282C2575.38 106.467 2573.61 111.653 2572.58 116.839C2571.96 117.461 2570.71 118.498 2568.84 119.95C2566.98 121.194 2565.01 122.439 2562.93 123.684C2561.07 124.928 2559.2 126.173 2557.33 127.417C2555.46 128.454 2554.12 129.18 2553.29 129.595C2553.08 129.595 2552.46 129.699 2551.42 129.906C2550.38 129.906 2549.14 129.906 2547.69 129.906C2546.44 129.906 2545.09 130.01 2543.64 130.217C2542.19 130.217 2541.05 130.217 2540.22 130.217C2539.8 130.217 2538.97 130.217 2537.73 130.217C2536.49 130.01 2535.14 129.906 2533.69 129.906C2532.23 129.906 2530.89 129.906 2529.64 129.906C2528.4 129.699 2527.46 129.595 2526.84 129.595C2524.77 128.351 2522.59 126.899 2520.31 125.239C2518.03 123.372 2515.95 121.506 2514.08 119.639C2512.22 117.565 2510.66 115.387 2509.42 113.105C2508.17 110.616 2507.55 107.919 2507.55 105.015C2507.55 101.904 2507.86 99.2076 2508.48 96.926C2509.31 94.6443 2510.25 92.4664 2511.28 90.3921C2512.53 88.3179 2513.98 86.3474 2515.64 84.4806C2517.3 82.4063 2519.06 80.2284 2520.93 77.9467C2522.59 75.6651 2523.83 73.7983 2524.66 72.3463C2525.7 70.6869 2527.36 69.0275 2529.64 67.3682C2530.89 66.331 2532.03 65.7088 2533.06 65.5013C2534.1 65.0865 2535.14 64.8791 2536.17 64.8791C2537.42 64.6717 2538.66 64.4642 2539.91 64.2568C2541.15 64.0494 2542.71 63.6345 2544.58 63.0123C2545.4 62.8048 2547.27 61.9752 2550.18 60.5232C2553.08 58.8638 2556.19 57.2044 2559.51 55.545C2563.04 53.6782 2566.25 52.0188 2569.15 50.5669C2572.06 48.9075 2573.93 47.8704 2574.76 47.4555C2575.17 47.2481 2576 47.1444 2577.24 47.1444C2578.49 46.937 2579.73 46.7295 2580.98 46.5221C2582.43 46.3147 2583.78 46.211 2585.02 46.211C2586.27 46.0036 2587.1 45.8999 2587.51 45.8999C2593.32 44.4479 2598.82 42.5811 2604 40.2994C2609.4 37.8103 2615.1 36.5658 2621.11 36.5658H2624.85C2633.56 38.0178 2642.79 39.9883 2652.54 42.4774C2662.29 44.759 2671 48.7001 2678.67 54.3005C2679.3 54.9228 2680.23 55.8562 2681.47 57.1007C2682.93 58.1378 2684.27 59.3824 2685.52 60.8343C2686.97 62.2863 2688.22 63.6345 2689.25 64.8791C2690.29 65.9162 2690.91 66.7459 2691.12 67.3682C2691.33 67.5756 2691.53 68.3016 2691.74 69.5461C2692.16 70.7906 2692.47 72.1389 2692.68 73.5909C2692.88 74.8354 2692.99 76.1836 2692.99 77.6356C2693.19 78.8801 2693.3 79.6061 2693.3 79.8135C2693.3 80.4358 2693.61 81.6804 2694.23 83.5472C2695.06 85.414 2695.89 87.4882 2696.72 89.7699C2697.55 92.0515 2698.28 94.1258 2698.9 95.9926C2699.73 97.8594 2700.14 99.1039 2700.14 99.7262C2700.14 99.7262 2700.14 101.489 2700.14 105.015C2700.35 108.542 2700.45 112.69 2700.45 117.461C2700.66 122.232 2700.87 127.106 2701.08 132.084C2701.28 137.062 2701.49 141.107 2701.7 144.218V147.019C2701.28 147.641 2700.97 148.263 2700.76 148.885C2700.35 150.13 2700.14 150.96 2700.14 151.375C2699.73 151.789 2699.21 152.93 2698.59 154.797C2698.17 156.456 2697.96 157.39 2697.96 157.597C2697.76 158.22 2697.55 160.19 2697.34 163.509C2697.14 166.62 2696.93 170.043 2696.72 173.776C2696.51 177.302 2696.31 180.725 2696.1 184.044C2695.89 187.155 2695.79 189.126 2695.79 189.955C2695.79 190.578 2695.37 191.718 2694.54 193.378C2693.92 195.037 2693.51 196.074 2693.3 196.489C2692.68 200.223 2692.26 203.541 2692.05 206.445C2691.85 209.142 2691.64 211.838 2691.43 214.535C2691.22 217.231 2691.12 219.928 2691.12 222.624C2691.12 225.321 2691.12 228.432 2691.12 231.958V248.137C2691.53 249.175 2692.26 251.041 2693.3 253.738C2694.54 256.434 2695.37 258.198 2695.79 259.027C2697.24 262.553 2699.52 265.146 2702.63 266.806C2705.95 268.258 2709.58 269.398 2713.52 270.228C2717.67 270.85 2721.82 271.369 2725.97 271.784C2730.12 272.199 2733.95 272.925 2737.48 273.962C2741.01 274.791 2743.91 276.347 2746.19 278.629C2748.47 280.91 2749.61 284.229 2749.61 288.585C2749.61 291.904 2747.95 295.845 2744.63 300.408C2741.52 304.971 2737.69 309.327 2733.12 313.476C2728.56 317.624 2723.79 321.15 2718.81 324.054C2713.83 326.958 2709.58 328.41 2706.05 328.41H2700.14C2699.73 328.41 2698.48 327.995 2696.41 327.166C2694.54 326.543 2693.51 326.232 2693.3 326.232C2692.68 326.025 2691.33 325.817 2689.25 325.61C2687.18 325.403 2684.9 325.195 2682.41 324.988C2679.92 324.988 2677.64 324.884 2675.56 324.677C2673.49 324.469 2672.14 324.262 2671.52 324.054C2668.2 322.81 2664.67 320.424 2660.94 316.898C2657.21 313.165 2653.47 309.431 2649.74 305.697C2646.21 301.964 2642.69 298.645 2639.16 295.741C2635.84 292.63 2632.83 291.074 2630.14 291.074Z" fill="black"/>
<path d="M2819.13 274.584V240.048C2819.13 239.841 2819.24 239.115 2819.44 237.87C2819.65 236.626 2819.86 235.277 2820.07 233.825C2820.27 232.166 2820.48 230.507 2820.69 228.847C2820.9 226.98 2821 225.528 2821 224.491C2821.41 224.076 2821.93 222.417 2822.56 219.513C2823.18 216.609 2823.49 214.639 2823.49 213.602V173.465C2823.49 172.843 2823.7 171.391 2824.11 169.109C2824.73 166.62 2825.25 165.168 2825.67 164.753V113.105C2825.67 111.86 2825.25 110.72 2824.42 109.682C2823.59 108.645 2822.56 107.816 2821.31 107.193C2820.07 106.364 2818.82 105.741 2817.58 105.327C2816.54 104.704 2815.71 104.186 2815.09 103.771C2812.39 102.734 2809.8 102.112 2807.31 101.904C2805.03 101.489 2802.95 100.971 2801.09 100.348C2799.22 99.5188 2797.77 98.3779 2796.73 96.926C2795.69 95.2666 2795.18 92.5701 2795.18 88.8365V85.1028C2795.18 84.2731 2795.28 83.3397 2795.49 82.3026C2795.69 82.0952 2796.32 81.4729 2797.35 80.4358C2798.39 79.3987 2799.53 78.3616 2800.78 77.3245C2802.23 76.0799 2803.47 74.9391 2804.51 73.902C2805.55 72.8649 2806.17 72.1389 2806.38 71.724C2807 71.3092 2807.72 70.5832 2808.55 69.5461C2809.38 68.3016 2810.21 67.1607 2811.04 66.1236C2811.87 64.8791 2812.6 63.7382 2813.22 62.7011C2814.05 61.664 2814.67 61.0417 2815.09 60.8343C2820.07 55.4413 2824.11 50.6706 2827.22 46.5221C2830.54 42.1662 2834.38 38.5363 2838.73 35.6324C2841.43 33.3507 2844.44 30.758 2847.76 27.854C2851.28 24.7427 2854.71 23.187 2858.03 23.187C2863.42 23.187 2867.57 24.4316 2870.47 26.9206C2873.37 29.2023 2875.55 32.2099 2877 35.9435C2878.66 39.4697 2879.91 43.4108 2880.74 47.7667C2881.57 52.1226 2882.6 56.271 2883.85 60.2121H2886.65C2887.89 60.2121 2889.03 60.3158 2890.07 60.5232C2891.32 60.7306 2892.46 60.8343 2893.49 60.8343C2894.32 60.8343 2895.15 60.7306 2895.98 60.5232C2897.02 60.3158 2897.95 60.1083 2898.78 59.9009C2900.44 59.2787 2902 58.9675 2903.45 58.9675C2904.9 58.7601 2906.46 58.6564 2908.12 58.6564C2910.4 58.6564 2912.78 58.7601 2915.27 58.9675C2917.76 59.1749 2920.25 59.2786 2922.74 59.2786C2925.44 59.2786 2928.45 59.9009 2931.76 61.1455C2935.29 62.1826 2938.61 63.6345 2941.72 65.5013C2944.83 67.3682 2947.42 69.5461 2949.5 72.0352C2951.57 74.5243 2952.61 77.117 2952.61 79.8135C2952.61 81.4729 2951.78 83.3397 2950.12 85.414C2948.67 87.4882 2946.8 89.4587 2944.52 91.3255C2942.24 93.1923 2939.85 94.748 2937.36 95.9926C2935.08 97.2371 2933.01 97.8594 2931.14 97.8594H2926.79C2926.58 97.8594 2925.96 97.8594 2924.92 97.8594C2923.88 97.6519 2922.74 97.5482 2921.5 97.5482C2920.25 97.5482 2919.11 97.5482 2918.07 97.5482C2917.04 97.5482 2916.41 97.5482 2916.21 97.5482H2886.65C2881.05 101.282 2877.11 105.741 2874.83 110.927C2872.96 116.32 2871.92 121.92 2871.71 127.728C2871.71 133.536 2871.51 139.448 2871.09 145.463C2870.06 149.611 2869.02 153.967 2867.98 158.531C2867.15 162.887 2866.74 167.45 2866.74 172.221C2866.74 175.539 2867.05 178.962 2867.67 182.488C2868.5 185.807 2868.91 189.229 2868.91 192.755C2868.91 195.037 2868.4 197.423 2867.36 199.912C2866.53 202.401 2866.11 204.993 2866.11 207.69C2866.11 209.349 2866.22 210.594 2866.43 211.424C2866.43 212.253 2866.53 212.979 2866.74 213.602C2866.74 214.224 2866.94 215.365 2867.36 217.024C2867.77 218.476 2868.29 220.032 2868.91 221.691C2869.54 223.35 2870.06 225.01 2870.47 226.669C2870.89 228.121 2871.09 229.055 2871.09 229.469C2871.09 229.884 2871.3 231.336 2871.71 233.825C2872.13 236.107 2872.54 238.596 2872.96 241.293C2873.58 243.989 2874 246.478 2874.2 248.76C2874.62 251.041 2874.83 252.493 2874.83 253.116C2875.24 254.568 2875.55 256.227 2875.76 258.094C2876.17 259.961 2876.69 261.827 2877.32 263.694C2877.94 265.561 2878.77 267.324 2879.8 268.984C2880.84 270.435 2882.19 271.576 2883.85 272.406C2884.68 272.613 2885.82 273.028 2887.27 273.651C2888.93 274.273 2890.49 274.999 2891.94 275.828C2893.6 276.451 2895.05 277.073 2896.29 277.695C2897.75 278.318 2898.58 278.732 2898.78 278.94H2924.92C2927.62 277.488 2930.1 276.036 2932.39 274.584C2934.88 272.925 2937.36 271.473 2939.85 270.228C2942.34 268.776 2944.94 267.635 2947.63 266.806C2950.33 265.768 2953.34 265.25 2956.65 265.25C2959.77 265.25 2961.63 266.494 2962.26 268.984C2963.08 271.265 2963.5 273.858 2963.5 276.762V281.118C2963.5 289.622 2960.8 296.778 2955.41 302.586C2950.02 308.394 2943.38 313.061 2935.5 316.587C2927.82 320.113 2919.63 322.602 2910.92 324.054C2902.41 325.506 2894.84 326.232 2888.21 326.232C2885.72 326.232 2882.92 326.129 2879.8 325.921C2876.9 325.921 2873.79 325.61 2870.47 324.988C2867.36 324.573 2864.25 323.951 2861.14 323.121C2858.03 322.084 2855.33 320.736 2853.05 319.076L2844.96 310.987C2840.19 305.386 2835.42 299.682 2830.65 293.874C2825.87 288.066 2822.04 281.636 2819.13 274.584Z" fill="black"/>
<path d="M3087.47 101.282C3087.47 106.26 3088.61 109.89 3090.89 112.172C3093.17 114.246 3095.97 115.594 3099.29 116.216C3102.82 116.839 3106.55 117.15 3110.49 117.15C3114.64 116.942 3118.37 117.046 3121.69 117.461C3122.11 117.461 3122.94 117.876 3124.18 118.705C3125.43 119.328 3126.26 119.639 3126.67 119.639C3130.82 120.883 3133.93 121.609 3136.01 121.817C3138.08 122.024 3141.19 122.128 3145.34 122.128C3149.28 122.128 3153.33 122.024 3157.47 121.817C3161.62 121.402 3165.36 120.572 3168.67 119.328C3172.2 118.083 3175 116.113 3177.07 113.416C3179.36 110.72 3180.5 106.986 3180.5 102.215C3180.5 96.2 3179.46 89.9773 3177.39 83.5472C3175.52 76.9096 3172.2 71.724 3167.43 67.9904C3166.39 67.9904 3164.73 67.8867 3162.45 67.6793C3160.38 67.4719 3158.1 67.2644 3155.61 67.057C3153.12 66.8496 3150.63 66.6422 3148.14 66.4347C3145.86 66.0199 3144.2 65.8125 3143.16 65.8125C3142.75 65.6051 3142.23 65.2939 3141.61 64.8791C3140.36 64.0494 3139.64 63.6345 3139.43 63.6345H3134.14C3129.78 63.6345 3124.8 64.7754 3119.2 67.057C3113.81 69.1313 3108.73 71.9315 3103.96 75.4577C3099.39 78.9839 3095.45 83.0286 3092.14 87.5919C3089.02 91.9478 3087.47 96.5111 3087.47 101.282ZM3016.22 178.132C3016.22 165.894 3017.57 153.553 3020.26 141.107C3023.17 128.454 3028.25 116.942 3035.51 106.571C3036.96 104.497 3039.03 101.8 3041.73 98.4816C3044.43 94.9554 3047.02 91.533 3049.51 88.2142C3052.21 84.688 3054.49 81.5766 3056.35 78.8801C3058.22 76.1836 3059.26 74.628 3059.47 74.2131C3062.16 70.8943 3065.69 67.783 3070.04 64.8791C3074.4 61.9752 3078.96 59.1749 3083.73 56.4784C3088.51 53.7819 3093.28 51.1891 3098.05 48.7001C3102.82 46.0036 3106.97 43.4108 3110.49 40.9217C3114.64 40.092 3118.79 39.4697 3122.94 39.0549C3127.09 38.4326 3131.23 38.1215 3135.38 38.1215C3142.23 38.1215 3148.45 38.8475 3154.05 40.2994C3158.41 43.2034 3163.07 45.0702 3168.05 45.8999C3173.03 46.5221 3177.9 47.5592 3182.68 49.0112C3186.62 50.0483 3190.45 51.7077 3194.19 53.9894C3198.13 56.0636 3201.65 58.6564 3204.77 61.7677C3208.08 64.6717 3211.09 67.8867 3213.79 71.4129C3216.69 74.7317 3219.18 78.0504 3221.26 81.3692C3221.46 81.5766 3221.77 82.0952 3222.19 82.9249C3222.6 83.7546 3223.02 84.688 3223.43 85.7251C3224.06 86.5548 3224.57 87.3845 3224.99 88.2142C3225.4 89.0439 3225.61 89.5624 3225.61 89.7699C3226.65 91.2218 3228 92.8812 3229.66 94.748C3231.52 96.4074 3233.29 98.2742 3234.95 100.348C3236.61 102.215 3237.95 104.289 3238.99 106.571C3240.24 108.645 3240.86 110.823 3240.86 113.105C3240.86 114.764 3240.75 116.839 3240.55 119.328C3240.34 121.609 3239.92 123.995 3239.3 126.484C3238.68 128.765 3237.75 130.943 3236.5 133.018C3235.46 135.092 3234.01 136.544 3232.15 137.373C3231.73 137.373 3230.9 137.581 3229.66 137.996C3228.62 138.411 3227.38 138.929 3225.92 139.551C3224.47 139.966 3223.02 140.381 3221.57 140.796C3220.32 141.211 3219.49 141.522 3219.08 141.729C3218.87 141.729 3218.14 142.041 3216.9 142.663C3215.86 143.078 3215.24 143.389 3215.03 143.596C3212.34 143.596 3208.19 143.7 3202.59 143.907C3197.2 143.907 3190.97 144.011 3183.92 144.218C3177.07 144.218 3169.82 144.322 3162.14 144.53C3154.47 144.737 3147.1 144.944 3140.05 145.152C3133.2 145.359 3126.98 145.567 3121.38 145.774C3115.78 145.774 3111.63 145.774 3108.94 145.774C3108.11 145.774 3106.55 145.878 3104.27 146.085C3101.99 146.085 3099.6 146.189 3097.11 146.396C3094.62 146.604 3092.24 146.915 3089.96 147.33C3087.88 147.537 3086.43 147.745 3085.6 147.952C3080.21 152.308 3076.58 157.597 3074.71 163.82C3073.05 169.835 3072.22 176.265 3072.22 183.11C3072.22 190.578 3072.95 197.111 3074.4 202.712C3075.85 208.105 3078.03 214.327 3080.93 221.38C3081.35 221.795 3081.76 222.624 3082.18 223.869C3082.8 224.906 3083.11 225.632 3083.11 226.047C3083.32 226.254 3083.84 226.773 3084.67 227.603C3085.71 228.225 3086.64 229.055 3087.47 230.092C3088.51 230.921 3089.44 231.855 3090.27 232.892C3091.1 233.722 3091.51 234.344 3091.51 234.759C3091.72 234.966 3092.34 235.692 3093.38 236.937C3094.62 237.974 3095.87 239.218 3097.11 240.67C3098.36 242.122 3099.5 243.574 3100.54 245.026C3101.57 246.271 3102.2 247.1 3102.4 247.515C3102.82 247.515 3103.23 247.826 3103.65 248.449C3104.27 249.071 3104.79 249.382 3105.2 249.382C3107.07 251.041 3109.35 253.012 3112.05 255.294C3114.95 257.575 3117.75 259.753 3120.45 261.827C3123.56 264.316 3126.88 266.806 3130.4 269.295C3139.32 271.784 3147.93 273.028 3156.23 273.028C3164.53 273.028 3173.34 271.784 3182.68 269.295C3188.07 265.976 3193.57 263.487 3199.17 261.827C3204.97 259.961 3210.78 258.094 3216.59 256.227C3217 255.812 3217.83 255.397 3219.08 254.982C3220.32 254.36 3221.05 253.842 3221.26 253.427H3223.43C3224.89 254.049 3226.65 254.879 3228.72 255.916C3231.01 256.953 3232.15 257.783 3232.15 258.405C3232.56 258.82 3232.98 260.375 3233.39 263.072C3234.01 265.768 3234.32 267.843 3234.32 269.295C3234.32 272.821 3233.29 276.969 3231.21 281.74C3229.35 286.511 3227.48 290.037 3225.61 292.319C3225.61 292.733 3224.37 293.771 3221.88 295.43C3219.6 297.089 3217.83 298.334 3216.59 299.164C3209.95 303.519 3203.42 308.187 3196.99 313.165C3190.56 317.935 3183.61 321.773 3176.14 324.677C3175.73 324.884 3174.69 325.091 3173.03 325.299C3171.58 325.714 3170.02 326.025 3168.36 326.232C3166.7 326.44 3165.15 326.647 3163.7 326.855C3162.24 327.062 3161.41 327.166 3161.21 327.166C3157.27 328.203 3153.84 329.136 3150.94 329.966C3148.24 331.003 3145.03 331.522 3141.29 331.522C3137.77 331.522 3134.55 331.003 3131.65 329.966C3128.75 329.136 3125.43 328.203 3121.69 327.166C3119.83 326.751 3117.13 326.025 3113.6 324.988C3110.28 324.158 3106.76 323.121 3103.02 321.876C3099.29 320.632 3095.77 319.284 3092.45 317.832C3089.33 316.38 3087.05 315.031 3085.6 313.787C3084.98 313.58 3083.84 312.646 3082.18 310.987C3080.52 309.327 3078.65 307.564 3076.58 305.697C3074.71 303.831 3072.95 302.068 3071.29 300.408C3069.63 298.749 3068.49 297.712 3067.87 297.297C3067.66 296.882 3066.62 296.052 3064.76 294.808C3062.89 293.563 3061.85 292.733 3061.64 292.319C3060.61 291.904 3059.36 290.97 3057.91 289.518C3056.46 287.859 3055.52 286.822 3055.11 286.407C3054.49 285.577 3053.14 283.711 3051.07 280.807C3049.2 277.695 3047.12 274.377 3044.84 270.85C3042.56 267.324 3040.28 263.902 3038 260.583C3035.92 257.264 3034.47 254.879 3033.64 253.427C3030.74 249.278 3028.77 245.13 3027.73 240.981C3026.9 236.833 3025.97 232.373 3024.93 227.603C3024.93 227.395 3024.52 226.462 3023.69 224.802C3023.06 222.936 3022.75 221.795 3022.75 221.38C3020.06 215.157 3018.29 208.209 3017.46 200.534C3016.63 192.652 3016.22 185.185 3016.22 178.132Z" fill="black"/>
<path d="M3297.31 279.873V272.406C3297.31 271.991 3297.93 270.643 3299.18 268.361C3300.42 266.08 3301.04 264.731 3301.04 264.316C3302.08 261.827 3303.01 259.131 3303.84 256.227C3304.67 253.116 3305.61 250.212 3306.64 247.515C3307.89 244.819 3309.44 242.537 3311.31 240.67C3313.18 238.803 3315.87 237.87 3319.4 237.87H3322.51C3323.13 237.87 3323.96 238.803 3325 240.67C3326.04 242.537 3326.87 243.989 3327.49 245.026C3330.19 250.004 3333.09 255.708 3336.2 262.139C3339.52 268.361 3343.25 274.169 3347.4 279.562C3351.55 284.955 3356.43 289.518 3362.03 293.252C3367.63 296.986 3374.06 298.852 3381.32 298.852C3384.01 298.852 3387.44 297.919 3391.58 296.052C3395.73 293.978 3399.78 291.593 3403.72 288.896C3407.87 286.2 3411.5 283.399 3414.61 280.496C3417.93 277.384 3419.9 274.688 3420.52 272.406C3421.35 269.71 3422.07 267.22 3422.7 264.939C3423.32 262.657 3423.63 260.272 3423.63 257.783C3423.63 253.634 3422.59 249.382 3420.52 245.026C3420.52 242.537 3418.34 239.115 3413.99 234.759C3409.84 230.403 3404.96 226.151 3399.36 222.002C3393.76 217.646 3388.37 213.705 3383.18 210.179C3378 206.653 3374.47 204.371 3372.6 203.334C3370.32 202.504 3367.94 202.09 3365.45 202.09C3363.17 201.882 3361.2 201.052 3359.54 199.6C3359.54 199.186 3359.02 198.563 3357.98 197.734C3357.15 196.904 3356.22 196.074 3355.18 195.245C3354.35 194.207 3353.42 193.274 3352.38 192.444C3351.55 191.615 3351.14 191.2 3351.14 191.2C3350.72 190.37 3349.37 189.229 3347.09 187.777C3344.81 186.118 3343.25 184.873 3342.42 184.044L3338.07 181.866L3320.96 164.753C3319.5 161.227 3318.26 157.701 3317.22 154.175C3316.39 150.649 3315.46 147.019 3314.42 143.285C3314.21 142.248 3313.8 140.796 3313.18 138.929C3312.76 137.062 3312.35 135.299 3311.93 133.64C3311.52 131.773 3311.1 130.217 3310.69 128.973C3310.27 127.521 3310.07 126.691 3310.07 126.484C3309.65 120.883 3310.07 115.075 3311.31 109.06C3312.56 102.838 3314.42 96.926 3316.91 91.3255C3319.61 85.7251 3322.72 80.5395 3326.25 75.7688C3329.77 70.7906 3333.71 66.7459 3338.07 63.6345C3338.48 63.2197 3339.62 62.8048 3341.49 62.39C3343.36 61.7677 3344.6 61.2492 3345.22 60.8343C3348.34 59.5898 3351.65 57.723 3355.18 55.2339C3358.91 52.5374 3362.75 49.9446 3366.69 47.4555C3370.63 44.759 3374.58 42.4774 3378.52 40.6106C3382.46 38.7438 3386.19 37.8103 3389.72 37.8103C3393.24 37.8103 3397.29 38.64 3401.85 40.2994C3406.41 41.7514 3410.25 42.9959 3413.36 44.033C3418.96 45.8999 3424.36 47.663 3429.54 49.3223C3434.73 50.9817 3439.29 53.1597 3443.23 55.8562C3447.38 58.5527 3450.6 61.9752 3452.88 66.1236C3455.37 70.2721 3456.61 75.6651 3456.61 82.3026C3456.61 84.5843 3456.3 87.9031 3455.68 92.2589C3455.26 96.4074 3454.43 100.556 3453.19 104.704C3451.94 108.645 3450.18 112.172 3447.9 115.283C3445.62 118.187 3442.71 119.639 3439.19 119.639H3437.32C3436.91 119.224 3436.18 117.772 3435.14 115.283C3434.11 112.794 3433.38 111.342 3432.96 110.927C3430.06 105.741 3426.85 100.763 3423.32 95.9926C3420 91.2218 3416.16 87.0734 3411.81 83.5472C3407.66 79.8135 3403.1 76.9096 3398.12 74.8354C3393.14 72.7612 3387.54 71.724 3381.32 71.724C3379.45 71.724 3377.27 71.8278 3374.78 72.0352C3372.29 72.2426 3370.12 72.9686 3368.25 74.2131C3361.2 79.6061 3355.8 85.3103 3352.07 91.3255C3348.54 97.3408 3346.78 104.912 3346.78 114.038C3346.78 119.017 3347.92 123.58 3350.2 127.728C3352.48 131.669 3355.39 135.196 3358.91 138.307C3362.44 141.418 3366.38 144.115 3370.74 146.396C3375.09 148.678 3379.35 150.441 3383.49 151.686C3383.7 151.893 3384.43 152.101 3385.67 152.308C3386.92 152.515 3388.27 152.723 3389.72 152.93C3391.38 153.138 3392.83 153.345 3394.07 153.553C3395.32 153.76 3396.04 153.864 3396.25 153.864C3396.67 153.864 3397.39 154.278 3398.43 155.108C3399.47 155.73 3400.19 156.042 3400.61 156.042C3405.17 159.36 3409.84 162.679 3414.61 165.998C3419.59 169.109 3424.36 172.428 3428.92 175.954C3433.69 179.273 3438.25 182.903 3442.61 186.844C3446.97 190.785 3450.91 195.037 3454.43 199.6C3454.64 199.808 3455.06 200.534 3455.68 201.778C3456.3 203.023 3456.92 204.475 3457.54 206.134C3458.37 207.586 3459.1 209.142 3459.72 210.801C3460.34 212.253 3460.86 213.394 3461.28 214.224C3461.28 214.639 3461.28 215.468 3461.28 216.713C3461.49 217.957 3461.69 219.306 3461.9 220.758C3462.11 222.21 3462.32 223.662 3462.52 225.114C3462.94 226.358 3463.25 227.084 3463.46 227.291C3464.29 229.781 3465.32 232.062 3466.57 234.136C3467.81 236.003 3468.95 237.87 3469.99 239.737C3471.23 241.604 3472.27 243.47 3473.1 245.337C3473.93 247.204 3474.35 249.382 3474.35 251.871C3474.35 258.509 3472.89 264.628 3469.99 270.228C3467.09 275.828 3464.18 281.74 3461.28 287.963C3458.58 292.319 3455.06 296.571 3450.7 300.719C3446.34 304.868 3442.71 308.29 3439.81 310.987C3431.51 318.247 3421.97 323.328 3411.19 326.232C3400.4 329.344 3390.03 330.899 3380.07 330.899C3372.6 330.899 3365.03 330.485 3357.36 329.655C3349.68 328.825 3342.53 326.958 3335.89 324.054C3335.68 323.847 3334.96 323.432 3333.71 322.81C3332.47 321.98 3331.02 321.15 3329.36 320.321C3327.9 319.284 3326.45 318.35 3325 317.521C3323.76 316.691 3322.93 316.172 3322.51 315.965C3318.36 313.476 3314.63 311.298 3311.31 309.431C3308.2 307.357 3305.61 305.075 3303.53 302.586C3301.46 300.097 3299.9 297.089 3298.87 293.563C3297.83 290.037 3297.31 285.474 3297.31 279.873Z" fill="black"/>
<path d="M106.307 14.8887C135.313 14.8887 159.105 18.6367 177.682 26.1327C196.585 33.3027 210.599 44.2208 219.725 58.8868C228.85 73.5529 233.413 91.9669 233.413 114.129C233.413 132.706 229.991 148.187 223.147 160.571C216.302 172.956 207.503 182.896 196.748 190.392C186.319 197.563 175.238 203.266 163.505 207.503L259.323 363.941H207.992L123.417 219.725H53.9982V363.941H10V14.8887H106.307ZM103.863 53.0204H53.9982V182.571H106.307C125.21 182.571 140.691 180.126 152.75 175.238C164.808 170.023 173.608 162.527 179.148 152.75C185.015 142.972 187.948 130.75 187.948 116.084C187.948 100.767 184.852 88.5449 178.66 79.4193C172.793 70.2938 163.668 63.6126 151.283 59.3757C138.898 55.1389 123.092 53.0204 103.863 53.0204Z" fill="black"/>
<path d="M523.835 363.941H328.777V14.8887H523.835V53.5093H372.775V162.527H515.035V200.659H372.775V325.32H523.835V363.941Z" fill="black"/>
<path d="M810.148 363.941H615.089V14.8887H810.148V53.5093H659.087V162.527H801.348V200.659H659.087V325.32H810.148V363.941Z" fill="black"/>
<path d="M1147.3 14.8887L1022.64 363.941H978.643L853.982 14.8887H899.935L978.643 238.79C982.228 248.242 985.324 257.367 987.932 266.167C990.539 274.967 992.82 283.44 994.776 291.588C997.057 299.41 999.013 307.232 1000.64 315.054C1002.27 307.232 1004.06 299.247 1006.02 291.099C1008.3 282.952 1010.75 274.478 1013.35 265.678C1016.29 256.879 1019.38 247.59 1022.64 237.813L1100.86 14.8887H1147.3Z" fill="black"/>
<path d="M1404.26 363.941H1209.2V14.8887H1404.26V53.5093H1253.2V162.527H1395.46V200.659H1253.2V325.32H1404.26V363.941Z" fill="black"/>
<path d="M1693.5 270.567C1693.5 291.425 1688.45 309.187 1678.35 323.854C1668.24 338.194 1653.74 349.275 1634.84 357.097C1616.26 364.918 1594.26 368.829 1568.84 368.829C1555.8 368.829 1543.26 368.178 1531.2 366.874C1519.47 365.57 1508.71 363.778 1498.93 361.496C1489.16 358.889 1480.52 355.793 1473.02 352.208V310.165C1484.76 315.38 1499.26 320.106 1516.53 324.342C1534.13 328.579 1552.22 330.698 1570.8 330.698C1588.07 330.698 1602.57 328.416 1614.31 323.854C1626.04 319.291 1634.84 312.772 1640.7 304.299C1646.57 295.825 1649.5 285.885 1649.5 274.478C1649.5 263.071 1647.06 253.456 1642.17 245.635C1637.28 237.813 1628.81 230.643 1616.75 224.124C1605.02 217.28 1588.56 210.11 1567.37 202.614C1552.38 197.074 1539.18 191.207 1527.78 185.015C1516.69 178.497 1507.41 171.164 1499.91 163.016C1492.41 154.868 1486.71 145.58 1482.8 135.15C1479.21 124.721 1477.42 112.662 1477.42 98.974C1477.42 80.397 1482.15 64.5903 1491.6 51.5538C1501.05 38.1914 1514.09 27.9252 1530.71 20.7551C1547.66 13.585 1567.05 10 1588.88 10C1608.11 10 1625.71 11.7925 1641.68 15.3775C1657.65 18.9626 1672.15 23.6883 1685.19 29.5547L1671.5 67.1976C1659.44 61.983 1646.24 57.5832 1631.9 53.9982C1617.89 50.4131 1603.22 48.6206 1587.91 48.6206C1573.24 48.6206 1561.02 50.739 1551.24 54.9759C1541.46 59.2128 1534.13 65.2421 1529.24 73.064C1524.35 80.56 1521.91 89.3596 1521.91 99.4629C1521.91 111.196 1524.35 120.973 1529.24 128.795C1534.13 136.617 1542.12 143.624 1553.2 149.816C1564.28 156.009 1579.27 162.69 1598.17 169.86C1618.71 177.356 1635.98 185.504 1649.99 194.303C1664.33 202.777 1675.09 213.043 1682.26 225.102C1689.75 237.161 1693.5 252.316 1693.5 270.567Z" fill="black"/>
</svg>
