<svg width="1445" height="1288" viewBox="0 0 1445 1288" fill="none" xmlns="http://www.w3.org/2000/svg">
<path d="M476.858 606.858C480.742 606.858 487.431 607.289 496.925 608.152C506.851 608.584 517.208 609.015 527.996 609.447C538.785 609.878 548.926 610.526 558.42 611.389C568.346 611.82 575.035 612.036 578.487 612.036H588.844C591.865 611.605 596.18 610.742 601.79 609.447C607.4 608.152 610.637 607.289 611.5 606.858C626.173 601.248 638.256 594.559 647.75 586.791C657.244 578.591 665.659 569.745 672.995 560.251C680.331 550.325 687.02 539.968 693.062 529.18C699.535 517.959 707.087 506.524 715.718 494.872C716.581 492.714 718.092 490.125 720.249 487.104C722.407 483.652 723.486 481.278 723.486 479.984C723.486 479.552 723.702 477.61 724.133 474.158C724.996 470.705 725.644 467.037 726.075 463.153C726.507 459.27 726.938 455.601 727.37 452.149C727.801 448.697 728.017 446.539 728.017 445.676C728.449 444.813 729.096 441.792 729.959 436.613C731.254 431.435 732.333 428.414 733.196 427.551V416.547C733.196 407.484 732.764 397.99 731.901 388.065C731.038 378.139 728.233 368.861 723.486 360.23C717.444 349.442 712.266 338.869 707.95 328.512C704.066 317.723 699.104 307.366 693.062 297.44C692.199 297.009 690.904 295.93 689.178 294.204C687.883 292.046 686.373 290.104 684.647 288.378C683.352 286.22 682.058 284.278 680.763 282.552C679.468 280.394 678.605 279.1 678.174 278.668C678.174 278.237 677.311 276.726 675.584 274.137C673.858 271.116 671.916 268.311 669.759 265.722C668.032 262.701 666.09 259.896 663.933 257.307C662.207 254.718 661.128 253.207 660.696 252.776C660.696 251.481 660.049 250.402 658.754 249.539C657.891 248.676 657.028 248.244 656.165 248.244C652.713 246.087 649.045 244.792 645.161 244.361C641.277 243.929 637.393 243.713 633.509 243.713C629.625 243.713 625.741 243.497 621.857 243.066C618.405 242.634 614.953 240.908 611.5 237.887C605.89 234.867 600.712 232.062 595.965 229.472C591.649 226.451 587.118 224.078 582.371 222.352C578.055 220.194 573.093 218.684 567.483 217.821C562.304 216.526 556.047 215.879 548.711 215.879H539.648C537.49 215.879 534.038 216.094 529.291 216.526C524.976 216.958 520.229 217.605 515.05 218.468C509.872 218.899 504.693 219.331 499.514 219.763C494.767 220.194 491.315 220.41 489.157 220.41C488.726 220.841 487.431 222.136 485.273 224.294C483.116 226.451 480.742 228.825 478.153 231.414C475.995 233.572 473.622 235.73 471.033 237.887C468.875 240.045 467.364 241.556 466.501 242.419C466.501 243.282 466.07 245.439 465.207 248.892C464.775 251.913 464.128 254.286 463.265 256.012C463.265 257.738 462.402 260.975 460.675 265.722C459.381 270.037 458.734 273.274 458.734 275.432C457.007 279.747 455.713 284.926 454.85 290.967C454.418 296.577 452.476 301.324 449.024 305.208V364.761C449.455 367.351 449.887 374.255 450.318 385.475C450.75 396.264 451.182 408.132 451.613 421.078C452.476 433.593 453.123 445.46 453.555 456.68C453.987 467.469 454.202 474.158 454.202 476.747C454.202 478.905 453.987 484.083 453.555 492.283C453.123 500.482 452.476 509.329 451.613 518.823C451.182 528.317 450.75 537.379 450.318 546.01C449.887 554.209 449.455 559.388 449.024 561.545V573.197C449.024 579.67 451.613 586.359 456.792 593.264C462.402 600.169 469.091 604.7 476.858 606.858ZM881.431 1055.45C872.369 1055.45 863.306 1056.53 854.244 1058.68C845.181 1060.41 836.335 1061.27 827.704 1061.27C825.546 1061.27 821.662 1059.98 816.052 1057.39C822.094 1060.84 810.442 1054.8 816.052 1057.39C810.442 1053.51 805.048 1049.84 799.869 1046.39C795.122 1042.93 792.101 1040.13 790.807 1037.97C784.765 1029.34 779.802 1020.49 775.918 1011.43C772.466 1002.37 768.151 993.737 762.972 985.538C762.109 983.38 759.736 980.143 755.852 975.828C752.399 971.081 733.196 959.213 733.196 958.35C732.333 957.056 730.822 954.682 728.664 951.23C726.938 947.777 724.996 944.109 722.839 940.225C721.112 935.91 719.386 932.026 717.66 928.574C716.365 925.121 715.718 922.748 715.718 921.453C714.423 920.59 712.481 918.648 709.892 915.627C707.734 912.175 706.224 909.586 705.361 907.86C694.572 892.324 683.784 877.004 672.995 861.9C662.638 846.365 652.497 830.397 642.571 813.999C642.571 813.136 641.924 811.625 640.629 809.467C639.766 807.31 638.903 805.799 638.04 804.936C632.43 791.127 626.173 778.181 619.268 766.097C612.363 754.014 605.243 741.499 597.907 728.553C597.907 728.121 597.475 727.043 596.612 725.316C595.749 723.159 594.67 721.217 593.375 719.491C592.512 717.333 591.649 715.391 590.786 713.665C589.923 711.507 589.276 710.212 588.844 709.781C587.981 709.781 585.176 708.27 580.429 705.25C576.114 701.797 572.877 699.208 570.719 697.482C569.856 697.05 568.13 695.971 565.541 694.245C562.951 692.088 560.146 690.146 557.126 688.419C554.536 686.262 551.947 684.32 549.358 682.594C546.769 680.867 545.042 679.789 544.179 679.357C543.316 678.494 540.943 676.12 537.059 672.237C533.606 668.353 531.449 665.979 530.586 665.116C529.723 664.685 527.996 663.821 525.407 662.527C523.249 661.232 520.66 659.938 517.639 658.643C515.05 656.917 512.461 655.406 509.871 654.112C507.282 652.817 505.34 651.954 504.046 651.522C503.183 651.522 500.162 651.091 494.983 650.228C489.805 648.933 486.784 647.854 485.921 646.991C484.626 646.991 481.605 645.697 476.858 643.107C472.111 640.518 468.659 639.223 466.501 639.223H465.854C463.265 639.223 460.028 641.597 456.144 646.344C452.26 650.659 448.376 655.838 444.493 661.879C440.609 667.49 437.372 673.1 434.783 678.71C432.194 684.32 430.899 688.204 430.899 690.361C430.899 698.561 431.762 706.113 433.488 713.017C435.646 719.922 436.725 727.474 436.725 735.673C436.725 743.441 435.646 750.562 433.488 757.035C431.762 763.508 430.899 770.197 430.899 777.102C430.899 784.87 432.194 792.637 434.783 800.405C437.804 807.741 439.961 814.862 441.256 821.767V903.328C441.256 904.623 440.393 907.86 438.667 913.038C437.372 917.785 436.725 920.59 436.725 921.453V925.984C436.725 938.499 439.53 949.072 445.14 957.703C451.182 965.902 461.107 1052.64 469.738 1058.68C478.369 1064.29 487.647 1069.26 497.573 1073.57C507.93 1077.89 517.424 1082.2 526.054 1086.52C534.685 1090.4 541.806 1094.72 547.416 1099.47C553.457 1104.21 556.478 1109.82 556.478 1116.3C556.478 1121.47 554.536 1126.01 550.652 1129.89C547.2 1133.34 542.669 1136.36 537.059 1138.95C531.88 1141.11 526.486 1142.62 520.876 1143.48C515.266 1144.78 510.519 1145.42 506.635 1145.42C503.614 1145.42 498.651 1145.21 491.747 1144.78C484.842 1144.78 477.506 1144.56 469.738 1144.13C462.402 1144.13 455.281 1143.91 448.376 1143.48C441.903 1143.05 430.899 1151.65 434.783 1142.19L363.067 1151.65L281.369 1140.89C277.917 1143.05 271.012 1064.73 265.833 1065.16C260.655 1065.59 255.692 1065.8 250.945 1065.8H202.396C199.807 1064.94 196.139 1063 191.392 1059.98C186.645 1056.96 184.271 1053.72 184.271 1050.27C184.271 1047.25 185.35 1044.01 187.508 1040.56C190.097 1037.11 192.902 1034.09 195.923 1031.5C199.376 1028.48 202.828 1026.1 206.28 1024.38C209.733 1022.22 212.538 1021.14 214.695 1021.14L290.431 1100.76C291.294 1100.76 292.373 1100.11 293.668 1098.82C295.394 1097.09 296.904 1095.15 298.199 1092.99C299.494 1090.83 300.573 1088.89 301.436 1087.17C302.73 1085.01 303.378 1083.5 303.378 1082.64L300.788 958.35C301.22 957.056 301.651 954.035 302.083 949.288C302.946 944.109 303.593 938.715 304.025 933.105C304.888 927.495 305.535 922.316 305.967 917.569C306.398 912.391 306.614 909.154 306.614 907.86C306.614 906.133 306.398 902.034 305.967 895.561C305.535 889.087 305.32 882.83 305.32 876.788C305.32 873.768 305.32 870.963 305.32 868.373C305.32 865.784 305.751 864.058 306.614 863.195C306.614 862.763 306.614 861.469 306.614 859.311C307.046 856.722 307.477 850.896 307.909 841.833C308.34 832.771 308.772 819.177 309.204 801.052C309.635 782.496 309.851 756.819 309.851 724.022C315.029 716.254 318.05 709.349 318.913 703.308C319.776 697.266 320.208 690.146 320.208 681.946C320.208 678.925 319.992 675.042 319.561 670.295C319.129 665.116 318.913 662.095 318.913 661.232C318.913 660.369 318.05 658.859 316.324 656.701C315.029 654.112 314.382 652.386 314.382 651.522V650.228C314.382 639.008 315.245 627.572 316.971 615.92C319.129 603.837 320.208 592.185 320.208 580.965C320.208 572.334 319.129 565.861 316.971 561.545C315.245 557.23 314.382 552.051 314.382 546.01V544.068C314.382 542.773 315.029 539.968 316.324 535.653C318.05 530.906 318.913 528.101 318.913 527.238C319.345 525.512 319.776 522.922 320.208 519.47C320.639 515.586 321.071 511.702 321.503 507.818C322.366 503.934 323.013 500.482 323.444 497.461C323.876 494.009 324.308 491.635 324.739 490.341V435.319C324.739 433.593 325.171 428.63 326.034 420.431C327.328 411.8 328.623 402.737 329.918 393.243C331.644 383.318 333.154 374.255 334.449 366.056C335.743 357.425 336.607 352.031 337.038 349.873V315.565C337.038 314.702 337.254 312.976 337.685 310.387C338.117 307.366 338.549 304.345 338.98 301.324C339.843 297.872 340.49 294.851 340.922 292.262C341.354 289.673 341.569 288.162 341.569 287.731V278.668C341.569 277.805 340.275 275.647 337.685 272.195C335.096 268.311 333.37 265.938 332.507 265.075C331.644 263.78 330.133 262.27 327.976 260.543C326.25 258.817 324.308 257.091 322.15 255.365C320.424 253.207 318.697 251.481 316.971 250.186C315.677 248.892 314.814 248.244 314.382 248.244C313.519 247.381 310.067 246.518 304.025 245.655C297.983 244.361 294.099 243.282 292.373 242.419C290.216 242.419 286.547 241.771 281.369 240.477C276.19 239.182 270.796 237.887 265.186 236.593C259.576 235.298 254.182 234.003 249.003 232.709C244.256 231.414 241.02 230.551 239.293 230.12C230.662 227.962 229.621 223.646 242.974 217.173C255.624 210.269 261.949 202.285 261.949 193.223C261.949 189.77 306.799 189.986 303.285 187.397C299.068 184.807 294.5 182.65 289.581 180.924C283.958 178.766 277.984 177.255 271.659 176.392C265.334 175.098 278.78 174.45 281.369 174.45C286.547 174.45 291.079 174.666 294.963 175.098C298.846 175.529 303.378 176.824 308.556 178.982C293.021 177.687 324.092 179.845 308.556 178.982C324.092 180.276 339.196 180.924 353.868 180.924C368.541 180.924 382.782 180.276 396.591 178.982C410.401 177.687 423.778 176.608 436.725 175.745C440.609 173.587 443.845 172.293 446.435 171.861C449.024 171.43 452.045 171.214 455.497 171.214C461.107 171.214 465.638 172.94 469.091 176.392C472.974 179.413 477.722 180.924 483.332 180.924C494.12 180.924 504.693 180.276 515.05 178.982C525.839 177.255 536.411 175.529 546.769 173.803C557.126 172.077 567.267 170.567 577.192 169.272C587.549 167.546 598.122 166.683 608.911 166.683H633.509C636.098 168.84 639.335 170.351 643.219 171.214C647.103 172.077 650.986 172.724 654.87 173.156C658.754 173.587 662.422 174.019 665.875 174.45C669.327 174.45 672.132 174.882 674.29 175.745C676.016 176.177 678.605 178.334 682.058 182.218C685.51 185.671 687.668 187.828 688.531 188.691L760.383 211.347C760.383 211.347 761.677 212.642 764.267 215.231C766.856 217.389 769.661 220.194 772.682 223.646C776.134 227.099 779.371 230.551 782.392 234.003C785.844 237.456 788.433 240.261 790.159 242.419C791.023 243.282 792.749 245.655 795.338 249.539C797.927 252.991 799.653 255.149 800.516 256.012C806.127 263.348 813.247 269.174 821.878 273.49C830.94 277.805 837.198 282.552 840.65 287.731C846.692 299.382 851.439 311.25 854.891 323.333C858.343 334.985 862.659 347.284 867.837 360.23C867.837 360.662 868.269 361.741 869.132 363.467C869.995 365.193 870.858 367.135 871.721 369.293C872.584 371.019 873.447 372.961 874.31 375.118C875.174 376.845 875.605 377.923 875.605 378.355V382.886C875.605 383.318 875.174 384.612 874.31 386.77C873.447 388.928 872.584 391.301 871.721 393.891C870.858 396.048 869.995 398.206 869.132 400.364C868.269 402.521 867.837 404.032 867.837 404.895V454.091C867.837 454.954 867.406 456.249 866.543 457.975C865.68 459.701 864.601 461.643 863.306 463.801C862.012 465.527 860.717 467.253 859.422 468.979C858.559 470.705 857.912 471.784 857.48 472.216C857.48 472.647 857.265 474.158 856.833 476.747C856.833 478.905 856.617 481.278 856.186 483.868C855.754 486.457 855.107 488.83 854.244 490.988C853.812 493.146 853.381 494.44 852.949 494.872C849.928 507.818 844.534 521.412 836.766 535.653C829.43 549.894 820.583 563.487 810.226 576.434C799.869 588.949 788.433 600.384 775.918 610.741C763.404 621.099 750.673 629.082 737.727 634.692C736.864 634.692 733.627 635.124 728.017 635.987C722.839 636.85 719.818 637.929 718.955 639.223C712.05 643.107 706.008 649.796 700.83 659.29C696.083 668.784 691.983 676.984 688.531 683.888C688.962 684.751 689.394 685.399 689.825 685.83C690.688 686.693 691.767 687.125 693.062 687.125C708.166 700.071 722.407 713.449 735.785 727.258C749.163 741.068 761.677 756.388 773.329 773.218C773.329 774.081 773.976 776.454 775.271 780.338C776.566 783.791 777.429 785.948 777.86 786.812C777.86 787.675 778.292 789.185 779.155 791.343C780.45 793.5 781.529 795.011 782.392 795.874C785.844 801.916 788.865 807.957 791.454 813.999C794.043 819.609 797.064 825.435 800.516 831.476C803.537 837.518 806.342 842.481 808.932 846.365C811.521 850.248 814.11 853.917 816.699 857.369C819.289 860.821 822.094 864.274 825.115 867.726C828.135 871.178 831.588 875.494 835.471 880.672C845.829 894.482 856.186 909.154 866.543 924.69C877.331 939.794 861.148 961.155 874.958 970.649C883.157 976.691 892.435 981.654 902.792 985.538C913.581 988.99 923.506 993.09 932.569 997.837C941.631 1002.15 949.183 1008.19 955.225 1015.96C961.698 1023.3 964.935 1033.87 964.935 1047.68L993.417 1048.97C993.417 1051.13 993.201 1053.51 992.769 1056.1C992.769 1058.68 991.69 1060.41 989.533 1061.27C988.67 1061.27 985.865 1061.71 981.118 1062.57C976.371 1063.86 972.918 1064.94 970.761 1065.8C969.898 1065.8 967.524 1065.8 963.64 1065.8C959.756 1066.24 955.009 1066.67 949.399 1067.1C944.221 1067.53 938.826 1067.96 933.216 1068.39C928.038 1069.26 923.722 1069.9 920.27 1070.34H918.975C916.386 1070.34 913.797 1069.47 911.208 1067.75C908.618 1066.45 905.813 1064.73 902.792 1062.57C900.203 1060.84 897.182 1059.33 893.73 1058.04C890.278 1056.31 886.178 1055.45 881.431 1055.45Z" fill="#3B3232"/>
<path d="M903.925 634.618C903.925 646.275 906.597 654.774 911.939 660.117C917.282 664.974 923.839 668.131 931.61 669.588C939.867 671.045 948.609 671.774 957.837 671.774C967.551 671.288 976.294 671.531 984.065 672.502C985.036 672.502 986.979 673.473 989.893 675.416C992.807 676.873 994.75 677.602 995.722 677.602C1005.44 680.516 1012.72 682.216 1017.58 682.702C1022.43 683.187 1029.72 683.43 1039.43 683.43C1048.66 683.43 1058.13 683.187 1067.85 682.702C1077.56 681.73 1086.3 679.788 1094.07 676.873C1102.33 673.959 1108.89 669.345 1113.75 663.031C1119.09 656.717 1121.76 647.974 1121.76 636.803C1121.76 622.718 1119.33 608.147 1114.47 593.091C1110.1 577.549 1102.33 565.406 1091.16 556.664C1088.73 556.664 1084.85 556.421 1079.5 555.935C1074.65 555.45 1069.3 554.964 1063.48 554.478C1057.65 553.992 1051.82 553.507 1045.99 553.021C1040.65 552.05 1036.76 551.564 1034.33 551.564C1033.36 551.078 1032.15 550.35 1030.69 549.378C1027.78 547.436 1026.08 546.464 1025.59 546.464H1013.21C1003.01 546.464 991.35 549.135 978.237 554.478C965.608 559.335 953.709 565.892 942.538 574.149C931.853 582.406 922.624 591.877 914.853 602.562C907.568 612.762 903.925 623.447 903.925 634.618ZM737.089 814.568C737.089 785.912 740.246 757.013 746.56 727.871C753.36 698.244 765.259 671.288 782.259 647.003C785.658 642.146 790.515 635.832 796.829 628.061C803.143 619.804 809.215 611.79 815.043 604.019C821.357 595.762 826.7 588.477 831.071 582.163C835.442 575.849 837.871 572.206 838.356 571.235C844.67 563.463 852.927 556.178 863.127 549.378C873.326 542.579 884.012 536.022 895.183 529.708C906.354 523.394 917.525 517.322 928.696 511.494C939.867 505.18 949.581 499.109 957.837 493.281C967.551 491.338 977.265 489.881 986.979 488.909C996.693 487.452 1006.41 486.724 1016.12 486.724C1032.15 486.724 1046.72 488.424 1059.83 491.823C1070.03 498.623 1080.96 502.994 1092.62 504.937C1104.27 506.394 1115.69 508.823 1126.86 512.223C1136.09 514.651 1145.07 518.537 1153.82 523.879C1163.04 528.736 1171.3 534.807 1178.59 542.093C1186.36 548.893 1193.4 556.421 1199.71 564.678C1206.51 572.449 1212.34 580.22 1217.2 587.991C1217.68 588.477 1218.41 589.691 1219.38 591.634C1220.36 593.577 1221.33 595.762 1222.3 598.191C1223.76 600.133 1224.97 602.076 1225.94 604.019C1226.91 605.962 1227.4 607.176 1227.4 607.662C1229.83 611.062 1232.98 614.947 1236.87 619.318C1241.24 623.204 1245.37 627.575 1249.25 632.432C1253.14 636.803 1256.3 641.66 1258.73 647.003C1261.64 651.86 1263.1 656.96 1263.1 662.302C1263.1 666.188 1262.85 671.045 1262.37 676.873C1261.88 682.216 1260.91 687.801 1259.45 693.63C1258 698.972 1255.81 704.072 1252.9 708.929C1250.47 713.786 1247.07 717.186 1242.7 719.129C1241.73 719.129 1239.78 719.615 1236.87 720.586C1234.44 721.557 1231.53 722.772 1228.13 724.229C1224.73 725.2 1221.33 726.171 1217.93 727.143C1215.01 728.114 1213.07 728.843 1212.1 729.328C1211.61 729.328 1209.91 730.057 1207 731.514C1204.57 732.485 1203.11 733.214 1202.63 733.7C1196.31 733.7 1186.6 733.943 1173.49 734.428C1160.86 734.428 1146.29 734.671 1129.77 735.157C1113.75 735.157 1096.75 735.4 1078.78 735.885C1060.8 736.371 1043.56 736.857 1027.05 737.342C1011.02 737.828 996.45 738.314 983.336 738.799C970.223 738.799 960.509 738.799 954.195 738.799C952.252 738.799 948.609 739.042 943.266 739.528C937.924 739.528 932.338 739.771 926.51 740.257C920.682 740.742 915.096 741.471 909.754 742.442C904.897 742.928 901.497 743.414 899.554 743.899C886.926 754.099 878.426 766.484 874.055 781.055C870.169 795.14 868.227 810.197 868.227 826.225C868.227 843.71 869.927 859.009 873.326 872.123C876.726 884.751 881.826 899.322 888.626 915.835C889.597 916.807 890.569 918.75 891.54 921.664C892.997 924.092 893.726 925.792 893.726 926.764C894.211 927.249 895.426 928.463 897.368 930.406C899.797 931.863 901.982 933.806 903.925 936.235C906.354 938.177 908.539 940.363 910.482 942.792C912.425 944.734 913.396 946.191 913.396 947.163C913.882 947.648 915.339 949.348 917.767 952.263C920.682 954.691 923.596 957.605 926.51 961.005C929.424 964.405 932.096 967.805 934.524 971.205C936.952 974.119 938.41 976.062 938.895 977.033C939.867 977.033 940.838 977.762 941.809 979.219C943.267 980.676 944.481 981.404 945.452 981.404C949.823 985.29 955.166 989.904 961.48 995.247C968.28 1000.59 974.837 1005.69 981.151 1010.55C988.436 1016.37 996.207 1022.2 1004.46 1028.03C1025.35 1033.86 1045.51 1036.77 1064.93 1036.77C1084.36 1036.77 1105 1033.86 1126.86 1028.03C1139.49 1020.26 1152.36 1014.43 1165.47 1010.55C1179.07 1006.17 1192.67 1001.8 1206.27 997.432C1207.24 996.461 1209.18 995.489 1212.1 994.518C1215.01 993.061 1216.71 991.847 1217.2 990.875H1222.3C1225.7 992.332 1229.83 994.275 1234.68 996.704C1240.03 999.132 1242.7 1001.07 1242.7 1002.53C1243.67 1003.5 1244.64 1007.15 1245.61 1013.46C1247.07 1019.77 1247.8 1024.63 1247.8 1028.03C1247.8 1036.29 1245.37 1046 1240.51 1057.17C1236.14 1068.34 1231.77 1076.6 1227.4 1081.94C1227.4 1082.91 1224.48 1085.34 1218.66 1089.23C1213.31 1093.11 1209.18 1096.03 1206.27 1097.97C1190.73 1108.17 1175.43 1119.1 1160.37 1130.76C1145.32 1141.93 1129.04 1150.91 1111.56 1157.71C1110.59 1158.2 1108.16 1158.68 1104.27 1159.17C1100.87 1160.14 1097.23 1160.87 1093.35 1161.35C1089.46 1161.84 1085.82 1162.33 1082.42 1162.81C1079.02 1163.3 1077.08 1163.54 1076.59 1163.54C1067.36 1165.97 1059.35 1168.15 1052.55 1170.1C1046.23 1172.53 1038.71 1173.74 1029.96 1173.74C1021.71 1173.74 1014.18 1172.53 1007.38 1170.1C1000.58 1168.15 992.807 1165.97 984.065 1163.54C979.694 1162.57 973.38 1160.87 965.123 1158.44C957.352 1156.5 949.095 1154.07 940.352 1151.15C931.61 1148.24 923.353 1145.08 915.582 1141.68C908.296 1138.28 902.954 1135.13 899.554 1132.21C898.097 1131.73 895.426 1129.54 891.54 1125.66C887.654 1121.77 883.283 1117.64 878.426 1113.27C874.055 1108.9 869.927 1104.77 866.041 1100.89C862.155 1097 859.484 1094.57 858.027 1093.6C857.541 1092.63 855.113 1090.69 850.742 1087.77C846.37 1084.86 843.942 1082.91 843.456 1081.94C841.028 1080.97 838.113 1078.79 834.714 1075.39C831.314 1071.5 829.128 1069.07 828.157 1068.1C826.7 1066.16 823.543 1061.79 818.686 1054.99C814.314 1047.7 809.457 1039.93 804.115 1031.67C798.772 1023.42 793.43 1015.4 788.087 1007.63C783.23 999.861 779.83 994.275 777.887 990.875C771.088 981.161 766.473 971.448 764.045 961.734C762.102 952.02 759.917 941.577 757.488 930.406C757.488 929.921 756.517 927.735 754.574 923.849C753.117 919.478 752.388 916.807 752.388 915.835C746.074 901.265 741.946 884.994 740.003 867.023C738.06 848.567 737.089 831.082 737.089 814.568Z" fill="#3B3232"/>
<path d="M496.219 89.5665C486.611 99.1752 463.961 114.618 448.862 123.54C433.763 133.149 420.036 141.385 407.682 148.248C406.309 148.248 401.505 148.591 393.269 149.277C385.033 150.65 348.314 192.173 346.942 193.546C338.019 197.664 328.067 202.811 317.086 208.988C306.105 215.165 295.123 221.686 284.142 228.549C273.847 236.099 273.847 261.15 263.552 268.699C253.257 276.249 226.147 307.821 219.284 313.998C218.597 314.684 216.881 316.057 214.136 318.116C212.077 320.175 209.675 322.234 206.93 324.293C204.184 327.038 201.782 329.44 199.723 331.499C197.664 334.244 196.635 335.96 196.635 336.647C195.262 338.019 190.458 340.421 182.222 343.853C173.986 347.971 150.65 399.446 149.277 399.446L126.628 422.095C125.942 422.781 124.57 425.527 122.51 430.331C120.451 435.135 118.392 440.283 116.333 445.773C114.274 451.264 112.215 456.412 110.156 461.216C108.097 466.02 106.725 469.109 106.038 470.481C105.352 471.854 104.666 473.227 103.979 474.599C103.979 476.658 103.636 478.374 102.95 479.747C102.264 481.806 101.234 483.865 99.8615 485.924C83.3895 508.573 103.636 556.616 92.655 582.697C81.6737 608.778 99.8615 636.231 99.8615 665.057C99.8615 676.038 87.1644 686.676 92.655 694.912C98.832 703.148 103.293 713.1 106.039 724.768C106.039 725.454 106.382 727.513 107.068 730.945C107.754 735.063 107.411 784.479 108.098 788.597C108.784 792.715 109.47 796.49 110.157 799.921C110.843 803.353 111.529 805.069 112.216 805.069C114.275 810.56 117.363 815.707 121.481 820.511C125.599 826.002 133.149 861.005 137.953 865.809C142.757 871.3 147.562 876.104 152.366 880.222C157.17 885.027 161.288 889.145 164.72 892.576C165.406 893.949 167.465 897.381 170.897 902.871C174.329 908.362 178.104 914.196 182.222 920.373C186.34 927.236 190.114 933.413 193.546 938.904C196.978 945.081 199.38 949.199 200.753 951.258C204.871 956.749 211.391 963.269 220.313 970.819C229.922 978.368 263.552 1001.7 275.906 1030.48C286.887 1038.72 297.526 1073.77 307.821 1079.95C318.116 1086.12 322.577 1111.52 329.44 1114.95C330.126 1114.95 333.558 1115.63 339.735 1117.01C345.912 1119.07 369.934 1112.89 370.62 1112.89C378.856 1117.69 386.063 1122.5 392.24 1127.3C398.417 1132.79 404.25 1138.28 409.741 1143.77C409.741 1143.77 425.184 1123.53 431.361 1128.33C438.224 1133.14 437.538 1129.02 445.774 1132.45C465.677 1140.69 477.345 1139.66 495.19 1139.66C513.034 1140.34 532.595 1142.75 553.871 1146.86C555.244 1148.24 558.332 1149.95 563.137 1152.01C568.627 1154.76 584.413 1177.75 585.786 1177.75H649.615C665.4 1179.12 680.156 1182.55 693.883 1188.04C707.61 1194.22 722.023 1197.31 737.122 1197.31H744.329C753.251 1196.62 765.262 1195.59 780.361 1194.22C795.46 1192.85 810.217 1191.47 824.63 1190.1C839.043 1188.73 851.397 1187.36 861.692 1185.98C872.673 1185.3 878.85 1184.95 880.223 1184.95C881.595 1184.27 885.027 1182.9 890.518 1180.84C896.695 1178.78 946.111 1168.14 952.288 1165.39C959.151 1162.65 965.328 1159.9 970.819 1157.16C976.309 1155.1 980.084 1153.73 982.143 1153.04C1002.05 1146.86 1000.33 1138.28 1022.29 1133.48C1044.26 1128.68 1065.19 1122.5 1085.09 1114.95C1124.9 1103.28 1187.36 1042.51 1218.93 1018.49C1251.19 995.15 1236.77 947.14 1266.29 920.373C1269.03 919.687 1272.12 917.628 1275.55 914.196C1278.98 910.764 1281.38 908.019 1282.76 905.96C1291.68 892.233 1299.92 878.85 1307.47 865.809C1315.01 853.455 1323.25 841.445 1332.17 829.777C1334.23 826.345 1336.63 821.884 1339.38 816.393C1342.81 810.903 1345.21 807.814 1346.59 807.128C1352.76 794.088 1352.76 757.026 1352.76 743.299C1353.45 730.259 1355.17 717.218 1357.91 704.178C1357.91 703.492 1358.94 701.089 1361 696.971C1363.74 693.54 1365.12 691.481 1365.12 690.794C1365.12 689.422 1365.46 687.706 1366.15 685.647C1366.15 684.274 1366.15 682.558 1366.15 680.499C1366.83 679.127 1367.18 677.754 1367.18 676.381C1367.18 674.322 1366.83 671.577 1366.15 668.145C1365.46 664.714 1365.12 661.968 1365.12 659.909C1363.74 658.537 1362.37 656.821 1361 654.762C1358.94 651.33 1357.91 648.928 1357.91 647.555V611.523C1357.91 608.778 1365.12 600.885 1361 591.962C1357.57 583.726 1354.82 577.893 1352.76 574.461C1352.08 572.402 1349.67 568.284 1345.56 562.107C1341.44 556.616 1334.92 505.141 1330.11 498.278C1325.31 491.415 1320.51 484.894 1315.7 478.717C1311.58 472.54 1308.49 468.079 1306.44 465.334C1306.44 463.275 1304.38 460.187 1300.26 456.069C1298.2 454.01 1296.14 452.294 1294.08 450.921C1292.71 448.862 1290.65 444.401 1287.9 437.538C1285.16 430.674 1282.07 423.125 1278.64 414.889C1275.89 406.653 1273.15 399.103 1270.4 392.24C1267.66 385.376 1265.94 381.258 1265.26 379.886C1264.57 378.513 1261.14 375.768 1254.96 371.65C1249.47 367.532 1242.95 362.727 1235.4 357.237C1228.54 351.746 1227.16 309.193 1218.93 303.702C1211.38 298.212 1205.2 293.751 1200.4 290.319C1183.24 280.024 1190.1 253.6 1171.57 243.992C1153.73 235.069 1118.38 150.993 1100.54 142.071C1093.67 138.639 1086.47 136.237 1078.92 134.864C1072.05 133.492 1064.5 132.462 1056.27 131.776C1048.72 131.776 1041.17 131.09 1033.62 129.717C1026.75 128.344 1019.89 125.942 1013.03 122.51C1012.34 121.138 1009.25 118.392 1003.76 114.274C998.272 110.156 994.84 107.411 993.468 106.038C992.781 106.038 990.722 105.695 987.291 105.009C984.545 104.323 981.457 103.636 978.025 102.95C975.28 102.264 972.191 101.577 968.76 100.891C966.014 100.205 964.299 99.8614 963.612 99.8614C947.827 95.0571 908.362 86.8212 892.577 79.2715C876.791 72.4082 861.005 68.9765 845.22 68.9765H832.866C832.179 68.9765 830.12 69.3197 826.689 70.006C823.257 70.6924 819.482 71.3787 815.364 72.065C811.246 73.4377 807.128 74.4672 803.01 75.1535C799.579 76.5262 797.519 77.2125 796.833 77.2125C795.46 77.2125 792.029 76.5262 786.538 75.1535C781.047 74.4672 775.214 73.4377 769.037 72.065C762.86 71.3787 757.026 70.6924 751.535 70.006C746.045 69.3197 742.27 68.9765 740.211 68.9765H698.001C695.942 70.3492 690.795 72.7513 682.559 76.183C675.009 80.301 670.548 83.0463 669.175 84.419C667.116 84.419 662.655 84.419 655.792 84.419C648.928 85.1053 641.379 85.7917 633.143 86.478C625.593 87.1643 618.386 87.8507 611.523 88.537C604.66 89.2233 600.199 89.9097 598.14 90.596C594.708 91.2823 588.874 92.3118 580.638 93.6845C572.402 95.0572 563.48 96.4299 553.871 97.8025C544.949 99.1752 521.957 86.1348 513.721 87.5075C505.485 88.8802 499.651 89.5665 496.219 89.5665ZM12.354 521.956C15.7857 521.27 19.2173 517.152 22.649 509.602C25.3943 502.739 27.4533 497.592 28.826 494.16C29.5123 492.787 30.5418 488.669 31.9145 481.806C33.9735 475.629 36.0325 468.422 38.0915 460.186C40.8368 451.95 42.8958 443.371 44.2685 434.449C46.3275 426.213 47.7002 420.036 48.3865 415.918C49.0729 415.232 49.7592 413.173 50.4455 409.741C51.1319 406.996 51.8182 403.564 52.5045 399.446C53.8772 395.328 54.9067 391.21 55.593 387.092C56.2794 383.66 56.9657 381.258 57.652 379.885C57.652 379.199 59.3679 376.797 62.7995 372.679C66.2312 368.561 70.006 364.1 74.124 359.295C78.242 355.177 82.0169 350.716 85.4485 345.912C89.5665 341.794 91.9687 339.392 92.655 338.705C104.323 323.606 116.334 307.477 128.688 290.319C141.042 273.847 153.739 257.375 166.779 240.903C180.506 224.431 194.232 208.645 207.959 193.546C221.686 178.447 235.756 164.72 250.169 152.366C250.855 150.993 252.914 149.277 256.346 147.218C259.777 145.159 263.552 143.1 267.67 141.041C271.788 138.982 275.563 136.923 278.995 134.864C282.426 132.805 284.485 131.433 285.172 130.746C299.585 121.138 314.341 110.843 329.44 99.8615C344.539 88.8801 360.668 79.9578 377.827 73.0945C379.199 73.0945 384.004 72.065 392.24 70.006C400.476 67.947 405.28 66.9175 406.653 66.9175C424.497 61.4268 441.312 55.2498 457.098 48.3865C472.884 41.5232 489.699 35.6893 507.544 30.885C527.447 25.3943 547.351 20.59 567.255 16.472C587.158 12.354 607.062 7.54966 626.966 2.059C631.77 2.059 639.32 1.71583 649.615 1.0295C659.91 1.0295 670.548 1.0295 681.529 1.0295C693.197 1.0295 704.178 0.686333 714.473 0C724.768 4.50009e-07 731.975 7.65018e-07 736.093 9.45021e-07C742.956 1.24503e-06 752.221 1.65003e-06 763.889 2.16004e-06C775.557 0.686336 786.881 1.0295 797.863 1.0295C809.53 1.0295 819.482 1.0295 827.718 1.0295C836.64 1.71584 841.788 2.05901 843.161 2.05901C878.85 4.11801 913.853 12.0108 948.17 25.7375C982.486 39.4642 1016.8 53.1908 1051.12 66.9175C1051.81 66.9175 1054.21 67.6038 1058.33 68.9765C1062.44 70.3492 1066.56 71.7218 1070.68 73.0945C1075.48 74.4672 1079.95 75.8398 1084.06 77.2125C1088.18 78.5852 1090.93 79.6147 1092.3 80.301C1093.67 80.9873 1096.42 83.3895 1100.54 87.5075C1104.65 92.3118 1109.11 97.1162 1113.92 101.921C1118.72 107.411 1123.18 112.216 1127.3 116.334C1131.42 121.138 1133.82 124.226 1134.51 125.599C1155.79 142.757 1177.75 157.857 1200.4 170.897C1223.73 184.624 1245.35 202.468 1265.26 224.431C1272.12 231.294 1276.92 237.815 1279.67 243.992C1283.1 250.169 1285.85 256.346 1287.9 262.523C1289.96 268.7 1292.02 274.877 1294.08 281.054C1296.83 287.917 1300.6 295.467 1305.41 303.703C1306.09 303.703 1307.81 304.732 1310.55 306.791C1313.99 309.536 1317.42 312.282 1320.85 315.027C1324.28 318.459 1327.37 321.547 1330.11 324.293C1332.86 327.724 1334.92 330.126 1336.29 331.499C1337.66 333.558 1340.41 337.676 1344.53 343.853C1348.65 350.03 1353.11 356.55 1357.91 363.414C1362.72 370.277 1367.18 376.797 1371.29 382.974C1375.41 389.151 1378.5 393.612 1380.56 396.358C1381.25 399.789 1381.93 402.878 1382.62 405.623C1383.31 407.682 1383.65 409.741 1383.65 411.8C1384.33 413.859 1385.02 415.232 1385.71 415.918C1389.83 425.527 1394.97 435.135 1401.15 444.744C1408.01 455.039 1414.53 464.991 1420.71 474.6C1427.57 484.895 1433.06 495.189 1437.18 505.484C1441.99 515.779 1444.39 526.074 1444.39 536.369C1444.39 545.978 1443.02 555.244 1440.27 564.166C1437.53 573.088 1436.15 582.354 1436.15 591.962V602.257C1436.15 604.316 1437.18 608.778 1439.24 615.641C1441.99 623.191 1443.36 627.652 1443.36 629.024C1443.36 629.711 1443.36 632.113 1443.36 636.231C1443.36 640.349 1443.36 644.81 1443.36 649.614C1444.05 655.105 1444.39 660.253 1444.39 665.057C1444.39 669.861 1444.39 673.979 1444.39 677.411C1444.39 687.02 1443.7 698.001 1442.33 710.355C1441.64 722.709 1440.27 735.063 1438.21 747.417C1436.84 760.457 1434.78 772.811 1432.03 784.479C1429.29 796.833 1425.86 807.471 1421.74 816.393C1421.05 818.452 1419.34 822.227 1416.59 827.718C1413.85 833.209 1410.76 839.042 1407.33 845.219C1403.9 852.083 1400.81 858.26 1398.06 863.75C1395.32 869.241 1393.6 873.016 1392.91 875.075C1391.54 876.448 1389.83 880.909 1387.77 888.458C1386.39 896.008 1385.71 900.469 1385.71 901.842C1381.59 916.255 1374.04 929.295 1363.06 940.963C1352.76 952.631 1343.84 963.955 1336.29 974.937C1328.74 984.545 1322.56 995.527 1317.76 1007.88C1313.64 1020.92 1307.81 1033.62 1300.26 1045.97L1293.05 1053.18C1291.68 1053.86 1288.93 1054.55 1284.82 1055.24C1281.38 1056.61 1277.61 1057.98 1273.49 1059.36C1270.06 1060.73 1266.63 1061.76 1263.2 1062.44C1259.76 1063.82 1258.05 1064.85 1258.05 1065.53C1248.44 1071.71 1242.61 1078.23 1240.55 1085.09C1238.49 1092.64 1234.71 1100.88 1229.22 1109.8C1223.73 1118.04 1215.84 1126.62 1205.54 1135.54C1195.25 1145.15 1183.93 1154.07 1171.57 1162.31C1159.22 1171.23 1146.52 1179.12 1133.48 1185.98C1121.13 1193.53 1109.8 1199.02 1099.51 1202.46C1098.13 1203.83 1093.33 1204.86 1085.09 1205.54C1077.54 1206.92 1072.74 1207.6 1070.68 1207.6C1067.93 1209.66 1063.82 1211.38 1058.33 1212.75C1053.52 1214.12 1051.12 1215.5 1051.12 1216.87C1049.06 1218.24 1045.97 1220.64 1041.85 1224.08C1037.74 1228.19 1033.28 1232.65 1028.47 1237.46C1023.67 1242.26 1019.21 1238.49 1015.09 1242.61C1010.97 1246.72 1008.57 1249.81 1007.88 1251.87H999.645L979.055 1254.96C975.623 1252.9 972.878 1251.87 970.819 1251.87H967.73C951.258 1251.87 950.229 1255.65 935.816 1261.14C922.089 1266.63 907.676 1270.75 892.577 1273.49C864.437 1278.3 836.297 1281.73 808.158 1283.79C780.704 1286.53 752.908 1287.9 724.768 1287.9H665.057C662.998 1287.9 657.851 1286.88 649.615 1284.82C642.065 1283.44 637.604 1282.76 636.231 1282.76C634.858 1281.38 632.456 1280.7 629.025 1280.7C626.279 1280.7 622.848 1280.7 618.73 1280.7C609.121 1280.7 599.512 1281.04 589.904 1281.73C580.981 1282.41 575.147 1282.76 572.402 1282.76C571.029 1282.07 568.284 1280.7 564.166 1278.64C560.734 1277.27 556.96 1275.55 552.842 1273.49C548.724 1272.12 544.949 1270.75 541.517 1269.37C538.772 1268 537.056 1267.31 536.37 1267.31C534.311 1267.31 530.193 1266.97 524.016 1266.28C517.839 1265.6 510.975 1264.57 503.426 1263.2C496.562 1262.51 490.042 1261.82 483.865 1261.14C477.688 1260.45 473.913 1260.11 472.541 1260.11C470.482 1260.11 467.736 1259.08 464.305 1257.02C460.873 1255.65 458.128 1254.27 456.069 1252.9C454.696 1252.22 451.951 1250.5 447.833 1247.75C443.715 1245.01 439.253 1241.92 434.449 1238.49C430.331 1235.06 426.213 1231.97 422.095 1229.22C417.977 1226.48 415.232 1224.76 413.859 1224.08C412.486 1223.39 409.741 1222.36 405.623 1220.99C401.505 1219.61 397.044 1217.9 392.24 1215.84C387.435 1214.47 382.974 1212.75 378.856 1210.69C374.738 1209.32 371.993 1208.29 370.62 1207.6C363.757 1204.86 355.864 1201.43 346.942 1197.31C338.019 1193.19 328.754 1188.39 319.145 1182.9C310.223 1178.09 301.3 1172.94 292.378 1167.45C284.142 1161.96 276.936 1157.16 270.759 1153.04C270.072 1151.67 268.013 1149.27 264.581 1145.83C261.836 1142.4 259.777 1139.31 258.405 1136.57C244.678 1120.78 230.608 1105.34 216.195 1090.24C201.782 1075.83 187.369 1061.07 172.956 1045.97C158.543 1031.56 144.473 1016.8 130.747 1001.7C117.02 986.604 104.323 970.475 92.655 953.317C91.2823 937.531 87.8507 925.177 82.36 916.255C76.8693 908.019 71.0355 896.694 64.8585 882.281C63.4858 880.222 61.77 876.448 59.711 870.957C58.3383 866.153 57.652 862.035 57.652 858.603C49.416 831.15 41.5232 804.039 33.9735 777.272C27.1102 750.505 19.9037 723.052 12.354 694.912C11.6677 687.363 9.60867 680.156 6.177 673.293C2.059 667.116 -3.30006e-07 660.253 0 652.703L3.15007e-07 645.496C3.75008e-07 644.124 1.0295 640.349 3.0885 634.172C5.1475 628.681 6.177 625.25 6.177 623.877C6.86334 620.445 7.54967 613.925 8.236 604.316C8.92234 594.708 9.60867 584.413 10.295 573.431C10.9813 562.45 11.6677 552.155 12.354 542.546C12.354 532.938 12.354 526.074 12.354 521.956Z" fill="#3B3232"/>
</svg>
